SplineFontDB: 3.0
FontName: Michroma
FullName: Michroma
FamilyName: Michroma
Weight: Book
Copyright: 
Version: 1.000
ItalicAngle: 0
UnderlinePosition: -103
UnderlineWidth: 102
Ascent: 1638
Descent: 410
sfntRevision: 0x00010000
LayerCount: 2
Layer: 0 1 "Back"  1
Layer: 1 1 "Fore"  0
NeedsXUIDChange: 1
XUID: [1021 823 301787212 7475719]
FSType: 0
OS2Version: 2
OS2_WeightWidthSlopeOnly: 0
OS2_UseTypoMetrics: 1
CreationTime: 1300382573
ModificationTime: 1300481827
PfmFamily: 81
TTFWeight: 400
TTFWidth: 5
LineGap: 0
VLineGap: 0
Panose: 0 0 0 0 0 0 0 0 0 0
OS2TypoAscent: 2368
OS2TypoAOffset: 0
OS2TypoDescent: -544
OS2TypoDOffset: 0
OS2TypoLinegap: 0
OS2WinAscent: 2368
OS2WinAOffset: 0
OS2WinDescent: 544
OS2WinDOffset: 0
HheadAscent: 2368
HheadAOffset: 0
HheadDescent: -544
HheadDOffset: 0
OS2SubXSize: 1434
OS2SubYSize: 1331
OS2SubXOff: 0
OS2SubYOff: 287
OS2SupXSize: 1434
OS2SupYSize: 1331
OS2SupXOff: 0
OS2SupYOff: 977
OS2StrikeYSize: 102
OS2StrikeYPos: 512
OS2Vendor: 'newt'
OS2CodePages: 20000111.40000000
OS2UnicodeRanges: 800000af.7800204b.14000000.00000000
Lookup: 258 0 0 "'kern' Horizontal Kerning in Latin lookup 0"  {"'kern' Horizontal Kerning in Latin lookup 0 per glyph data 0"  "'kern' Horizontal Kerning in Latin lookup 0 per glyph data 1"  "'kern' Horizontal Kerning in Latin lookup 0 kerning class 2"  } ['kern' ('latn' <'dflt' > ) ]
MarkAttachClasses: 1
DEI: 91125
KernClass2: 8+ 3 "'kern' Horizontal Kerning in Latin lookup 0 kerning class 2" 
 1 T
 1 Y
 3 m n
 1 K
 1 L
 1 P
 1 V
 7 b e o p
 13 a c d e g o q
 5 v w y
 0 {} -512 {} 0 {} 0 {} -512 {} 0 {} 0 {} 0 {} -64 {} 0 {} -128 {} 0 {} 0 {} -128 {} 0 {} 0 {} -64 {} 0 {} 0 {} -256 {} 0 {} 0 {} 0 {} -64 {}
TtTable: prep
PUSHW_1
 511
SCANCTRL
PUSHB_1
 1
SCANTYPE
SVTCA[y-axis]
MPPEM
PUSHB_1
 8
LT
IF
PUSHB_2
 1
 1
INSTCTRL
EIF
PUSHB_2
 70
 6
CALL
IF
POP
PUSHB_1
 16
EIF
MPPEM
PUSHB_1
 20
GT
IF
POP
PUSHB_1
 128
EIF
SCVTCI
PUSHB_1
 6
CALL
NOT
IF
SVTCA[y-axis]
PUSHB_1
 4
DUP
RCVT
PUSHB_1
 3
CALL
WCVTP
SVTCA[x-axis]
PUSHB_1

StartChar: exclam
Encoding: 33 33 8
Width: 448
GlyphClass: 2
Flags: W
HStem: 0 192<128 320> 1516 20G<128 320>
VStem: 128 192<0 192 1211.05 1536> 176 96<448 772.949>
LayerCount: 2
Fore
SplineSet
128 1536 m 1,0,-1
 320 1536 l 1,1,-1
 272 448 l 1,2,-1
 176 448 l 1,3,-1
 128 1536 l 1,0,-1
320 0 m 1,4,-1
 128 0 l 1,5,-1
 128 192 l 1,6,-1
 320 192 l 1,7,-1
 320 0 l 1,4,-1
EndSplineSet
EndChar

StartChar: quotedbl
Encoding: 34 34 9
Width: 768
GlyphClass: 2
Flags: W
HStem: 1152 384<160 288 480 608>
VStem: 160 128<1152 1324.03> 480 128<1152 1324.03>
LayerCount: 2
Fore
SplineSet
128 1536 m 1,0,-1
 320 1536 l 1,1,-1
 288 1152 l 1,2,-1
 160 1152 l 1,3,-1
 128 1536 l 1,0,-1
448 1536 m 1,4,-1
 640 1536 l 1,5,-1
 608 1152 l 1,6,-1
 480 1152 l 1,7,-1
 448 1536 l 1,4,-1
EndSplineSet
EndChar

StartChar: numbersign
Encoding: 35 35 10
Width: 1536
GlyphClass: 2
Flags: W
HStem: 320 160<128 354 565 835 1046 1344> 864 160<192 489 700 970 1181 1408>
DStem2: 255 -80 415 -128 0.240769 0.970582<0 412.069 618.165 972.57 1178.67 1590.98> 736 -80 896 -128 0.240769 0.970582<0 412.069 618.165 972.57 1178.67 1590.98>
LayerCount: 2
Fore
SplineSet
835 320 m 1,0,-1
 526 320 l 1,1,-1
 415 -128 l 1,2,-1
 255 -80 l 1,3,-1
 354 320 l 1,4,-1
 128 320 l 1,5,-1
 128 480 l 1,6,-1
 393 480 l 1,7,-1
 489 864 l 1,8,-1
 192 864 l 1,9,-1
 192 1024 l 1,10,-1
 528 1024 l 1,11,-1
 640 1472 l 1,12,-1
 800 1424 l 1,13,-1
 700 1024 l 1,14,-1
 1009 1024 l 1,15,-1
 1121 1472 l 1,16,-1
 1281 1424 l 1,17,-1
 1181 1024 l 1,18,-1
 1408 1024 l 1,19,-1
 1408 864 l 1,20,-1
 1142 864 l 1,21,-1
 1046 480 l 1,22,-1
 1344 480 l 1,23,-1
 1344 320 l 1,24,-1
 1007 320 l 1,25,-1
 896 -128 l 1,26,-1
 736 -80 l 1,27,-1
 835 320 l 1,0,-1
565 480 m 1,28,-1
 874 480 l 1,29,-1
 970 864 l 1,30,-1
 661 864 l 1,31,-1
 565 480 l 1,28,-1
EndSplineSet
EndChar

StartChar: dollar
Encoding: 36 36 11
Width: 2018
GlyphClass: 2
Flags: W
HStem: -36 164<420.282 913 1105 1490.75> 704 160<444.285 913 1105 1543.98> 1152 21G<1664 1856> 1408 160<486.498 913 1105 1564.72>
VStem: 128 192<216.582 384 960.18 1287.28> 913 192<-128 -36 128 704 864 1408 1568 1664> 1664 192<257.456 606.082 1152 1320.37>
LayerCount: 2
Fore
SplineSet
913 -36 m 1,0,-1
 832 -36 l 2,1,2
 688 -36 688 -36 580 -25 c 128,-1,3
 472 -14 472 -14 394 8.5 c 128,-1,4
 316 31 316 31 265 65.5 c 128,-1,5
 214 100 214 100 183.5 146.5 c 128,-1,6
 153 193 153 193 141 252.5 c 128,-1,7
 129 312 129 312 129 384 c 1,8,-1
 321 384 l 1,9,10
 321 294 321 294 347 243 c 128,-1,11
 373 192 373 192 433 166.5 c 128,-1,12
 493 141 493 141 590.5 134.5 c 128,-1,13
 688 128 688 128 832 128 c 2,14,-1
 913 128 l 1,15,-1
 913 704 l 1,16,-1
 896 704 l 2,17,18
 720 704 720 704 594.5 717 c 128,-1,19
 469 730 469 730 384 754.5 c 128,-1,20
 299 779 299 779 248 815.5 c 128,-1,21
 197 852 197 852 170.5 899 c 128,-1,22
 144 946 144 946 136 1003.5 c 128,-1,23
 128 1061 128 1061 128 1128 c 0,24,25
 128 1198 128 1198 140.5 1258 c 128,-1,26
 153 1318 153 1318 187 1366.5 c 128,-1,27
 221 1415 221 1415 280 1453 c 128,-1,28
 339 1491 339 1491 431.5 1516.5 c 128,-1,29
 524 1542 524 1542 654 1555 c 0,30,31
 766 1566 766 1566 913 1568 c 1,32,-1
 913 1664 l 1,33,-1
 1105 1664 l 1,34,-1
 1105 1568 l 1,35,-1
 1152 1568 l 2,36,37
 1296 1568 1296 1568 1404 1557.5 c 128,-1,38
 1512 1547 1512 1547 1590 1524.5 c 128,-1,39
 1668 1502 1668 1502 1719.5 1468.5 c 128,-1,40
 1771 1435 1771 1435 1801.5 1388.5 c 128,-1,41
 1832 1342 1832 1342 1844 1283 c 128,-1,42
 1856 1224 1856 1224 1856 1152 c 1,43,-1
 1664 1152 l 1,44,45
 1664 1242 1664 1242 1638 1293 c 128,-1,46
 1612 1344 1612 1344 1552 1369.5 c 128,-1,47
 1492 1395 1492 1395 1394 1401.5 c 128,-1,48
 1296 1408 1296 1408 1152 1408 c 2,49,-1
 1105 1408 l 1,50,-1
 1105 864 l 1,51,-1
 1160 864 l 2,52,53
 1318 864 1318 864 1431 851 c 128,-1,54
 1544 838 1544 838 1621.5 812.5 c 128,-1,55
 1699 787 1699 787 1745 749 c 128,-1,56
 1791 711 1791 711 1816 662.5 c 128,-1,57
 1841 614 1841 614 1848.5 554 c 128,-1,58
 1856 494 1856 494 1856 424 c 256,59,60
 1856 354 1856 354 1843.5 292.5 c 128,-1,61
 1831 231 1831 231 1799 180 c 128,-1,62
 1767 129 1767 129 1712 89 c 128,-1,63
 1657 49 1657 49 1572 21 c 128,-1,64
 1487 -7 1487 -7 1367 -21 c 0,65,66
 1254 -35 1254 -35 1105 -36 c 1,67,-1
 1105 -128 l 1,68,-1
 913 -128 l 1,69,-1
 913 -36 l 1,0,-1
913 864 m 1,70,-1
 913 1408 l 1,71,72
 752 1406 752 1406 644 1394 c 0,73,74
 520 1381 520 1381 448 1349 c 128,-1,75
 376 1317 376 1317 348 1263 c 128,-1,76
 320 1209 320 1209 320 1128 c 0,77,78
 320 1078 320 1078 327 1039 c 128,-1,79
 334 1000 334 1000 355.5 970.5 c 128,-1,80
 377 941 377 941 416 921 c 128,-1,81
 455 901 455 901 519 888 c 128,-1,82
 583 875 583 875 675.5 869.5 c 128,-1,83
 768 864 768 864 896 864 c 2,84,-1
 913 864 l 1,70,-1
1105 704 m 1,85,-1
 1105 128 l 1,86,87
 1262 129 1262 129 1367 144 c 0,88,89
 1478 160 1478 160 1544 195 c 128,-1,90
 1610 230 1610 230 1637 286.5 c 128,-1,91
 1664 343 1664 343 1664 424 c 256,92,93
 1664 505 1664 505 1645.5 559 c 128,-1,94
 1627 613 1627 613 1572.5 645 c 128,-1,95
 1518 677 1518 677 1419 690.5 c 128,-1,96
 1320 704 1320 704 1160 704 c 2,97,-1
 1105 704 l 1,85,-1
EndSplineSet
EndChar

StartChar: ampersand
Encoding: 38 38 13
Width: 2432
GlyphClass: 2
Flags: W
HStem: 0 192<450.914 1628.34> 1408 160<576.606 1521.1>
VStem: 128 192<301.867 704.533> 320 192<1105.31 1325.77> 1600 192<1120 1334.89> 1760 192<448.592 768>
LayerCount: 2
Fore
SplineSet
1760 768 m 1,0,-1
 1952 768 l 1,1,-1
 1952 704 l 2,2,3
 1952 550 1952 550 1941.5 438 c 128,-1,4
 1931 326 1931 326 1899 248 c 128,-1,5
 1867 170 1867 170 1808 121.5 c 128,-1,6
 1749 73 1749 73 1653 46 c 128,-1,7
 1557 19 1557 19 1418.5 9.5 c 128,-1,8
 1280 0 1280 0 1088 0 c 0,9,10
 912 0 912 0 772.5 2.5 c 128,-1,11
 633 5 633 5 526.5 19 c 128,-1,12
 420 33 420 33 344 64 c 128,-1,13
 268 95 268 95 220 152 c 128,-1,14
 172 209 172 209 150 296.5 c 128,-1,15
 128 384 128 384 128 512 c 0,16,17
 128 608 128 608 149.5 678.5 c 128,-1,18
 171 749 171 749 205 799 c 128,-1,19
 239 849 239 849 280 880 c 128,-1,20
 321 911 321 911 360 929 c 128,-1,21
 399 947 399 947 431.5 953.5 c 128,-1,22
 464 960 464 960 480 960 c 1,23,24
 444 984 444 984 414.5 1009 c 128,-1,25
 385 1034 385 1034 364 1064 c 128,-1,26
 343 1094 343 1094 331.5 1131 c 128,-1,27
 320 1168 320 1168 320 1216 c 0,28,29
 320 1312 320 1312 351.5 1375.5 c 128,-1,30
 383 1439 383 1439 436.5 1478 c 128,-1,31
 490 1517 490 1517 560.5 1536 c 128,-1,32
 631 1555 631 1555 709 1562 c 128,-1,33
 787 1569 787 1569 868 1568.5 c 128,-1,34
 949 1568 949 1568 1024 1568 c 0,35,36
 1184 1568 1184 1568 1303.5 1563.5 c 128,-1,37
 1423 1559 1423 1559 1508 1544 c 128,-1,38
 1593 1529 1593 1529 1648 1500 c 128,-1,39
 1703 1471 1703 1471 1735 1421 c 128,-1,40
 1767 1371 1767 1371 1779.5 1297.5 c 128,-1,41
 1792 1224 1792 1224 1792 1120 c 1,42,-1
 1600 1120 l 1,43,44
 1600 1192 1600 1192 1593 1241.5 c 128,-1,45
 1586 1291 1586 1291 1564.5 1323 c 128,-1,46
 1543 1355 1543 1355 1504 1372 c 128,-1,47
 1465 1389 1465 1389 1401 1397 c 128,-1,48
 1337 1405 1337 1405 1244.5 1406.5 c 128,-1,49
 1152 1408 1152 1408 1024 1408 c 0,50,51
 880 1408 880 1408 782 1405 c 128,-1,52
 684 1402 684 1402 624 1384 c 128,-1,53
 564 1366 564 1366 538 1327 c 128,-1,54
 512 1288 512 1288 512 1216 c 0,55,56
 512 1190 512 1190 520 1165.5 c 128,-1,57
 528 1141 528 1141 546.5 1117 c 128,-1,58
 565 1093 565 1093 595.5 1070 c 128,-1,59
 626 1047 626 1047 672 1024 c 2,60,-1
 2304 192 l 1,61,-1
 2240 32 l 1,62,-1
 640 833 l 1,63,64
 568 833 568 833 509 815 c 128,-1,65
 450 797 450 797 408 758.5 c 128,-1,66
 366 720 366 720 343 659 c 128,-1,67
 320 598 320 598 320 512 c 0,68,69
 320 432 320 432 332.5 377 c 128,-1,70
 345 322 345 322 377 286.5 c 128,-1,71
 409 251 409 251 464 232 c 128,-1,72
 519 213 519 213 604.5 204 c 128,-1,73
 690 195 690 195 809 193.5 c 128,-1,74
 928 192 928 192 1088 192 c 0,75,76
 1216 192 1216 192 1315.5 193.5 c 128,-1,77
 1415 195 1415 195 1489.5 203.5 c 128,-1,78
 1564 212 1564 212 1615.5 231 c 128,-1,79
 1667 250 1667 250 1699 285.5 c 128,-1,80
 1731 321 1731 321 1745.5 376 c 128,-1,81
 1760 431 1760 431 1760 512 c 2,82,-1
 1760 768 l 1,0,-1
EndSplineSet
EndChar

StartChar: quotesingle
Encoding: 39 39 14
Width: 448
GlyphClass: 2
Flags: W
HStem: 1152 384<160 288>
VStem: 160 128<1152 1324.03>
LayerCount: 2
Fore
SplineSet
128 1536 m 1,0,-1
 320 1536 l 1,1,-1
 288 1152 l 1,2,-1
 160 1152 l 1,3,-1
 128 1536 l 1,0,-1
EndSplineSet
EndChar

StartChar: parenleft
Encoding: 40 40 15
Width: 768
GlyphClass: 2
Flags: W
HStem: -64 160<449.91 640> 1440 160<449.91 640>
VStem: 128 192<265.046 1270.95>
LayerCount: 2
Fore
SplineSet
640 -64 m 1,0,1
 512 -64 512 -64 424.5 -29 c 128,-1,2
 337 6 337 6 280 66.5 c 128,-1,3
 223 127 223 127 192 208 c 128,-1,4
 161 289 161 289 147 381.5 c 128,-1,5
 133 474 133 474 130.5 573 c 128,-1,6
 128 672 128 672 128 768 c 256,7,8
 128 864 128 864 130.5 963 c 128,-1,9
 133 1062 133 1062 147 1154.5 c 128,-1,10
 161 1247 161 1247 192 1328 c 128,-1,11
 223 1409 223 1409 280 1469.5 c 128,-1,12
 337 1530 337 1530 424.5 1565 c 128,-1,13
 512 1600 512 1600 640 1600 c 1,14,-1
 640 1440 l 1,15,16
 559 1440 559 1440 504 1421.5 c 128,-1,17
 449 1403 449 1403 413.5 1365.5 c 128,-1,18
 378 1328 378 1328 359 1272 c 128,-1,19
 340 1216 340 1216 331.5 1141.5 c 128,-1,20
 323 1067 323 1067 321.5 973.5 c 128,-1,21
 320 880 320 880 320 768 c 256,22,23
 320 656 320 656 321.5 562.5 c 128,-1,24
 323 469 323 469 331.5 394.5 c 128,-1,25
 340 320 340 320 359 264 c 128,-1,26
 378 208 378 208 413.5 170.5 c 128,-1,27
 449 133 449 133 504 114.5 c 128,-1,28
 559 96 559 96 640 96 c 1,29,-1
 640 -64 l 1,0,1
EndSplineSet
EndChar

StartChar: parenright
Encoding: 41 41 16
Width: 768
GlyphClass: 2
Flags: W
HStem: -64 160<128 318.09> 1440 160<128 318.09>
VStem: 448 192<265.046 1270.95>
LayerCount: 2
Fore
SplineSet
128 96 m 1,0,1
 208 96 208 96 263.5 114.5 c 128,-1,2
 319 133 319 133 354.5 170.5 c 128,-1,3
 390 208 390 208 409 264 c 128,-1,4
 428 320 428 320 436.5 394.5 c 128,-1,5
 445 469 445 469 446.5 562.5 c 128,-1,6
 448 656 448 656 448 768 c 256,7,8
 448 880 448 880 446.5 973.5 c 128,-1,9
 445 1067 445 1067 436.5 1141.5 c 128,-1,10
 428 1216 428 1216 409 1272 c 128,-1,11
 390 1328 390 1328 354.5 1365.5 c 128,-1,12
 319 1403 319 1403 263.5 1421.5 c 128,-1,13
 208 1440 208 1440 128 1440 c 1,14,-1
 128 1600 l 1,15,16
 256 1600 256 1600 343.5 1565 c 128,-1,17
 431 1530 431 1530 488 1469.5 c 128,-1,18
 545 1409 545 1409 576 1328 c 128,-1,19
 607 1247 607 1247 621 1154.5 c 128,-1,20
 635 1062 635 1062 637.5 963 c 128,-1,21
 640 864 640 864 640 768 c 256,22,23
 640 672 640 672 637.5 573 c 128,-1,24
 635 474 635 474 621 381.5 c 128,-1,25
 607 289 607 289 576 208 c 128,-1,26
 545 127 545 127 488 66.5 c 128,-1,27
 431 6 431 6 343.5 -29 c 128,-1,28
 256 -64 256 -64 128 -64 c 1,29,-1
 128 96 l 1,0,1
EndSplineSet
EndChar

StartChar: asterisk
Encoding: 42 42 17
Width: 1415
GlyphClass: 2
Flags: W
HStem: 1516 20G<612 804>
LayerCount: 2
Fore
SplineSet
420 384 m 1,0,-1
 264 495 l 1,1,-1
 628 896 l 1,2,-1
 128 1072 l 1,3,-1
 228 1250 l 1,4,-1
 660 992 l 1,5,-1
 612 1536 l 1,6,-1
 804 1536 l 1,7,-1
 756 992 l 1,8,-1
 1187 1250 l 1,9,-1
 1287 1072 l 1,10,-1
 788 896 l 1,11,-1
 1152 495 l 1,12,-1
 996 384 l 1,13,-1
 708 834 l 1,14,-1
 420 384 l 1,0,-1
EndSplineSet
EndChar

StartChar: plus
Encoding: 43 43 18
Width: 1344
GlyphClass: 2
Flags: W
HStem: 800 160<128 576 768 1216>
VStem: 576 192<320 800 960 1408>
LayerCount: 2
Fore
SplineSet
128 960 m 1,0,-1
 576 960 l 1,1,-1
 576 1408 l 1,2,-1
 768 1408 l 1,3,-1
 768 960 l 1,4,-1
 1216 960 l 1,5,-1
 1216 800 l 1,6,-1
 768 800 l 1,7,-1
 768 320 l 1,8,-1
 576 320 l 1,9,-1
 576 800 l 1,10,-1
 128 800 l 1,11,-1
 128 960 l 1,0,-1
EndSplineSet
EndChar

StartChar: comma
Encoding: 44 44 19
Width: 448
GlyphClass: 2
Flags: W
HStem: -256 384<128 192>
VStem: 64 256
LayerCount: 2
Fore
SplineSet
128 128 m 1,0,-1
 320 128 l 1,1,-1
 192 -256 l 1,2,-1
 64 -256 l 1,3,-1
 128 128 l 1,0,-1
EndSplineSet
EndChar

StartChar: hyphen
Encoding: 45 45 20
Width: 1024
GlyphClass: 2
Flags: W
HStem: 512 160<128 896>
LayerCount: 2
Fore
SplineSet
128 672 m 1,0,-1
 896 672 l 1,1,-1
 896 512 l 1,2,-1
 128 512 l 1,3,-1
 128 672 l 1,0,-1
EndSplineSet
EndChar

StartChar: period
Encoding: 46 46 21
Width: 448
GlyphClass: 2
Flags: W
HStem: 0 192<128 320>
VStem: 128 192<0 192>
LayerCount: 2
Fore
SplineSet
320 0 m 1,0,-1
 128 0 l 1,1,-1
 128 192 l 1,2,-1
 320 192 l 1,3,-1
 320 0 l 1,0,-1
EndSplineSet
EndChar

StartChar: slash
Encoding: 47 47 22
Width: 1023
GlyphClass: 2
Flags: W
HStem: 0 21G<64 265.167> 1516 20G<758.833 960>
DStem2: 64 0 256 0 0.416655 0.909065<79.9977 1689.65>
LayerCount: 2
Fore
SplineSet
768 1536 m 1,0,-1
 960 1536 l 1,1,-1
 256 0 l 1,2,-1
 64 0 l 1,3,-1
 768 1536 l 1,0,-1
EndSplineSet
EndChar

StartChar: zero
Encoding: 48 48 23
Width: 2048
GlyphClass: 2
Flags: W
HStem: -32 160<457.678 1591.32> 1408 160<457.678 1591.32>
VStem: 129 192<265.621 1272.77> 1728 192<265.621 1270.38>
LayerCount: 2
Fore
SplineSet
1217 1568 m 2,0,1
 1393 1568 1393 1568 1513.5 1546.5 c 128,-1,2
 1634 1525 1634 1525 1712 1481.5 c 128,-1,3
 1790 1438 1790 1438 1832 1372 c 128,-1,4
 1874 1306 1874 1306 1893.5 1217 c 128,-1,5
 1913 1128 1913 1128 1916.5 1016 c 128,-1,6
 1920 904 1920 904 1920 768 c 256,7,8
 1920 632 1920 632 1916.5 520 c 128,-1,9
 1913 408 1913 408 1893.5 319 c 128,-1,10
 1874 230 1874 230 1832 164 c 128,-1,11
 1790 98 1790 98 1712 54.5 c 128,-1,12
 1634 11 1634 11 1513.5 -10.5 c 128,-1,13
 1393 -32 1393 -32 1217 -32 c 2,14,-1
 832 -32 l 2,15,16
 656 -32 656 -32 535.5 -10.5 c 128,-1,17
 415 11 415 11 337 54.5 c 128,-1,18
 259 98 259 98 216.5 164 c 128,-1,19
 174 230 174 230 154.5 319 c 128,-1,20
 135 408 135 408 132 520 c 128,-1,21
 129 632 129 632 129 768 c 256,22,23
 129 904 129 904 132 1016 c 128,-1,24
 135 1128 135 1128 154.5 1217 c 128,-1,25
 174 1306 174 1306 216.5 1372 c 128,-1,26
 259 1438 259 1438 337 1481.5 c 128,-1,27
 415 1525 415 1525 535.5 1546.5 c 128,-1,28
 656 1568 656 1568 832 1568 c 2,29,-1
 1217 1568 l 2,0,1
1217 128 m 2,30,31
 1345 128 1345 128 1432 135.5 c 128,-1,32
 1519 143 1519 143 1576 166 c 128,-1,33
 1633 189 1633 189 1664 232 c 128,-1,34
 1695 275 1695 275 1709 346 c 128,-1,35
 1723 417 1723 417 1725.5 520.5 c 128,-1,36
 1728 624 1728 624 1728 768 c 256,37,38
 1728 912 1728 912 1725.5 1015.5 c 128,-1,39
 1723 1119 1723 1119 1709 1190 c 128,-1,40
 1695 1261 1695 1261 1664 1304 c 128,-1,41
 1633 1347 1633 1347 1576.5 1370 c 128,-1,42
 1520 1393 1520 1393 1432.5 1400.5 c 128,-1,43
 1345 1408 1345 1408 1217 1408 c 2,44,-1
 832 1408 l 2,45,46
 704 1408 704 1408 616.5 1400.5 c 128,-1,47
 529 1393 529 1393 472 1370 c 128,-1,48
 415 1347 415 1347 384 1304 c 128,-1,49
 353 1261 353 1261 339 1190 c 128,-1,50
 325 1119 325 1119 323 1015.5 c 128,-1,51
 321 912 321 912 321 768 c 256,52,53
 321 624 321 624 323.5 520.5 c 128,-1,54
 326 417 326 417 340 346 c 128,-1,55
 354 275 354 275 384.5 232 c 128,-1,56
 415 189 415 189 472 166 c 128,-1,57
 529 143 529 143 616.5 135.5 c 128,-1,58
 704 128 704 128 832 128 c 2,59,-1
 1217 128 l 2,30,31
EndSplineSet
EndChar

StartChar: one
Encoding: 49 49 24
Width: 992
GlyphClass: 2
Flags: W
HStem: 0 21G<672 864> 1516 20G<584.923 864>
VStem: 672 192<0 1376>
DStem2: 128 1120 224 992 0.755689 0.654931<0 578.757>
LayerCount: 2
Fore
SplineSet
608 1536 m 1,0,-1
 864 1536 l 1,1,-1
 864 0 l 1,2,-1
 672 0 l 1,3,-1
 672 1376 l 1,4,-1
 224 992 l 1,5,-1
 128 1120 l 1,6,-1
 608 1536 l 1,0,-1
EndSplineSet
EndChar

StartChar: two
Encoding: 50 50 25
Width: 1984
GlyphClass: 2
Flags: W
HStem: 0 160<320 1824> 1408 160<475.607 1545.59>
VStem: 128 192<160 489.118 992 1288.91> 1663 193<857.508 1302.5>
DStem2: 448 704 512 544 0.995634 0.0933407<-106.975 1180.7>
LayerCount: 2
Fore
SplineSet
128 192 m 2,0,1
 128 252 128 252 131 311.5 c 128,-1,2
 134 371 134 371 144.5 425.5 c 128,-1,3
 155 480 155 480 175.5 528 c 128,-1,4
 196 576 196 576 231.5 612.5 c 128,-1,5
 267 649 267 649 320 673 c 128,-1,6
 373 697 373 697 448 704 c 2,7,-1
 1472 800 l 2,8,9
 1520 804 1520 804 1556 814 c 128,-1,10
 1592 824 1592 824 1615.5 852.5 c 128,-1,11
 1639 881 1639 881 1651 936 c 128,-1,12
 1663 991 1663 991 1663 1087 c 0,13,14
 1663 1167 1663 1167 1651 1222 c 128,-1,15
 1639 1277 1639 1277 1611 1313 c 128,-1,16
 1583 1349 1583 1349 1535.5 1368 c 128,-1,17
 1488 1387 1488 1387 1417 1396 c 128,-1,18
 1346 1405 1346 1405 1249 1406.5 c 128,-1,19
 1152 1408 1152 1408 1024 1408 c 0,20,21
 848 1408 848 1408 727.5 1401.5 c 128,-1,22
 607 1395 607 1395 528.5 1378 c 128,-1,23
 450 1361 450 1361 408 1332 c 128,-1,24
 366 1303 366 1303 346.5 1256.5 c 128,-1,25
 327 1210 327 1210 323.5 1145 c 128,-1,26
 320 1080 320 1080 320 992 c 1,27,-1
 128 992 l 1,28,29
 128 1136 128 1136 154.5 1234.5 c 128,-1,30
 181 1333 181 1333 232.5 1397 c 128,-1,31
 284 1461 284 1461 360 1496 c 128,-1,32
 436 1531 436 1531 535.5 1547 c 128,-1,33
 635 1563 635 1563 757.5 1565.5 c 128,-1,34
 880 1568 880 1568 1024 1568 c 256,35,36
 1168 1568 1168 1568 1285.5 1563.5 c 128,-1,37
 1403 1559 1403 1559 1495.5 1543 c 128,-1,38
 1588 1527 1588 1527 1656 1496 c 128,-1,39
 1724 1465 1724 1465 1768.5 1411.5 c 128,-1,40
 1813 1358 1813 1358 1834.5 1279 c 128,-1,41
 1856 1200 1856 1200 1856 1088 c 0,42,43
 1856 992 1856 992 1842 913.5 c 128,-1,44
 1828 835 1828 835 1792 777 c 128,-1,45
 1756 719 1756 719 1694 684 c 128,-1,46
 1632 649 1632 649 1536 640 c 2,47,-1
 512 544 l 2,48,49
 439 537 439 537 400 517 c 128,-1,50
 361 497 361 497 343 453.5 c 128,-1,51
 325 410 325 410 322.5 339 c 128,-1,52
 320 268 320 268 320 160 c 1,53,-1
 1824 160 l 1,54,-1
 1824 0 l 1,55,-1
 128 0 l 1,56,-1
 128 192 l 2,0,1
EndSplineSet
EndChar

StartChar: three
Encoding: 51 51 26
Width: 1984
GlyphClass: 2
Flags: W
HStem: -32 160<447.382 1545.59> 704 160<768 1616.96> 1408 160<433.7 1545.59>
VStem: 128 195.5<223.453 480 1088 1322.09> 1663 193<233.501 657.533 907.05 1302.5>
LayerCount: 2
Fore
SplineSet
1472 864 m 2,0,1
 1520 864 1520 864 1556 872 c 128,-1,2
 1592 880 1592 880 1615.5 903.5 c 128,-1,3
 1639 927 1639 927 1651 971 c 128,-1,4
 1663 1015 1663 1015 1663 1087 c 0,5,6
 1663 1167 1663 1167 1651 1222 c 128,-1,7
 1639 1277 1639 1277 1611 1313 c 128,-1,8
 1583 1349 1583 1349 1535.5 1368 c 128,-1,9
 1488 1387 1488 1387 1417 1396 c 128,-1,10
 1346 1405 1346 1405 1249 1406.5 c 128,-1,11
 1152 1408 1152 1408 1024 1408 c 0,12,13
 848 1408 848 1408 727.5 1403.5 c 128,-1,14
 607 1399 607 1399 528.5 1386.5 c 128,-1,15
 450 1374 450 1374 408 1352 c 128,-1,16
 366 1330 366 1330 346.5 1294.5 c 128,-1,17
 327 1259 327 1259 323.5 1208 c 128,-1,18
 320 1157 320 1157 320 1088 c 1,19,-1
 128 1088 l 1,20,21
 128 1209 128 1209 154.5 1292 c 128,-1,22
 181 1375 181 1375 232.5 1428.5 c 128,-1,23
 284 1482 284 1482 360 1510.5 c 128,-1,24
 436 1539 436 1539 535.5 1551.5 c 128,-1,25
 635 1564 635 1564 757.5 1566 c 128,-1,26
 880 1568 880 1568 1024 1568 c 256,27,28
 1168 1568 1168 1568 1285.5 1563.5 c 128,-1,29
 1403 1559 1403 1559 1495.5 1543 c 128,-1,30
 1588 1527 1588 1527 1656 1496 c 128,-1,31
 1724 1465 1724 1465 1768.5 1411.5 c 128,-1,32
 1813 1358 1813 1358 1834.5 1279 c 128,-1,33
 1856 1200 1856 1200 1856 1088 c 0,34,35
 1856 1016 1856 1016 1846.5 966 c 128,-1,36
 1837 916 1837 916 1817.5 881.5 c 128,-1,37
 1798 847 1798 847 1768 824.5 c 128,-1,38
 1738 802 1738 802 1696 784 c 1,39,40
 1738 766 1738 766 1768 738 c 128,-1,41
 1798 710 1798 710 1817.5 669.5 c 128,-1,42
 1837 629 1837 629 1846.5 574.5 c 128,-1,43
 1856 520 1856 520 1856 448 c 0,44,45
 1856 336 1856 336 1834.5 257 c 128,-1,46
 1813 178 1813 178 1768.5 124.5 c 128,-1,47
 1724 71 1724 71 1656 40 c 128,-1,48
 1588 9 1588 9 1495.5 -7 c 128,-1,49
 1403 -23 1403 -23 1285.5 -27.5 c 128,-1,50
 1168 -32 1168 -32 1024 -32 c 256,51,52
 880 -32 880 -32 757.5 -30 c 128,-1,53
 635 -28 635 -28 535.5 -14 c 128,-1,54
 436 0 436 0 360 30.5 c 128,-1,55
 284 61 284 61 232.5 118 c 128,-1,56
 181 175 181 175 154.5 263 c 128,-1,57
 128 351 128 351 128 480 c 1,58,-1
 320 480 l 1,59,60
 320 404 320 404 323.5 348.5 c 128,-1,61
 327 293 327 293 346.5 254 c 128,-1,62
 366 215 366 215 408 190.5 c 128,-1,63
 450 166 450 166 528.5 152 c 128,-1,64
 607 138 607 138 727.5 133 c 128,-1,65
 848 128 848 128 1024 128 c 0,66,67
 1152 128 1152 128 1249 129.5 c 128,-1,68
 1346 131 1346 131 1417 140 c 128,-1,69
 1488 149 1488 149 1535.5 168 c 128,-1,70
 1583 187 1583 187 1611 223 c 128,-1,71
 1639 259 1639 259 1651 314 c 128,-1,72
 1663 369 1663 369 1663 449 c 0,73,74
 1663 533 1663 533 1651 583.5 c 128,-1,75
 1639 634 1639 634 1615.5 661 c 128,-1,76
 1592 688 1592 688 1556 696 c 128,-1,77
 1520 704 1520 704 1472 704 c 2,78,-1
 768 704 l 1,79,-1
 768 864 l 1,80,-1
 1472 864 l 2,0,1
EndSplineSet
EndChar

StartChar: four
Encoding: 52 52 27
Width: 2048
GlyphClass: 2
Flags: W
HStem: 0 21G<1472 1664> 320 160<320 1472 1664 1920> 1516 20G<1383 1664>
VStem: 1472 192<0 320 480 1408>
DStem2: 128 512 320 480 0.780869 0.624695<129.937 1609.21>
LayerCount: 2
Fore
SplineSet
1664 320 m 1,0,-1
 1664 0 l 1,1,-1
 1472 0 l 1,2,-1
 1472 320 l 1,3,-1
 128 320 l 1,4,-1
 128 512 l 1,5,-1
 1408 1536 l 1,6,-1
 1664 1536 l 1,7,-1
 1664 480 l 1,8,-1
 1920 480 l 1,9,-1
 1920 320 l 1,10,-1
 1664 320 l 1,0,-1
1472 480 m 1,11,-1
 1472 1408 l 1,12,-1
 320 480 l 1,13,-1
 1472 480 l 1,11,-1
EndSplineSet
EndChar

StartChar: five
Encoding: 53 53 28
Width: 1984
GlyphClass: 2
Flags: W
HStem: -32 160<447.382 1525.43> 896 160<472.508 1565.87> 1376 160<320 1792>
VStem: 128 192<226.789 480 736 814 896 1376> 1664 192<256.839 797.981>
LayerCount: 2
Fore
SplineSet
1280 1056 m 2,0,1
 1408 1056 1408 1056 1500.5 1042.5 c 128,-1,2
 1593 1029 1593 1029 1657 1000.5 c 128,-1,3
 1721 972 1721 972 1760 928 c 128,-1,4
 1799 884 1799 884 1820.5 823.5 c 128,-1,5
 1842 763 1842 763 1849 685.5 c 128,-1,6
 1856 608 1856 608 1856 512 c 0,7,8
 1856 387 1856 387 1834.5 297.5 c 128,-1,9
 1813 208 1813 208 1768.5 147.5 c 128,-1,10
 1724 87 1724 87 1656 51.5 c 128,-1,11
 1588 16 1588 16 1495.5 -2.5 c 128,-1,12
 1403 -21 1403 -21 1285.5 -26.5 c 128,-1,13
 1168 -32 1168 -32 1024 -32 c 256,14,15
 880 -32 880 -32 757.5 -30 c 128,-1,16
 635 -28 635 -28 535.5 -14 c 128,-1,17
 436 0 436 0 360 30.5 c 128,-1,18
 284 61 284 61 232.5 118 c 128,-1,19
 181 175 181 175 154.5 263 c 128,-1,20
 128 351 128 351 128 480 c 1,21,-1
 320 480 l 1,22,23
 320 404 320 404 323.5 348.5 c 128,-1,24
 327 293 327 293 346.5 254 c 128,-1,25
 366 215 366 215 408 190.5 c 128,-1,26
 450 166 450 166 528.5 152 c 128,-1,27
 607 138 607 138 727.5 133 c 128,-1,28
 848 128 848 128 1024 128 c 0,29,30
 1152 128 1152 128 1249 130 c 128,-1,31
 1346 132 1346 132 1417.5 143 c 128,-1,32
 1489 154 1489 154 1536 177.5 c 128,-1,33
 1583 201 1583 201 1611.5 244 c 128,-1,34
 1640 287 1640 287 1652 352.5 c 128,-1,35
 1664 418 1664 418 1664 513 c 0,36,37
 1664 641 1664 641 1649 717 c 128,-1,38
 1634 793 1634 793 1592 832.5 c 128,-1,39
 1550 872 1550 872 1475 884 c 128,-1,40
 1400 896 1400 896 1280 896 c 2,41,-1
 768 896 l 2,42,43
 636 896 636 896 554 884.5 c 128,-1,44
 472 873 472 873 424 852 c 128,-1,45
 376 831 376 831 354 801.5 c 128,-1,46
 332 772 332 772 320 736 c 1,47,-1
 128 736 l 1,48,-1
 128 1536 l 1,49,-1
 1792 1536 l 1,50,-1
 1792 1376 l 1,51,-1
 320 1376 l 1,52,-1
 320 896 l 1,53,54
 321 898 321 898 328.5 910.5 c 128,-1,55
 336 923 336 923 354.5 941 c 128,-1,56
 373 959 373 959 404.5 979 c 128,-1,57
 436 999 436 999 485.5 1016 c 128,-1,58
 535 1033 535 1033 604.5 1044.5 c 128,-1,59
 674 1056 674 1056 768 1056 c 2,60,-1
 1280 1056 l 2,0,1
EndSplineSet
EndChar

StartChar: six
Encoding: 54 54 29
Width: 1984
GlyphClass: 2
Flags: W
HStem: -32 160<467.655 1539.32> 768 160<439.762 1539.32> 1408 160<479.5 1438.83>
VStem: 131.5 188.5<261.377 688.597 832 1263.81> 1632 159<1120 1282.58> 1664 192<232.423 661.677>
LayerCount: 2
Fore
SplineSet
960 1408 m 0,0,1
 805 1408 805 1408 697.5 1403 c 128,-1,2
 590 1398 590 1398 519 1379.5 c 128,-1,3
 448 1361 448 1361 408 1324 c 128,-1,4
 368 1287 368 1287 348.5 1223 c 128,-1,5
 329 1159 329 1159 324.5 1063.5 c 128,-1,6
 320 968 320 968 320 832 c 1,7,8
 398 879 398 879 522 903.5 c 128,-1,9
 646 928 646 928 832 928 c 2,10,-1
 1153 928 l 2,11,12
 1369 928 1369 928 1506 898 c 128,-1,13
 1643 868 1643 868 1720.5 808 c 128,-1,14
 1798 748 1798 748 1827 658 c 128,-1,15
 1856 568 1856 568 1856 448 c 256,16,17
 1856 328 1856 328 1827 238 c 128,-1,18
 1798 148 1798 148 1720.5 88 c 128,-1,19
 1643 28 1643 28 1506 -2 c 128,-1,20
 1369 -32 1369 -32 1153 -32 c 2,21,-1
 832 -32 l 2,22,23
 656 -32 656 -32 535.5 -10.5 c 128,-1,24
 415 11 415 11 336.5 54.5 c 128,-1,25
 258 98 258 98 216 164 c 128,-1,26
 174 230 174 230 154.5 319 c 128,-1,27
 135 408 135 408 131.5 520 c 128,-1,28
 128 632 128 632 128 768 c 0,29,30
 128 912 128 912 132 1027.5 c 128,-1,31
 136 1143 136 1143 159 1231.5 c 128,-1,32
 182 1320 182 1320 232 1384 c 128,-1,33
 282 1448 282 1448 374.5 1488.5 c 128,-1,34
 467 1529 467 1529 609.5 1548.5 c 128,-1,35
 752 1568 752 1568 960 1568 c 0,36,37
 1136 1568 1136 1568 1266 1555 c 128,-1,38
 1396 1542 1396 1542 1488.5 1516 c 128,-1,39
 1581 1490 1581 1490 1640 1452 c 128,-1,40
 1699 1414 1699 1414 1732.5 1364 c 128,-1,41
 1766 1314 1766 1314 1778.5 1253 c 128,-1,42
 1791 1192 1791 1192 1791 1120 c 1,43,-1
 1632 1120 l 1,44,45
 1632 1160 1632 1160 1626.5 1197 c 128,-1,46
 1621 1234 1621 1234 1600 1266 c 128,-1,47
 1579 1298 1579 1298 1536 1324 c 128,-1,48
 1493 1350 1493 1350 1418.5 1369 c 128,-1,49
 1344 1388 1344 1388 1232 1398 c 128,-1,50
 1120 1408 1120 1408 960 1408 c 0,0,1
832 768 m 2,51,52
 727 768 727 768 648 765.5 c 128,-1,53
 569 763 569 763 512.5 754 c 128,-1,54
 456 745 456 745 418.5 728 c 128,-1,55
 381 711 381 711 359.5 682.5 c 128,-1,56
 338 654 338 654 329 612 c 128,-1,57
 320 570 320 570 320 512 c 0,58,59
 320 432 320 432 329 372.5 c 128,-1,60
 338 313 338 313 359.5 270.5 c 128,-1,61
 381 228 381 228 418.5 200 c 128,-1,62
 456 172 456 172 512.5 156 c 128,-1,63
 569 140 569 140 648 134 c 128,-1,64
 727 128 727 128 832 128 c 2,65,-1
 1153 128 l 2,66,67
 1265 128 1265 128 1346.5 134 c 128,-1,68
 1428 140 1428 140 1484.5 154 c 128,-1,69
 1541 168 1541 168 1576.5 192 c 128,-1,70
 1612 216 1612 216 1631.5 251.5 c 128,-1,71
 1651 287 1651 287 1657.5 335.5 c 128,-1,72
 1664 384 1664 384 1664 448 c 256,73,74
 1664 512 1664 512 1657 560.5 c 128,-1,75
 1650 609 1650 609 1630.5 644.5 c 128,-1,76
 1611 680 1611 680 1576 704 c 128,-1,77
 1541 728 1541 728 1484 742 c 128,-1,78
 1427 756 1427 756 1346 762 c 128,-1,79
 1265 768 1265 768 1153 768 c 2,80,-1
 832 768 l 2,51,52
EndSplineSet
EndChar

StartChar: seven
Encoding: 55 55 30
Width: 1984
GlyphClass: 2
Flags: W
HStem: 0 21G<448 721.143> 1376 160<128 1632>
VStem: 448 256<0 256>
DStem2: 448 0 704 0 0.652242 0.758011<166.974 1815.28>
LayerCount: 2
Fore
SplineSet
704 0 m 1,0,-1
 448 0 l 1,1,-1
 1632 1376 l 1,2,-1
 128 1376 l 1,3,-1
 128 1536 l 1,4,-1
 1856 1536 l 1,5,-1
 1856 1344 l 1,6,-1
 704 0 l 1,0,-1
EndSplineSet
EndChar

StartChar: eight
Encoding: 56 56 31
Width: 1984
GlyphClass: 2
Flags: W
HStem: -32 160<448.743 1536.18> 736 160<451.475 1531.64> 1408 160<456.799 1527.2>
VStem: 128 192<233.517 627.929> 160 192<979.08 1321.72> 1632 192<978.785 1322.25> 1664 192<233 627.929>
LayerCount: 2
Fore
SplineSet
1121 1568 m 2,0,1
 1337 1568 1337 1568 1474 1541 c 128,-1,2
 1611 1514 1611 1514 1688.5 1461.5 c 128,-1,3
 1766 1409 1766 1409 1795 1331.5 c 128,-1,4
 1824 1254 1824 1254 1824 1152 c 0,5,6
 1824 1095 1824 1095 1814 1044.5 c 128,-1,7
 1804 994 1804 994 1778.5 952 c 128,-1,8
 1753 910 1753 910 1710 875.5 c 128,-1,9
 1667 841 1667 841 1600 816 c 1,10,11
 1676 788 1676 788 1726 749 c 128,-1,12
 1776 710 1776 710 1804.5 661 c 128,-1,13
 1833 612 1833 612 1844.5 554.5 c 128,-1,14
 1856 497 1856 497 1856 432 c 0,15,16
 1856 357 1856 357 1844 293.5 c 128,-1,17
 1832 230 1832 230 1802 178.5 c 128,-1,18
 1772 127 1772 127 1720.5 87.5 c 128,-1,19
 1669 48 1669 48 1591 21.5 c 128,-1,20
 1513 -5 1513 -5 1404.5 -18.5 c 128,-1,21
 1296 -32 1296 -32 1152 -32 c 2,22,-1
 831 -32 l 2,23,24
 615 -32 615 -32 478 -1.5 c 128,-1,25
 341 29 341 29 263.5 88 c 128,-1,26
 186 147 186 147 157 233.5 c 128,-1,27
 128 320 128 320 128 432 c 0,28,29
 128 497 128 497 139 554.5 c 128,-1,30
 150 612 150 612 179 661 c 128,-1,31
 208 710 208 710 257.5 749 c 128,-1,32
 307 788 307 788 384 816 c 1,33,34
 317 841 317 841 273.5 875.5 c 128,-1,35
 230 910 230 910 205 952 c 128,-1,36
 180 994 180 994 170 1044.5 c 128,-1,37
 160 1095 160 1095 160 1152 c 0,38,39
 160 1254 160 1254 189 1331.5 c 128,-1,40
 218 1409 218 1409 295.5 1461.5 c 128,-1,41
 373 1514 373 1514 510 1541 c 128,-1,42
 647 1568 647 1568 863 1568 c 2,43,-1
 1121 1568 l 2,0,1
1152 128 m 2,44,45
 1264 128 1264 128 1345.5 134.5 c 128,-1,46
 1427 141 1427 141 1483.5 155.5 c 128,-1,47
 1540 170 1540 170 1575.5 193 c 128,-1,48
 1611 216 1611 216 1630.5 250 c 128,-1,49
 1650 284 1650 284 1657 329 c 128,-1,50
 1664 374 1664 374 1664 432 c 0,51,52
 1664 488 1664 488 1657.5 532.5 c 128,-1,53
 1651 577 1651 577 1631.5 610.5 c 128,-1,54
 1612 644 1612 644 1576.5 668 c 128,-1,55
 1541 692 1541 692 1484 707 c 128,-1,56
 1427 722 1427 722 1345.5 729 c 128,-1,57
 1264 736 1264 736 1152 736 c 2,58,-1
 831 736 l 2,59,60
 719 736 719 736 637.5 729 c 128,-1,61
 556 722 556 722 499.5 707 c 128,-1,62
 443 692 443 692 407.5 668 c 128,-1,63
 372 644 372 644 352.5 610.5 c 128,-1,64
 333 577 333 577 326.5 532.5 c 128,-1,65
 320 488 320 488 320 432 c 0,66,67
 320 374 320 374 327 329 c 128,-1,68
 334 284 334 284 353.5 250 c 128,-1,69
 373 216 373 216 408 193 c 128,-1,70
 443 170 443 170 500 155.5 c 128,-1,71
 557 141 557 141 638 134.5 c 128,-1,72
 719 128 719 128 831 128 c 2,73,-1
 1152 128 l 2,44,45
1152 896 m 2,74,75
 1309 896 1309 896 1403.5 907.5 c 128,-1,76
 1498 919 1498 919 1548.5 948 c 128,-1,77
 1599 977 1599 977 1615.5 1026.5 c 128,-1,78
 1632 1076 1632 1076 1632 1152 c 0,79,80
 1632 1202 1632 1202 1625.5 1240.5 c 128,-1,81
 1619 1279 1619 1279 1599.5 1307.5 c 128,-1,82
 1580 1336 1580 1336 1544.5 1355 c 128,-1,83
 1509 1374 1509 1374 1452 1386 c 128,-1,84
 1395 1398 1395 1398 1313.5 1403 c 128,-1,85
 1232 1408 1232 1408 1120 1408 c 2,86,-1
 863 1408 l 2,87,88
 751 1408 751 1408 669.5 1403 c 128,-1,89
 588 1398 588 1398 531.5 1386 c 128,-1,90
 475 1374 475 1374 439.5 1355 c 128,-1,91
 404 1336 404 1336 384.5 1307.5 c 128,-1,92
 365 1279 365 1279 358.5 1240.5 c 128,-1,93
 352 1202 352 1202 352 1152 c 0,94,95
 352 1100 352 1100 359 1061 c 128,-1,96
 366 1022 366 1022 385.5 993.5 c 128,-1,97
 405 965 405 965 440 946 c 128,-1,98
 475 927 475 927 532 916 c 128,-1,99
 589 905 589 905 670 900.5 c 128,-1,100
 751 896 751 896 863 896 c 2,101,-1
 1152 896 l 2,74,75
EndSplineSet
EndChar

StartChar: nine
Encoding: 57 57 32
Width: 1984
GlyphClass: 2
Flags: W
HStem: -32 160<545.17 1504.5> 608 160<444.68 1544.79> 1408 160<444.68 1516.35>
VStem: 128 192<874.323 1303.58> 205.5 152<247.775 416> 1664 188.5<272.19 704 846.418 1275.47>
LayerCount: 2
Fore
SplineSet
1024 128 m 0,0,1
 1179 128 1179 128 1286.5 133 c 128,-1,2
 1394 138 1394 138 1465 156.5 c 128,-1,3
 1536 175 1536 175 1576 212 c 128,-1,4
 1616 249 1616 249 1635.5 313 c 128,-1,5
 1655 377 1655 377 1659.5 472.5 c 128,-1,6
 1664 568 1664 568 1664 704 c 1,7,8
 1586 657 1586 657 1462 632.5 c 128,-1,9
 1338 608 1338 608 1152 608 c 2,10,-1
 831 608 l 2,11,12
 615 608 615 608 478 638 c 128,-1,13
 341 668 341 668 263.5 728 c 128,-1,14
 186 788 186 788 157 878 c 128,-1,15
 128 968 128 968 128 1088 c 256,16,17
 128 1208 128 1208 157 1298 c 128,-1,18
 186 1388 186 1388 263.5 1448 c 128,-1,19
 341 1508 341 1508 478 1538 c 128,-1,20
 615 1568 615 1568 831 1568 c 2,21,-1
 1152 1568 l 2,22,23
 1328 1568 1328 1568 1448.5 1546.5 c 128,-1,24
 1569 1525 1569 1525 1647.5 1481.5 c 128,-1,25
 1726 1438 1726 1438 1768 1372 c 128,-1,26
 1810 1306 1810 1306 1829.5 1217 c 128,-1,27
 1849 1128 1849 1128 1852.5 1016 c 128,-1,28
 1856 904 1856 904 1856 768 c 0,29,30
 1856 624 1856 624 1852 508.5 c 128,-1,31
 1848 393 1848 393 1825 304.5 c 128,-1,32
 1802 216 1802 216 1752 152 c 128,-1,33
 1702 88 1702 88 1609.5 47.5 c 128,-1,34
 1517 7 1517 7 1374.5 -12.5 c 128,-1,35
 1232 -32 1232 -32 1024 -32 c 0,36,37
 848 -32 848 -32 718 -19 c 128,-1,38
 588 -6 588 -6 495.5 20 c 128,-1,39
 403 46 403 46 344 84 c 128,-1,40
 285 122 285 122 251.5 172 c 128,-1,41
 218 222 218 222 205.5 283 c 128,-1,42
 193 344 193 344 193 416 c 1,43,-1
 352 416 l 1,44,45
 352 376 352 376 357.5 339 c 128,-1,46
 363 302 363 302 384 270 c 128,-1,47
 405 238 405 238 448 212 c 128,-1,48
 491 186 491 186 565.5 167 c 128,-1,49
 640 148 640 148 752 138 c 128,-1,50
 864 128 864 128 1024 128 c 0,0,1
1152 768 m 2,51,52
 1309 768 1309 768 1409 775 c 128,-1,53
 1509 782 1509 782 1565.5 808 c 128,-1,54
 1622 834 1622 834 1643 885 c 128,-1,55
 1664 936 1664 936 1664 1024 c 0,56,57
 1664 1144 1664 1144 1643 1219 c 128,-1,58
 1622 1294 1622 1294 1565.5 1336 c 128,-1,59
 1509 1378 1509 1378 1409 1393 c 128,-1,60
 1309 1408 1309 1408 1152 1408 c 2,61,-1
 831 1408 l 2,62,63
 719 1408 719 1408 637.5 1402 c 128,-1,64
 556 1396 556 1396 499.5 1382 c 128,-1,65
 443 1368 443 1368 407.5 1344 c 128,-1,66
 372 1320 372 1320 352.5 1284.5 c 128,-1,67
 333 1249 333 1249 326.5 1200.5 c 128,-1,68
 320 1152 320 1152 320 1088 c 256,69,70
 320 1024 320 1024 327 975.5 c 128,-1,71
 334 927 334 927 353.5 891.5 c 128,-1,72
 373 856 373 856 408 832 c 128,-1,73
 443 808 443 808 500 794 c 128,-1,74
 557 780 557 780 638 774 c 128,-1,75
 719 768 719 768 831 768 c 2,76,-1
 1152 768 l 2,51,52
EndSplineSet
EndChar

StartChar: colon
Encoding: 58 58 33
Width: 448
GlyphClass: 2
Flags: W
HStem: 192 192<128 320> 768 192<128 320>
VStem: 128 192<192 384 768 960>
LayerCount: 2
Fore
SplineSet
320 768 m 1,0,-1
 128 768 l 1,1,-1
 128 960 l 1,2,-1
 320 960 l 1,3,-1
 320 768 l 1,0,-1
320 192 m 1,4,-1
 128 192 l 1,5,-1
 128 384 l 1,6,-1
 320 384 l 1,7,-1
 320 192 l 1,4,-1
EndSplineSet
EndChar

StartChar: semicolon
Encoding: 59 59 34
Width: 448
GlyphClass: 2
Flags: W
HStem: 768 192<128 320>
VStem: 128 192<468.992 512 768 960>
LayerCount: 2
Fore
SplineSet
128 512 m 1,0,-1
 320 512 l 1,1,-1
 192 128 l 1,2,-1
 64 128 l 1,3,-1
 128 512 l 1,0,-1
320 768 m 1,4,-1
 128 768 l 1,5,-1
 128 960 l 1,6,-1
 320 960 l 1,7,-1
 320 768 l 1,4,-1
EndSplineSet
EndChar

StartChar: less
Encoding: 60 60 35
Width: 1152
GlyphClass: 2
Flags: W
VStem: 128 144<736 928>
LayerCount: 2
Fore
SplineSet
1024 1472 m 1,0,-1
 1024 1216 l 1,1,-1
 272 832 l 1,2,-1
 1024 448 l 1,3,-1
 1024 192 l 1,4,-1
 128 736 l 1,5,-1
 128 928 l 1,6,-1
 1024 1472 l 1,0,-1
EndSplineSet
EndChar

StartChar: equal
Encoding: 61 61 36
Width: 1472
GlyphClass: 2
Flags: W
HStem: 320 160<128 1344> 864 160<128 1344>
LayerCount: 2
Fore
SplineSet
128 1024 m 1,0,-1
 1344 1024 l 1,1,-1
 1344 864 l 1,2,-1
 128 864 l 1,3,-1
 128 1024 l 1,0,-1
128 480 m 1,4,-1
 1344 480 l 1,5,-1
 1344 320 l 1,6,-1
 128 320 l 1,7,-1
 128 480 l 1,4,-1
EndSplineSet
EndChar

StartChar: greater
Encoding: 62 62 37
Width: 1152
GlyphClass: 2
Flags: W
VStem: 880 144<736 928>
LayerCount: 2
Fore
SplineSet
1024 928 m 1,0,-1
 1024 736 l 1,1,-1
 128 192 l 1,2,-1
 128 448 l 1,3,-1
 880 832 l 1,4,-1
 128 1216 l 1,5,-1
 128 1472 l 1,6,-1
 1024 928 l 1,0,-1
EndSplineSet
EndChar

StartChar: question
Encoding: 63 63 38
Width: 1856
GlyphClass: 2
Flags: W
HStem: 0 192<704 896> 736 160<995.061 1449.02> 1408 160<425.628 1446.17>
VStem: 128 192<1122 1326.31> 704 192<0 192 321 643.49> 1535 193<978.224 1326.21>
LayerCount: 2
Fore
SplineSet
704 321 m 1,0,-1
 704 387 l 2,1,2
 704 447 704 447 706.5 508.5 c 128,-1,3
 709 570 709 570 723 626.5 c 128,-1,4
 737 683 737 683 768 732 c 128,-1,5
 799 781 799 781 856 817.5 c 128,-1,6
 913 854 913 854 1000.5 875 c 128,-1,7
 1088 896 1088 896 1216 896 c 0,8,9
 1288 896 1288 896 1347 904 c 128,-1,10
 1406 912 1406 912 1447.5 938.5 c 128,-1,11
 1489 965 1489 965 1512 1015.5 c 128,-1,12
 1535 1066 1535 1066 1535 1152 c 0,13,14
 1535 1246 1535 1246 1509 1298 c 128,-1,15
 1483 1350 1483 1350 1423.5 1374.5 c 128,-1,16
 1364 1399 1364 1399 1266 1403.5 c 128,-1,17
 1168 1408 1168 1408 1024 1408 c 0,18,19
 848 1408 848 1408 727.5 1403.5 c 128,-1,20
 607 1399 607 1399 528.5 1387.5 c 128,-1,21
 450 1376 450 1376 408 1356 c 128,-1,22
 366 1336 366 1336 346.5 1304 c 128,-1,23
 327 1272 327 1272 323.5 1227.5 c 128,-1,24
 320 1183 320 1183 320 1122 c 1,25,-1
 128 1122 l 1,26,27
 128 1234 128 1234 154.5 1310 c 128,-1,28
 181 1386 181 1386 232.5 1435.5 c 128,-1,29
 284 1485 284 1485 360 1512 c 128,-1,30
 436 1539 436 1539 535.5 1551.5 c 128,-1,31
 635 1564 635 1564 757.5 1566 c 128,-1,32
 880 1568 880 1568 1024 1568 c 0,33,34
 1136 1568 1136 1568 1232 1564 c 128,-1,35
 1328 1560 1328 1560 1406 1546 c 128,-1,36
 1484 1532 1484 1532 1544 1505 c 128,-1,37
 1604 1478 1604 1478 1645 1432 c 128,-1,38
 1686 1386 1686 1386 1707 1317.5 c 128,-1,39
 1728 1249 1728 1249 1728 1153 c 0,40,41
 1728 1064 1728 1064 1703 987.5 c 128,-1,42
 1678 911 1678 911 1624 855 c 128,-1,43
 1570 799 1570 799 1485 767.5 c 128,-1,44
 1400 736 1400 736 1280 736 c 0,45,46
 1184 736 1184 736 1118 727.5 c 128,-1,47
 1052 719 1052 719 1009.5 699.5 c 128,-1,48
 967 680 967 680 944 648.5 c 128,-1,49
 921 617 921 617 910.5 571 c 128,-1,50
 900 525 900 525 898 463 c 128,-1,51
 896 401 896 401 896 321 c 1,52,-1
 704 321 l 1,0,-1
896 0 m 1,53,-1
 704 0 l 1,54,-1
 704 192 l 1,55,-1
 896 192 l 1,56,-1
 896 0 l 1,53,-1
EndSplineSet
EndChar

StartChar: at
Encoding: 64 64 39
Width: 2240
GlyphClass: 2
Flags: W
HStem: -224 167.5<645.209 1791> 128 160<773.863 1394.46 1707.54 1903.2> 864 160<773.863 1372.23> 1216 160<654.237 1653.27>
VStem: 128 193<190.905 977.421> 512 192<353.908 798.092> 1504 192<371.195 778.711 864 992> 1920 192<302.643 984.492>
LayerCount: 2
Fore
SplineSet
1117 288 m 0,0,1
 1224 288 1224 288 1298 295.5 c 128,-1,2
 1372 303 1372 303 1417.5 331.5 c 128,-1,3
 1463 360 1463 360 1483.5 417 c 128,-1,4
 1504 474 1504 474 1504 573 c 0,5,6
 1504 674 1504 674 1483.5 732 c 128,-1,7
 1463 790 1463 790 1417.5 819.5 c 128,-1,8
 1372 849 1372 849 1298 856.5 c 128,-1,9
 1224 864 1224 864 1117 864 c 0,10,11
 1022 864 1022 864 954 860.5 c 128,-1,12
 886 857 886 857 840.5 846.5 c 128,-1,13
 795 836 795 836 768 816 c 128,-1,14
 741 796 741 796 726.5 764 c 128,-1,15
 712 732 712 732 708 686 c 128,-1,16
 704 640 704 640 704 576 c 256,17,18
 704 512 704 512 708 466 c 128,-1,19
 712 420 712 420 726.5 388 c 128,-1,20
 741 356 741 356 768 336 c 128,-1,21
 795 316 795 316 840.5 305.5 c 128,-1,22
 886 295 886 295 954 291.5 c 128,-1,23
 1022 288 1022 288 1117 288 c 0,0,1
2112 480 m 1,24,25
 2112 384 2112 384 2100 317 c 128,-1,26
 2088 250 2088 250 2053 208 c 128,-1,27
 2018 166 2018 166 1955.5 147 c 128,-1,28
 1893 128 1893 128 1791 128 c 0,29,30
 1718 128 1718 128 1674 147.5 c 128,-1,31
 1630 167 1630 167 1606 195.5 c 128,-1,32
 1582 224 1582 224 1574.5 257.5 c 128,-1,33
 1567 291 1567 291 1567 320 c 1,34,35
 1542 266 1542 266 1486 224 c 0,36,37
 1462 206 1462 206 1428.5 188.5 c 128,-1,38
 1395 171 1395 171 1349.5 157.5 c 128,-1,39
 1304 144 1304 144 1246.5 136 c 128,-1,40
 1189 128 1189 128 1117 128 c 0,41,42
 990 128 990 128 895.5 137.5 c 128,-1,43
 801 147 801 147 734 168 c 128,-1,44
 667 189 667 189 624 223 c 128,-1,45
 581 257 581 257 556 307 c 128,-1,46
 531 357 531 357 521.5 423.5 c 128,-1,47
 512 490 512 490 512 576 c 256,48,49
 512 662 512 662 521.5 728.5 c 128,-1,50
 531 795 531 795 556 845 c 128,-1,51
 581 895 581 895 624 929 c 128,-1,52
 667 963 667 963 734 984 c 128,-1,53
 801 1005 801 1005 895.5 1014.5 c 128,-1,54
 990 1024 990 1024 1117 1024 c 0,55,56
 1179 1024 1179 1024 1228.5 1017 c 128,-1,57
 1278 1010 1278 1010 1317 999 c 128,-1,58
 1356 988 1356 988 1385 973.5 c 128,-1,59
 1414 959 1414 959 1435 944 c 0,60,61
 1483 909 1483 909 1504 864 c 1,62,-1
 1504 992 l 1,63,-1
 1696 992 l 1,64,-1
 1696 480 l 2,65,66
 1696 418 1696 418 1699 380.5 c 128,-1,67
 1702 343 1702 343 1711.5 322.5 c 128,-1,68
 1721 302 1721 302 1740 295 c 128,-1,69
 1759 288 1759 288 1791 288 c 0,70,71
 1833 288 1833 288 1858.5 295 c 128,-1,72
 1884 302 1884 302 1897.5 322.5 c 128,-1,73
 1911 343 1911 343 1915.5 380.5 c 128,-1,74
 1920 418 1920 418 1920 480 c 2,75,-1
 1920 768 l 2,76,77
 1920 864 1920 864 1907.5 934.5 c 128,-1,78
 1895 1005 1895 1005 1863 1055 c 128,-1,79
 1831 1105 1831 1105 1775.5 1136 c 128,-1,80
 1720 1167 1720 1167 1635 1185 c 128,-1,81
 1550 1203 1550 1203 1431 1209.5 c 128,-1,82
 1312 1216 1312 1216 1152 1216 c 0,83,84
 976 1216 976 1216 846 1211 c 128,-1,85
 716 1206 716 1206 623.5 1185.5 c 128,-1,86
 531 1165 531 1165 472 1124 c 128,-1,87
 413 1083 413 1083 379.5 1012 c 128,-1,88
 346 941 346 941 333.5 834.5 c 128,-1,89
 321 728 321 728 321 576 c 0,90,91
 321 432 321 432 334 328.5 c 128,-1,92
 347 225 347 225 380.5 154 c 128,-1,93
 414 83 414 83 473 40 c 128,-1,94
 532 -3 532 -3 624 -26 c 128,-1,95
 716 -49 716 -49 846 -56.5 c 128,-1,96
 976 -64 976 -64 1791 -64 c 1,97,-1
 1791 -224 l 1,98,-1
 1152 -224 l 2,99,100
 928 -224 928 -224 765 -202.5 c 128,-1,101
 602 -181 602 -181 488.5 -137.5 c 128,-1,102
 375 -94 375 -94 304 -28 c 128,-1,103
 233 38 233 38 194 127 c 128,-1,104
 155 216 155 216 141.5 328 c 128,-1,105
 128 440 128 440 128 576 c 0,106,107
 128 736 128 736 141.5 857.5 c 128,-1,108
 155 979 155 979 194 1068 c 128,-1,109
 233 1157 233 1157 304 1216 c 128,-1,110
 375 1275 375 1275 488.5 1310.5 c 128,-1,111
 602 1346 602 1346 765 1361 c 128,-1,112
 928 1376 928 1376 1152 1376 c 0,113,114
 1344 1376 1344 1376 1490 1362 c 128,-1,115
 1636 1348 1636 1348 1742.5 1318 c 128,-1,116
 1849 1288 1849 1288 1920 1240 c 128,-1,117
 1991 1192 1991 1192 2033.5 1124.5 c 128,-1,118
 2076 1057 2076 1057 2112 480 c 1,24,25
EndSplineSet
EndChar

StartChar: A
Encoding: 65 65 40
Width: 2176
GlyphClass: 2
Flags: W
HStem: 0 21G<64 298.909 1877.09 2112> 352 160<576 1600> 1408 128<960 1216>
DStem2: 64 0 288 0 0.503871 0.863779<112.867 513.661 700.237 700.237> 1216 1536 1088 1408 0.503871 -0.863779<46.0682 1078 1264.57 1264.57>
LayerCount: 2
Fore
SplineSet
1696 352 m 1,0,-1
 480 352 l 1,1,-1
 288 0 l 1,2,-1
 64 0 l 1,3,-1
 960 1536 l 1,4,-1
 1216 1536 l 1,5,-1
 2112 0 l 1,6,-1
 1888 0 l 1,7,-1
 1696 352 l 1,0,-1
1600 512 m 1,8,-1
 1088 1408 l 1,9,-1
 576 512 l 1,10,-1
 1600 512 l 1,8,-1
EndSplineSet
EndChar

StartChar: B
Encoding: 66 66 41
Width: 2112
GlyphClass: 2
Flags: W
HStem: 0 160<384 1691.44> 736 160<384 1641.95> 1376 160<384 1675.73>
VStem: 192 192<160 736 896 1376> 1728 192<974.064 1324.34> 1792 192<251.837 659.089>
LayerCount: 2
Fore
SplineSet
192 0 m 1,0,-1
 192 1536 l 1,1,-1
 1473 1536 l 2,2,3
 1617 1536 1617 1536 1705 1512.5 c 128,-1,4
 1793 1489 1793 1489 1840.5 1443.5 c 128,-1,5
 1888 1398 1888 1398 1904 1330 c 128,-1,6
 1920 1262 1920 1262 1920 1174 c 0,7,8
 1920 1110 1920 1110 1909 1061 c 128,-1,9
 1898 1012 1898 1012 1880 976 c 128,-1,10
 1862 940 1862 940 1839 915.5 c 128,-1,11
 1816 891 1816 891 1792 875 c 0,12,13
 1736 837 1736 837 1664 832 c 1,14,15
 1754 827 1754 827 1824 788 c 0,16,17
 1854 771 1854 771 1882.5 745.5 c 128,-1,18
 1911 720 1911 720 1933.5 682.5 c 128,-1,19
 1956 645 1956 645 1970 594.5 c 128,-1,20
 1984 544 1984 544 1984 478 c 0,21,22
 1984 398 1984 398 1976.5 331.5 c 128,-1,23
 1969 265 1969 265 1946 212 c 128,-1,24
 1923 159 1923 159 1880 119 c 128,-1,25
 1837 79 1837 79 1765.5 52.5 c 128,-1,26
 1694 26 1694 26 1590.5 13 c 128,-1,27
 1487 0 1487 0 1343 0 c 2,28,-1
 192 0 l 1,0,-1
1279 160 m 2,29,30
 1391 160 1391 160 1473 163.5 c 128,-1,31
 1555 167 1555 167 1612 178.5 c 128,-1,32
 1669 190 1669 190 1704 211.5 c 128,-1,33
 1739 233 1739 233 1758.5 268.5 c 128,-1,34
 1778 304 1778 304 1785 355 c 128,-1,35
 1792 406 1792 406 1792 478 c 0,36,37
 1792 534 1792 534 1785 575.5 c 128,-1,38
 1778 617 1778 617 1758.5 645.5 c 128,-1,39
 1739 674 1739 674 1704 691.5 c 128,-1,40
 1669 709 1669 709 1612 719 c 128,-1,41
 1555 729 1555 729 1473 732.5 c 128,-1,42
 1391 736 1391 736 1279 736 c 2,43,-1
 384 736 l 1,44,-1
 384 160 l 1,45,-1
 1279 160 l 2,29,30
1279 896 m 2,46,47
 1377 896 1377 896 1448 900 c 128,-1,48
 1519 904 1519 904 1569 915 c 128,-1,49
 1619 926 1619 926 1650 945.5 c 128,-1,50
 1681 965 1681 965 1698.5 996 c 128,-1,51
 1716 1027 1716 1027 1722 1070.5 c 128,-1,52
 1728 1114 1728 1114 1728 1174 c 0,53,54
 1728 1238 1728 1238 1714 1278 c 128,-1,55
 1700 1318 1700 1318 1664 1339.5 c 128,-1,56
 1628 1361 1628 1361 1566.5 1368.5 c 128,-1,57
 1505 1376 1505 1376 1409 1376 c 2,58,-1
 384 1376 l 1,59,-1
 384 896 l 1,60,-1
 1279 896 l 2,46,47
EndSplineSet
EndChar

StartChar: C
Encoding: 67 67 42
Width: 2111
GlyphClass: 2
Flags: W
HStem: -32 160<456.678 1658.06> 1408 160<456.678 1657.27>
VStem: 128 192<265.621 1272.77> 1791 192<250.36 512 1056 1284.25>
LayerCount: 2
Fore
SplineSet
1791 1056 m 1,0,1
 1791 1176 1791 1176 1765 1246 c 128,-1,2
 1739 1316 1739 1316 1679 1352 c 128,-1,3
 1619 1388 1619 1388 1521.5 1398 c 128,-1,4
 1424 1408 1424 1408 1280 1408 c 2,5,-1
 831 1408 l 2,6,7
 703 1408 703 1408 615.5 1400.5 c 128,-1,8
 528 1393 528 1393 471 1370 c 128,-1,9
 414 1347 414 1347 383 1304 c 128,-1,10
 352 1261 352 1261 338 1190 c 128,-1,11
 324 1119 324 1119 322 1015.5 c 128,-1,12
 320 912 320 912 320 768 c 256,13,14
 320 624 320 624 322.5 520.5 c 128,-1,15
 325 417 325 417 339 346 c 128,-1,16
 353 275 353 275 383.5 232 c 128,-1,17
 414 189 414 189 471 166 c 128,-1,18
 528 143 528 143 615.5 135.5 c 128,-1,19
 703 128 703 128 831 128 c 2,20,-1
 1280 128 l 2,21,22
 1392 128 1392 128 1473 134 c 128,-1,23
 1554 140 1554 140 1611 156 c 128,-1,24
 1668 172 1668 172 1703 200 c 128,-1,25
 1738 228 1738 228 1757.5 270.5 c 128,-1,26
 1777 313 1777 313 1784 372.5 c 128,-1,27
 1791 432 1791 432 1791 512 c 1,28,-1
 1983 512 l 1,29,30
 1983 416 1983 416 1971 338.5 c 128,-1,31
 1959 261 1959 261 1928.5 200.5 c 128,-1,32
 1898 140 1898 140 1847 96 c 128,-1,33
 1796 52 1796 52 1718 23.5 c 128,-1,34
 1640 -5 1640 -5 1532 -18.5 c 128,-1,35
 1424 -32 1424 -32 1280 -32 c 2,36,-1
 831 -32 l 2,37,38
 655 -32 655 -32 534.5 -10.5 c 128,-1,39
 414 11 414 11 336 54.5 c 128,-1,40
 258 98 258 98 215.5 164 c 128,-1,41
 173 230 173 230 153.5 319 c 128,-1,42
 134 408 134 408 131 520 c 128,-1,43
 128 632 128 632 128 768 c 256,44,45
 128 904 128 904 131 1016 c 128,-1,46
 134 1128 134 1128 153.5 1217 c 128,-1,47
 173 1306 173 1306 215.5 1372 c 128,-1,48
 258 1438 258 1438 336 1481.5 c 128,-1,49
 414 1525 414 1525 534.5 1546.5 c 128,-1,50
 655 1568 655 1568 831 1568 c 2,51,-1
 1280 1568 l 2,52,53
 1424 1568 1424 1568 1532 1554.5 c 128,-1,54
 1640 1541 1640 1541 1718 1513.5 c 128,-1,55
 1796 1486 1796 1486 1847 1444 c 128,-1,56
 1898 1402 1898 1402 1928.5 1345 c 128,-1,57
 1959 1288 1959 1288 1971 1216 c 128,-1,58
 1983 1144 1983 1144 1983 1056 c 1,59,-1
 1791 1056 l 1,0,1
EndSplineSet
EndChar

StartChar: D
Encoding: 68 68 43
Width: 2176
GlyphClass: 2
Flags: W
HStem: 0 160<384 1723.97> 1376 160<384 1723.97>
VStem: 192 192<160 1376> 1856 192<292.666 1243.33>
LayerCount: 2
Fore
SplineSet
1343 160 m 2,0,1
 1470 160 1470 160 1558 167 c 128,-1,2
 1646 174 1646 174 1703 195.5 c 128,-1,3
 1760 217 1760 217 1791 258 c 128,-1,4
 1822 299 1822 299 1836.5 366.5 c 128,-1,5
 1851 434 1851 434 1853.5 532.5 c 128,-1,6
 1856 631 1856 631 1856 768 c 256,7,8
 1856 905 1856 905 1853.5 1003.5 c 128,-1,9
 1851 1102 1851 1102 1836.5 1169.5 c 128,-1,10
 1822 1237 1822 1237 1791 1278 c 128,-1,11
 1760 1319 1760 1319 1703 1340.5 c 128,-1,12
 1646 1362 1646 1362 1558.5 1369 c 128,-1,13
 1471 1376 1471 1376 1343 1376 c 2,14,-1
 384 1376 l 1,15,-1
 384 160 l 1,16,-1
 1343 160 l 2,0,1
192 0 m 1,17,-1
 192 1536 l 1,18,-1
 1343 1536 l 2,19,20
 1519 1536 1519 1536 1639.5 1515.5 c 128,-1,21
 1760 1495 1760 1495 1838.5 1453 c 128,-1,22
 1917 1411 1917 1411 1959.5 1348 c 128,-1,23
 2002 1285 2002 1285 2021.5 1199.5 c 128,-1,24
 2041 1114 2041 1114 2044.5 1006.5 c 128,-1,25
 2048 899 2048 899 2048 768 c 256,26,27
 2048 637 2048 637 2044.5 529.5 c 128,-1,28
 2041 422 2041 422 2021.5 336.5 c 128,-1,29
 2002 251 2002 251 1959.5 188 c 128,-1,30
 1917 125 1917 125 1838.5 83 c 128,-1,31
 1760 41 1760 41 1639.5 20.5 c 128,-1,32
 1519 0 1519 0 1343 0 c 2,33,-1
 192 0 l 1,17,-1
EndSplineSet
EndChar

StartChar: E
Encoding: 69 69 44
Width: 1792
GlyphClass: 2
Flags: W
HStem: 0 160<384 1728> 704 160<384 1664> 1376 160<384 1728>
VStem: 192 192<160 704 864 1376>
LayerCount: 2
Fore
SplineSet
192 0 m 1,0,-1
 192 1536 l 1,1,-1
 1728 1536 l 1,2,-1
 1728 1376 l 1,3,-1
 384 1376 l 1,4,-1
 384 864 l 1,5,-1
 1664 864 l 1,6,-1
 1664 704 l 1,7,-1
 384 704 l 1,8,-1
 384 160 l 1,9,-1
 1728 160 l 1,10,-1
 1728 0 l 1,11,-1
 192 0 l 1,0,-1
EndSplineSet
EndChar

StartChar: F
Encoding: 70 70 45
Width: 1728
GlyphClass: 2
Flags: W
HStem: 0 21G<192 384> 704 160<384 1600> 1376 160<384 1664>
VStem: 192 192<0 704 864 1376>
LayerCount: 2
Fore
SplineSet
192 0 m 1,0,-1
 192 1536 l 1,1,-1
 1664 1536 l 1,2,-1
 1664 1376 l 1,3,-1
 384 1376 l 1,4,-1
 384 864 l 1,5,-1
 1600 864 l 1,6,-1
 1600 704 l 1,7,-1
 384 704 l 1,8,-1
 384 0 l 1,9,-1
 192 0 l 1,0,-1
EndSplineSet
EndChar

StartChar: G
Encoding: 71 71 46
Width: 2177
GlyphClass: 2
Flags: W
HStem: -32 160<456.678 1724.06> 608 160<1087 1857> 1408 160<456.678 1723.06>
VStem: 128 192<265.621 1272.77> 1857 192<250.36 608 1056 1284.25>
LayerCount: 2
Fore
SplineSet
1857 1056 m 1,0,1
 1857 1176 1857 1176 1831 1246 c 128,-1,2
 1805 1316 1805 1316 1745 1352 c 128,-1,3
 1685 1388 1685 1388 1587 1398 c 128,-1,4
 1489 1408 1489 1408 1345 1408 c 2,5,-1
 831 1408 l 2,6,7
 703 1408 703 1408 615.5 1400.5 c 128,-1,8
 528 1393 528 1393 471 1370 c 128,-1,9
 414 1347 414 1347 383 1304 c 128,-1,10
 352 1261 352 1261 338 1190 c 128,-1,11
 324 1119 324 1119 322 1015.5 c 128,-1,12
 320 912 320 912 320 768 c 256,13,14
 320 624 320 624 322.5 520.5 c 128,-1,15
 325 417 325 417 339 346 c 128,-1,16
 353 275 353 275 383.5 232 c 128,-1,17
 414 189 414 189 471 166 c 128,-1,18
 528 143 528 143 615.5 135.5 c 128,-1,19
 703 128 703 128 831 128 c 2,20,-1
 1346 128 l 2,21,22
 1458 128 1458 128 1539 134 c 128,-1,23
 1620 140 1620 140 1677 156 c 128,-1,24
 1734 172 1734 172 1769 200 c 128,-1,25
 1804 228 1804 228 1823.5 270.5 c 128,-1,26
 1843 313 1843 313 1850 372.5 c 128,-1,27
 1857 432 1857 432 1857 512 c 2,28,-1
 1857 608 l 1,29,-1
 1087 608 l 1,30,-1
 1087 768 l 1,31,-1
 2049 768 l 1,32,-1
 2049 512 l 2,33,34
 2049 416 2049 416 2037 338.5 c 128,-1,35
 2025 261 2025 261 1994.5 200.5 c 128,-1,36
 1964 140 1964 140 1913 96 c 128,-1,37
 1862 52 1862 52 1784 23.5 c 128,-1,38
 1706 -5 1706 -5 1598 -18.5 c 128,-1,39
 1490 -32 1490 -32 1346 -32 c 2,40,-1
 831 -32 l 2,41,42
 655 -32 655 -32 534.5 -10.5 c 128,-1,43
 414 11 414 11 336 54.5 c 128,-1,44
 258 98 258 98 215.5 164 c 128,-1,45
 173 230 173 230 153.5 319 c 128,-1,46
 134 408 134 408 131 520 c 128,-1,47
 128 632 128 632 128 768 c 256,48,49
 128 904 128 904 131 1016 c 128,-1,50
 134 1128 134 1128 153.5 1217 c 128,-1,51
 173 1306 173 1306 215.5 1372 c 128,-1,52
 258 1438 258 1438 336 1481.5 c 128,-1,53
 414 1525 414 1525 534.5 1546.5 c 128,-1,54
 655 1568 655 1568 831 1568 c 2,55,-1
 1345 1568 l 2,56,57
 1489 1568 1489 1568 1597 1554.5 c 128,-1,58
 1705 1541 1705 1541 1783 1513.5 c 128,-1,59
 1861 1486 1861 1486 1912.5 1444 c 128,-1,60
 1964 1402 1964 1402 1994.5 1345 c 128,-1,61
 2025 1288 2025 1288 2037 1216 c 128,-1,62
 2049 1144 2049 1144 2049 1056 c 1,63,-1
 1857 1056 l 1,0,1
EndSplineSet
EndChar

StartChar: H
Encoding: 72 72 47
Width: 2176
GlyphClass: 2
Flags: W
HStem: 0 21G<192 384 1792 1984> 704 160<384 1792> 1516 20G<192 384 1792 1984>
VStem: 192 192<0 704 864 1536> 1792 192<0 704 864 1536>
LayerCount: 2
Fore
SplineSet
1792 1536 m 1,0,-1
 1984 1536 l 1,1,-1
 1984 0 l 1,2,-1
 1792 0 l 1,3,-1
 1792 704 l 1,4,-1
 384 704 l 1,5,-1
 384 0 l 1,6,-1
 192 0 l 1,7,-1
 192 1536 l 1,8,-1
 384 1536 l 1,9,-1
 384 864 l 1,10,-1
 1792 864 l 1,11,-1
 1792 1536 l 1,0,-1
EndSplineSet
EndChar

StartChar: J
Encoding: 74 74 49
Width: 1715
GlyphClass: 2
Flags: W
HStem: 0 156<388.971 1244.01> 1516 20G<1344 1536>
VStem: 128 192<231.755 576> 1344 192<251.046 1536>
LayerCount: 2
Fore
SplineSet
576 0 m 2,0,1
 432 0 432 0 344 26 c 128,-1,2
 256 52 256 52 208 112 c 128,-1,3
 160 172 160 172 144 270 c 128,-1,4
 128 368 128 368 128 512 c 2,5,-1
 128 576 l 1,6,-1
 320 576 l 1,7,-1
 320 512 l 2,8,9
 320 392 320 392 333 321.5 c 128,-1,10
 346 251 346 251 376 214 c 128,-1,11
 406 177 406 177 455 166.5 c 128,-1,12
 504 156 504 156 576 156 c 2,13,-1
 1024 156 l 2,14,15
 1120 156 1120 156 1182 173.5 c 128,-1,16
 1244 191 1244 191 1280 227 c 128,-1,17
 1316 263 1316 263 1330 318 c 128,-1,18
 1344 373 1344 373 1344 448 c 2,19,-1
 1344 1536 l 1,20,-1
 1536 1536 l 1,21,-1
 1536 448 l 2,22,23
 1536 328 1536 328 1510 243 c 128,-1,24
 1484 158 1484 158 1424 104 c 128,-1,25
 1364 50 1364 50 1266 25 c 128,-1,26
 1168 0 1168 0 1024 0 c 2,27,-1
 576 0 l 2,0,1
EndSplineSet
EndChar

StartChar: K
Encoding: 75 75 50
Width: 2016
GlyphClass: 2
Flags: W
HStem: 0 21G<192 384 1634.91 1952> 704 160<384 640> 1516 20G<192 384 1602.48 1920>
VStem: 192 192<0 704 864 1536> 1632 288<1248 1536> 1664 288<0 288>
DStem2: 640 864 832 784 0.822627 0.568581<112.458 1198.13> 832 784 640 704 0.819232 -0.573462<0 1131.2>
LayerCount: 2
Fore
SplineSet
1632 1536 m 1,0,-1
 1920 1536 l 1,1,-1
 832 784 l 1,2,-1
 1952 0 l 1,3,-1
 1664 0 l 1,4,-1
 640 704 l 1,5,-1
 384 704 l 1,6,-1
 384 0 l 1,7,-1
 192 0 l 1,8,-1
 192 1536 l 1,9,-1
 384 1536 l 1,10,-1
 384 864 l 1,11,-1
 640 864 l 1,12,-1
 1632 1536 l 1,0,-1
EndSplineSet
EndChar

StartChar: L
Encoding: 76 76 51
Width: 1664
GlyphClass: 2
Flags: W
HStem: 0 160<384 1600> 1516 20G<192 384>
VStem: 192 192<160 1536>
LayerCount: 2
Fore
SplineSet
192 0 m 1,0,-1
 192 1536 l 1,1,-1
 384 1536 l 1,2,-1
 384 160 l 1,3,-1
 1600 160 l 1,4,-1
 1600 0 l 1,5,-1
 192 0 l 1,0,-1
EndSplineSet
EndChar

StartChar: M
Encoding: 77 77 52
Width: 2800
GlyphClass: 2
Flags: W
HStem: 0 192<1310 1504> 1516 20G<192 525.318 2288.68 2608>
VStem: 192 192<0 1408> 2416 192<0 1387>
DStem2: 512 1536 384 1408 0.549486 -0.835503<36.6102 1614.71> 1407 192 1504 0 0.549406 0.835555<0 1552.84>
LayerCount: 2
Fore
SplineSet
384 1408 m 1,0,-1
 384 0 l 1,1,-1
 192 0 l 1,2,-1
 192 1536 l 1,3,-1
 512 1536 l 1,4,-1
 1407 192 l 1,5,-1
 2302 1536 l 1,6,-1
 2608 1536 l 1,7,-1
 2608 0 l 1,8,-1
 2416 0 l 1,9,-1
 2416 1387 l 1,10,-1
 1504 0 l 1,11,-1
 1310 0 l 1,12,-1
 384 1408 l 1,0,-1
EndSplineSet
EndChar

StartChar: N
Encoding: 78 78 53
Width: 2321
GlyphClass: 2
Flags: W
HStem: 0 21G<192 384 1851.36 2129> 1516 20G<192 549.952 1937 2129>
VStem: 192 192<0 1376> 1937 192<192 1536>
LayerCount: 2
Fore
SplineSet
384 0 m 1,0,-1
 192 0 l 1,1,-1
 192 1536 l 1,2,-1
 529 1536 l 1,3,-1
 1937 192 l 1,4,-1
 1937 1536 l 1,5,-1
 2129 1536 l 1,6,-1
 2129 0 l 1,7,-1
 1873 0 l 1,8,-1
 384 1376 l 1,9,-1
 384 0 l 1,0,-1
EndSplineSet
EndChar

StartChar: O
Encoding: 79 79 54
Width: 2240
GlyphClass: 2
Flags: W
HStem: -32 160<456.678 1783.32> 1408 160<456.678 1783.32>
VStem: 128 192<265.621 1272.77> 1920 192<265.621 1270.38>
LayerCount: 2
Fore
SplineSet
1409 1568 m 2,0,1
 1585 1568 1585 1568 1705.5 1546.5 c 128,-1,2
 1826 1525 1826 1525 1904 1481.5 c 128,-1,3
 1982 1438 1982 1438 2024 1372 c 128,-1,4
 2066 1306 2066 1306 2085.5 1217 c 128,-1,5
 2105 1128 2105 1128 2108.5 1016 c 128,-1,6
 2112 904 2112 904 2112 768 c 256,7,8
 2112 632 2112 632 2108.5 520 c 128,-1,9
 2105 408 2105 408 2085.5 319 c 128,-1,10
 2066 230 2066 230 2024 164 c 128,-1,11
 1982 98 1982 98 1904 54.5 c 128,-1,12
 1826 11 1826 11 1705.5 -10.5 c 128,-1,13
 1585 -32 1585 -32 1409 -32 c 2,14,-1
 831 -32 l 2,15,16
 655 -32 655 -32 534.5 -10.5 c 128,-1,17
 414 11 414 11 336 54.5 c 128,-1,18
 258 98 258 98 215.5 164 c 128,-1,19
 173 230 173 230 153.5 319 c 128,-1,20
 134 408 134 408 131 520 c 128,-1,21
 128 632 128 632 128 768 c 256,22,23
 128 904 128 904 131 1016 c 128,-1,24
 134 1128 134 1128 153.5 1217 c 128,-1,25
 173 1306 173 1306 215.5 1372 c 128,-1,26
 258 1438 258 1438 336 1481.5 c 128,-1,27
 414 1525 414 1525 534.5 1546.5 c 128,-1,28
 655 1568 655 1568 831 1568 c 2,29,-1
 1409 1568 l 2,0,1
1409 128 m 2,30,31
 1536 128 1536 128 1623.5 135.5 c 128,-1,32
 1711 143 1711 143 1768 166 c 128,-1,33
 1825 189 1825 189 1856 232 c 128,-1,34
 1887 275 1887 275 1901 346 c 128,-1,35
 1915 417 1915 417 1917.5 520.5 c 128,-1,36
 1920 624 1920 624 1920 768 c 256,37,38
 1920 912 1920 912 1917.5 1015.5 c 128,-1,39
 1915 1119 1915 1119 1901 1190 c 128,-1,40
 1887 1261 1887 1261 1856 1304 c 128,-1,41
 1825 1347 1825 1347 1768.5 1370 c 128,-1,42
 1712 1393 1712 1393 1624.5 1400.5 c 128,-1,43
 1537 1408 1537 1408 1409 1408 c 2,44,-1
 831 1408 l 2,45,46
 703 1408 703 1408 615.5 1400.5 c 128,-1,47
 528 1393 528 1393 471 1370 c 128,-1,48
 414 1347 414 1347 383 1304 c 128,-1,49
 352 1261 352 1261 338 1190 c 128,-1,50
 324 1119 324 1119 322 1015.5 c 128,-1,51
 320 912 320 912 320 768 c 256,52,53
 320 624 320 624 322.5 520.5 c 128,-1,54
 325 417 325 417 339 346 c 128,-1,55
 353 275 353 275 383.5 232 c 128,-1,56
 414 189 414 189 471 166 c 128,-1,57
 528 143 528 143 615.5 135.5 c 128,-1,58
 703 128 703 128 831 128 c 2,59,-1
 1409 128 l 2,30,31
EndSplineSet
EndChar

StartChar: P
Encoding: 80 80 55
Width: 1984
GlyphClass: 2
Flags: W
HStem: 0 21G<192 384> 608 160<384 1645.72> 1376 160<384 1659.19>
VStem: 192 192<0 608 768 1376> 1728 192<841.524 1314.55>
LayerCount: 2
Fore
SplineSet
192 1536 m 1,0,-1
 1346 1536 l 2,1,2
 1489 1536 1489 1536 1587.5 1523.5 c 128,-1,3
 1686 1511 1686 1511 1750 1486 c 128,-1,4
 1814 1461 1814 1461 1848.5 1424 c 128,-1,5
 1883 1387 1883 1387 1899 1337 c 128,-1,6
 1915 1287 1915 1287 1917.5 1225 c 128,-1,7
 1920 1163 1920 1163 1920 1088 c 0,8,9
 1920 1010 1920 1010 1916.5 944 c 128,-1,10
 1913 878 1913 878 1893.5 824.5 c 128,-1,11
 1874 771 1874 771 1831.5 730.5 c 128,-1,12
 1789 690 1789 690 1710.5 663 c 128,-1,13
 1632 636 1632 636 1511.5 622 c 128,-1,14
 1391 608 1391 608 1215 608 c 2,15,-1
 384 608 l 1,16,-1
 384 0 l 1,17,-1
 192 0 l 1,18,-1
 192 1536 l 1,0,-1
384 768 m 1,19,-1
 1215 768 l 2,20,21
 1343 768 1343 768 1430.5 772.5 c 128,-1,22
 1518 777 1518 777 1575 789 c 128,-1,23
 1632 801 1632 801 1663 823 c 128,-1,24
 1694 845 1694 845 1708.5 881 c 128,-1,25
 1723 917 1723 917 1725.5 967.5 c 128,-1,26
 1728 1018 1728 1018 1728 1088 c 0,27,28
 1728 1153 1728 1153 1725.5 1200 c 128,-1,29
 1723 1247 1723 1247 1708.5 1279 c 128,-1,30
 1694 1311 1694 1311 1663 1330 c 128,-1,31
 1632 1349 1632 1349 1575 1359.5 c 128,-1,32
 1518 1370 1518 1370 1430.5 1373 c 128,-1,33
 1343 1376 1343 1376 1215 1376 c 2,34,-1
 384 1376 l 1,35,-1
 384 768 l 1,19,-1
EndSplineSet
EndChar

StartChar: Q
Encoding: 81 81 56
Width: 2352
GlyphClass: 2
Flags: W
HStem: -32 160<457.678 832 1410 1784.32> 1408 160<457.678 832 1410 1784.32>
VStem: 129 192<265.621 520.5 1015.5 1272.77> 1921 192<426.402 520 1015.5 1270.38>
DStem2: 1328 800 1247 671 0.841879 -0.539666<1.42472 695.414 929.305 1065.17>
LayerCount: 2
Fore
SplineSet
832 1568 m 2,0,1
 656 1568 656 1568 535.5 1546.5 c 128,-1,2
 415 1525 415 1525 337 1481.5 c 128,-1,3
 259 1438 259 1438 216.5 1372 c 128,-1,4
 174 1306 174 1306 154.5 1217 c 128,-1,5
 135 1128 135 1128 132 1016 c 128,-1,6
 129 904 129 904 129 768 c 256,7,8
 129 632 129 632 132 520 c 128,-1,9
 135 408 135 408 154.5 319 c 128,-1,10
 174 230 174 230 216.5 164 c 128,-1,11
 259 98 259 98 337 54.5 c 128,-1,12
 415 11 415 11 535.5 -10.5 c 128,-1,13
 656 -32 656 -32 832 -32 c 2,14,-1
 1410 -32 l 2,15,16
 1586 -32 1586 -32 1706.5 -10.5 c 128,-1,17
 1827 11 1827 11 1905 54.5 c 128,-1,18
 1983 98 1983 98 2025 164 c 0,19,20
 2027 167 2027 167 2028 170 c 1,21,-1
 2144 96 l 1,22,-1
 2224 224 l 1,23,-1
 2085 313 l 1,24,25
 2086 316 2086 316 2086 319 c 0,26,27
 2106 408 2106 408 2109.5 520 c 128,-1,28
 2113 632 2113 632 2113 768 c 256,29,30
 2113 904 2113 904 2109.5 1016 c 128,-1,31
 2106 1128 2106 1128 2086.5 1217 c 128,-1,32
 2067 1306 2067 1306 2025 1372 c 128,-1,33
 1983 1438 1983 1438 1905 1481.5 c 128,-1,34
 1827 1525 1827 1525 1706.5 1546.5 c 128,-1,35
 1586 1568 1586 1568 1410 1568 c 2,36,-1
 832 1568 l 2,0,1
832 128 m 2,37,38
 704 128 704 128 616.5 135.5 c 128,-1,39
 529 143 529 143 472 166 c 128,-1,40
 415 189 415 189 384.5 232 c 128,-1,41
 354 275 354 275 340 346 c 128,-1,42
 326 417 326 417 323.5 520.5 c 128,-1,43
 321 624 321 624 321 768 c 256,44,45
 321 912 321 912 323 1015.5 c 128,-1,46
 325 1119 325 1119 339 1190 c 128,-1,47
 353 1261 353 1261 384 1304 c 128,-1,48
 415 1347 415 1347 472 1370 c 128,-1,49
 529 1393 529 1393 616.5 1400.5 c 128,-1,50
 704 1408 704 1408 832 1408 c 2,51,-1
 1410 1408 l 2,52,53
 1538 1408 1538 1408 1625.5 1400.5 c 128,-1,54
 1713 1393 1713 1393 1769.5 1370 c 128,-1,55
 1826 1347 1826 1347 1857 1304 c 128,-1,56
 1888 1261 1888 1261 1902 1190 c 128,-1,57
 1916 1119 1916 1119 1918.5 1015.5 c 128,-1,58
 1921 912 1921 912 1921 768 c 256,59,60
 1921 624 1921 624 1918 520 c 0,61,62
 1917 468 1917 468 1913 424 c 1,63,-1
 1328 800 l 1,64,-1
 1247 671 l 1,65,-1
 1877 267 l 1,66,67
 1868 247 1868 247 1857 232 c 0,68,69
 1826 189 1826 189 1769 166 c 128,-1,70
 1712 143 1712 143 1624.5 135.5 c 128,-1,71
 1537 128 1537 128 1410 128 c 2,72,-1
 832 128 l 2,37,38
EndSplineSet
EndChar

StartChar: R
Encoding: 82 82 57
Width: 2112
GlyphClass: 2
Flags: W
HStem: 0 21G<192 384 1760 1952> 608 160<384 1677.88> 1376 160<384 1724.19>
VStem: 192 192<0 608 768 1376> 1760 192<0 534.968> 1792 192<840.986 1314.55>
LayerCount: 2
Fore
SplineSet
1952 0 m 1,0,-1
 1760 0 l 1,1,-1
 1760 288 l 2,2,3
 1760 358 1760 358 1757.5 408.5 c 128,-1,4
 1755 459 1755 459 1740.5 495 c 128,-1,5
 1726 531 1726 531 1695 553 c 128,-1,6
 1664 575 1664 575 1607 587 c 128,-1,7
 1550 599 1550 599 1462.5 603.5 c 128,-1,8
 1375 608 1375 608 1247 608 c 2,9,-1
 384 608 l 1,10,-1
 384 0 l 1,11,-1
 192 0 l 1,12,-1
 192 1536 l 1,13,-1
 1279 1536 l 2,14,15
 1455 1536 1455 1536 1575.5 1523.5 c 128,-1,16
 1696 1511 1696 1511 1774.5 1486 c 128,-1,17
 1853 1461 1853 1461 1895.5 1424 c 128,-1,18
 1938 1387 1938 1387 1957.5 1337 c 128,-1,19
 1977 1287 1977 1287 1980.5 1225 c 128,-1,20
 1984 1163 1984 1163 1984 1088 c 0,21,22
 1984 992 1984 992 1970.5 919.5 c 128,-1,23
 1957 847 1957 847 1925 796 c 128,-1,24
 1893 745 1893 745 1840 714.5 c 128,-1,25
 1787 684 1787 684 1707 672 c 1,26,27
 1787 660 1787 660 1835 630 c 128,-1,28
 1883 600 1883 600 1909 552 c 128,-1,29
 1935 504 1935 504 1943.5 438 c 128,-1,30
 1952 372 1952 372 1952 288 c 2,31,-1
 1952 0 l 1,0,-1
384 768 m 1,32,-1
 1279 768 l 2,33,34
 1407 768 1407 768 1494.5 772.5 c 128,-1,35
 1582 777 1582 777 1639 789 c 128,-1,36
 1696 801 1696 801 1727 823 c 128,-1,37
 1758 845 1758 845 1772.5 881 c 128,-1,38
 1787 917 1787 917 1789.5 967.5 c 128,-1,39
 1792 1018 1792 1018 1792 1088 c 0,40,41
 1792 1153 1792 1153 1789.5 1200 c 128,-1,42
 1787 1247 1787 1247 1772.5 1279 c 128,-1,43
 1758 1311 1758 1311 1727 1330 c 128,-1,44
 1696 1349 1696 1349 1639 1359.5 c 128,-1,45
 1582 1370 1582 1370 1494.5 1373 c 128,-1,46
 1407 1376 1407 1376 1279 1376 c 2,47,-1
 384 1376 l 1,48,-1
 384 768 l 1,32,-1
EndSplineSet
EndChar

StartChar: S
Encoding: 83 83 58
Width: 1984
GlyphClass: 2
Flags: W
HStem: -36 164<420.282 1490.75> 704 160<1160 1160 1431 1543.98> 1152 21G<1664 1856> 1408 160<486.498 1564.72>
VStem: 128 192<216.582 384 960.18 1287.28> 1664 192<257.456 606.082 1152 1320.37>
LayerCount: 2
Fore
SplineSet
1160 864 m 2,0,1
 1318 864 1318 864 1431 851 c 128,-1,2
 1544 838 1544 838 1621.5 812.5 c 128,-1,3
 1699 787 1699 787 1745 749 c 128,-1,4
 1791 711 1791 711 1816 662.5 c 128,-1,5
 1841 614 1841 614 1848.5 554 c 128,-1,6
 1856 494 1856 494 1856 424 c 256,7,8
 1856 354 1856 354 1843.5 292.5 c 128,-1,9
 1831 231 1831 231 1799 180 c 128,-1,10
 1767 129 1767 129 1712 89 c 128,-1,11
 1657 49 1657 49 1572 21 c 128,-1,12
 1487 -7 1487 -7 1367.5 -21.5 c 128,-1,13
 1248 -36 1248 -36 1088 -36 c 2,14,-1
 832 -36 l 2,15,16
 688 -36 688 -36 580 -25 c 128,-1,17
 472 -14 472 -14 394 8.5 c 128,-1,18
 316 31 316 31 265 65.5 c 128,-1,19
 214 100 214 100 183.5 146.5 c 128,-1,20
 153 193 153 193 141 252.5 c 128,-1,21
 129 312 129 312 129 384 c 1,22,-1
 321 384 l 1,23,24
 321 294 321 294 347 243 c 128,-1,25
 373 192 373 192 433 166.5 c 128,-1,26
 493 141 493 141 590.5 134.5 c 128,-1,27
 688 128 688 128 832 128 c 2,28,-1
 1088 128 l 2,29,30
 1256 128 1256 128 1367 144 c 128,-1,31
 1478 160 1478 160 1544 195 c 128,-1,32
 1610 230 1610 230 1637 286.5 c 128,-1,33
 1664 343 1664 343 1664 424 c 256,34,35
 1664 505 1664 505 1645.5 559 c 128,-1,36
 1627 613 1627 613 1572.5 645 c 128,-1,37
 1518 677 1518 677 1419 690.5 c 128,-1,38
 1320 704 1320 704 1160 704 c 2,39,-1
 896 704 l 2,40,41
 720 704 720 704 594.5 717 c 128,-1,42
 469 730 469 730 384 754.5 c 128,-1,43
 299 779 299 779 248 815.5 c 128,-1,44
 197 852 197 852 170.5 899 c 128,-1,45
 144 946 144 946 136 1003.5 c 128,-1,46
 128 1061 128 1061 128 1128 c 0,47,48
 128 1198 128 1198 140.5 1258 c 128,-1,49
 153 1318 153 1318 187 1366.5 c 128,-1,50
 221 1415 221 1415 280 1453 c 128,-1,51
 339 1491 339 1491 431.5 1516.5 c 128,-1,52
 524 1542 524 1542 654 1555 c 128,-1,53
 784 1568 784 1568 960 1568 c 2,54,-1
 1152 1568 l 2,55,56
 1296 1568 1296 1568 1404 1557.5 c 128,-1,57
 1512 1547 1512 1547 1590 1524.5 c 128,-1,58
 1668 1502 1668 1502 1719.5 1468.5 c 128,-1,59
 1771 1435 1771 1435 1801.5 1388.5 c 128,-1,60
 1832 1342 1832 1342 1844 1283 c 128,-1,61
 1856 1224 1856 1224 1856 1152 c 1,62,-1
 1664 1152 l 1,63,64
 1664 1242 1664 1242 1638 1293 c 128,-1,65
 1612 1344 1612 1344 1552 1369.5 c 128,-1,66
 1492 1395 1492 1395 1394 1401.5 c 128,-1,67
 1296 1408 1296 1408 1152 1408 c 2,68,-1
 960 1408 l 2,69,70
 768 1408 768 1408 644 1394.5 c 128,-1,71
 520 1381 520 1381 448 1349 c 128,-1,72
 376 1317 376 1317 348 1263 c 128,-1,73
 320 1209 320 1209 320 1128 c 0,74,75
 320 1078 320 1078 327 1039 c 128,-1,76
 334 1000 334 1000 355.5 970.5 c 128,-1,77
 377 941 377 941 416 921 c 128,-1,78
 455 901 455 901 519 888 c 128,-1,79
 583 875 583 875 675.5 869.5 c 128,-1,80
 768 864 768 864 896 864 c 2,81,-1
 1160 864 l 2,0,1
EndSplineSet
EndChar

StartChar: T
Encoding: 84 84 59
Width: 1984
GlyphClass: 2
Flags: W
HStem: 0 21G<896 1088> 1376 160<128 896 1088 1856>
VStem: 896 192<0 1376>
LayerCount: 2
Fore
SplineSet
1856 1536 m 1,0,-1
 1856 1376 l 1,1,-1
 1088 1376 l 1,2,-1
 1088 0 l 1,3,-1
 896 0 l 1,4,-1
 896 1376 l 1,5,-1
 128 1376 l 1,6,-1
 128 1536 l 1,7,-1
 1856 1536 l 1,0,-1
EndSplineSet
EndChar

StartChar: U
Encoding: 85 85 60
Width: 2113
GlyphClass: 2
Flags: W
HStem: -32 160<457.678 1656.32> 1516 20G<129 321 1792 1985>
VStem: 129 192<265.621 1536> 1793 192<265.621 1536>
LayerCount: 2
Fore
SplineSet
1985 1536 m 1,0,-1
 1985 768 l 2,1,2
 1985 632 1985 632 1981.5 520 c 128,-1,3
 1978 408 1978 408 1958.5 319 c 128,-1,4
 1939 230 1939 230 1897 164 c 128,-1,5
 1855 98 1855 98 1777 54.5 c 128,-1,6
 1699 11 1699 11 1578.5 -10.5 c 128,-1,7
 1458 -32 1458 -32 1282 -32 c 2,8,-1
 832 -32 l 2,9,10
 656 -32 656 -32 535.5 -10.5 c 128,-1,11
 415 11 415 11 337 54.5 c 128,-1,12
 259 98 259 98 216.5 164 c 128,-1,13
 174 230 174 230 154.5 319 c 128,-1,14
 135 408 135 408 132 520 c 128,-1,15
 129 632 129 632 129 768 c 2,16,-1
 129 1536 l 1,17,-1
 321 1536 l 1,18,-1
 321 768 l 2,19,20
 321 624 321 624 323.5 520.5 c 128,-1,21
 326 417 326 417 340 346 c 128,-1,22
 354 275 354 275 384.5 232 c 128,-1,23
 415 189 415 189 472 166 c 128,-1,24
 529 143 529 143 616.5 135.5 c 128,-1,25
 704 128 704 128 832 128 c 2,26,-1
 1282 128 l 2,27,28
 1409 128 1409 128 1497 135.5 c 128,-1,29
 1585 143 1585 143 1641.5 166 c 128,-1,30
 1698 189 1698 189 1729 232 c 128,-1,31
 1760 275 1760 275 1774.5 346 c 128,-1,32
 1789 417 1789 417 1791 520.5 c 128,-1,33
 1793 624 1793 624 1793 768 c 2,34,-1
 1792 1536 l 1,35,-1
 1985 1536 l 1,0,-1
EndSplineSet
EndChar

StartChar: V
Encoding: 86 86 61
Width: 2048
GlyphClass: 2
Flags: W
HStem: 0 128<896 1152> 1516 20G<64 298.455 1749.55 1984>
DStem2: 288 1536 64 1536 0.476283 -0.879292<0 1588.59> 1024 128 1152 0 0.476283 0.879292<0 1588.59>
LayerCount: 2
Fore
SplineSet
1760 1536 m 1,0,-1
 1984 1536 l 1,1,-1
 1152 0 l 1,2,-1
 896 0 l 1,3,-1
 64 1536 l 1,4,-1
 288 1536 l 1,5,-1
 1024 128 l 1,6,-1
 1760 1536 l 1,0,-1
EndSplineSet
EndChar

StartChar: W
Encoding: 87 87 62
Width: 3328
GlyphClass: 2
Flags: W
HStem: 0 21G<822 1097.05 2294.95 2569.17> 1344 192<1584 1808>
DStem2: 288 1536 64 1536 0.447214 -0.894427<0 1531.26> 960 160 1088 0 0.413005 0.910729<0 1382.27> 1808 1536 1696 1344 0.413005 -0.910729<128.603 1510.88> 2432 160 2560 0 0.416655 0.909065<0 1504.2>
LayerCount: 2
Fore
SplineSet
1584 1536 m 1,0,-1
 1808 1536 l 1,1,-1
 2432 160 l 1,2,-1
 3040 1536 l 1,3,-1
 3264 1536 l 1,4,-1
 2560 0 l 1,5,-1
 2304 0 l 1,6,-1
 1696 1344 l 1,7,-1
 1088 0 l 1,8,-1
 832 0 l 1,9,-1
 64 1536 l 1,10,-1
 288 1536 l 1,11,-1
 960 160 l 1,12,-1
 1584 1536 l 1,0,-1
EndSplineSet
EndChar

StartChar: X
Encoding: 88 88 63
Width: 2176
GlyphClass: 2
Flags: W
HStem: 0 21G<64 357.545 1817.7 2112> 1516 20G<128 422.259 1697.44 1991>
VStem: 64 272<0 272> 128 272<1264 1536> 1719 272<1264 1536> 1840 272<0 272>
DStem2: 64 0 336 0 0.732967 0.680264<199.367 1190.89 1390.26 2257.95> 400 1536 128 1536 0.744331 -0.667811<0 884.536 1086.99 2097.59>
LayerCount: 2
Fore
SplineSet
1209 810 m 1,0,-1
 2112 0 l 1,1,-1
 1840 0 l 1,2,-1
 1075 686 l 1,3,-1
 336 0 l 1,4,-1
 64 0 l 1,5,-1
 937 810 l 1,6,-1
 128 1536 l 1,7,-1
 400 1536 l 1,8,-1
 1070 934 l 1,9,-1
 1719 1536 l 1,10,-1
 1991 1536 l 1,11,-1
 1209 810 l 1,0,-1
EndSplineSet
EndChar

StartChar: Y
Encoding: 89 89 64
Width: 2200
GlyphClass: 2
Flags: W
HStem: 0 784<600 1576> 1516 20G<128 402.723 1773.28 2048>
VStem: 128 256<1280 1536> 992 192<0 640> 1792 256<1280 1536>
DStem2: 384 1536 128 1536 0.694136 -0.719844<0 1029.99> 1088 784 1184 640 0.694136 0.719844<0 1029.99>
CounterMasks: 1 38
LayerCount: 2
Fore
SplineSet
128 1536 m 1,0,-1
 384 1536 l 1,1,-1
 1088 784 l 1,2,-1
 1792 1536 l 1,3,-1
 2048 1536 l 1,4,-1
 1184 640 l 1,5,-1
 1184 0 l 1,6,-1
 992 0 l 1,7,-1
 992 640 l 1,8,-1
 128 1536 l 1,0,-1
EndSplineSet
EndChar

StartChar: Z
Encoding: 90 90 65
Width: 2046
GlyphClass: 2
Flags: HW
HStem: 0 160<464 1920> 1376 160<192 1584>
LayerCount: 2
Fore
SplineSet
128 0 m 1,0,-1
 128 160 l 1,1,-1
 1614 1376 l 1,2,-1
 192 1376 l 1,3,-1
 192 1536 l 1,4,-1
 1888 1536 l 1,5,-1
 1888 1376 l 1,6,-1
 394 160 l 5,7,-1
 1920 160 l 1,8,-1
 1920 0 l 1,9,-1
 128 0 l 1,0,-1
EndSplineSet
EndChar

StartChar: bracketleft
Encoding: 91 91 66
Width: 832
GlyphClass: 2
Flags: W
HStem: 0 160<320 704> 1376 160<320 704>
VStem: 128 192<160 1376>
LayerCount: 2
Fore
SplineSet
128 1536 m 1,0,-1
 704 1536 l 1,1,-1
 704 1376 l 1,2,-1
 320 1376 l 1,3,-1
 320 160 l 1,4,-1
 704 160 l 1,5,-1
 704 0 l 1,6,-1
 128 0 l 1,7,-1
 128 1536 l 1,0,-1
EndSplineSet
EndChar

StartChar: backslash
Encoding: 92 92 67
Width: 1023
GlyphClass: 2
Flags: W
HStem: 0 21G<758.833 960> 1516 20G<64 265.167>
DStem2: 256 1536 64 1536 0.416655 -0.909065<0 1609.65>
LayerCount: 2
Fore
SplineSet
960 0 m 1,0,-1
 768 0 l 1,1,-1
 64 1536 l 1,2,-1
 256 1536 l 1,3,-1
 960 0 l 1,0,-1
EndSplineSet
EndChar

StartChar: bracketright
Encoding: 93 93 68
Width: 832
GlyphClass: 2
Flags: W
HStem: 0 160<128 512> 1376 160<128 512>
VStem: 512 192<160 1376>
LayerCount: 2
Fore
SplineSet
704 0 m 1,0,-1
 128 0 l 1,1,-1
 128 160 l 1,2,-1
 512 160 l 1,3,-1
 512 1376 l 1,4,-1
 128 1376 l 1,5,-1
 128 1536 l 1,6,-1
 704 1536 l 1,7,-1
 704 0 l 1,0,-1
EndSplineSet
EndChar

StartChar: asciicircum
Encoding: 94 94 69
Width: 1088
GlyphClass: 2
Flags: W
HStem: 1408 128<448 640>
DStem2: 64 992 192 896 0.576683 0.816968<0 616.667> 640 1536 544 1408 0.576683 -0.816968<49.2103 665.877>
LayerCount: 2
Fore
SplineSet
544 1408 m 1,0,-1
 192 896 l 1,1,-1
 64 992 l 1,2,-1
 448 1536 l 1,3,-1
 640 1536 l 1,4,-1
 1024 992 l 1,5,-1
 896 896 l 1,6,-1
 544 1408 l 1,0,-1
EndSplineSet
EndChar

StartChar: underscore
Encoding: 95 95 70
Width: 1088
GlyphClass: 2
Flags: W
HStem: -160 160<0 1088>
LayerCount: 2
Fore
SplineSet
0 0 m 1,0,-1
 1088 0 l 1,1,-1
 1088 -160 l 1,2,-1
 0 -160 l 1,3,-1
 0 0 l 1,0,-1
EndSplineSet
EndChar

StartChar: grave
Encoding: 96 96 71
Width: 960
GlyphClass: 2
Flags: W
HStem: 1280 576
LayerCount: 2
Fore
SplineSet
128 1664 m 1,0,-1
 256 1856 l 1,1,-1
 832 1376 l 1,2,-1
 768 1280 l 1,3,-1
 128 1664 l 1,0,-1
EndSplineSet
EndChar

StartChar: a
Encoding: 97 97 72
Width: 1595
GlyphClass: 2
Flags: W
HStem: -24 152<385.015 1120.92> 0 21G<1275 1467> 496 163<363.307 1156.91> 1024 160<444.363 1138.34>
VStem: 123 192<206.712 430.943> 187 192<852 938.448> 1275 192<0 158 208.73 400.45 544 875.489>
LayerCount: 2
Fore
SplineSet
1275 158 m 1,0,1
 1271.98486894 145.785667122 1271.98486894 145.785667122 1230.5 97.5 c 0,2,3
 1200 62 1200 62 1150 34.5 c 128,-1,4
 1100 7 1100 7 1016.5 -8.5 c 128,-1,5
 933 -24 933 -24 797 -24 c 0,6,7
 616 -24 616 -24 488 -5.5 c 128,-1,8
 360 13 360 13 279 51.5 c 128,-1,9
 198 90 198 90 160.5 150 c 128,-1,10
 123 210 123 210 123 293 c 0,11,12
 123 380 123 380 143.5 440.5 c 128,-1,13
 164 501 164 501 203.5 542 c 128,-1,14
 243 583 243 583 299 606 c 128,-1,15
 355 629 355 629 426.5 641 c 128,-1,16
 498 653 498 653 583 656 c 128,-1,17
 668 659 668 659 764 659 c 0,18,19
 901 659 901 659 993 647.5 c 128,-1,20
 1085 636 1085 636 1143.5 618.5 c 128,-1,21
 1202 601 1202 601 1232 581 c 128,-1,22
 1262 561 1262 561 1275 544 c 1,23,24
 1275 656 1275 656 1265.5 735 c 128,-1,25
 1256 814 1256 814 1234.5 867 c 128,-1,26
 1213 920 1213 920 1179 951.5 c 128,-1,27
 1145 983 1145 983 1095.5 999 c 128,-1,28
 1046 1015 1046 1015 980 1019.5 c 128,-1,29
 914 1024 914 1024 829 1024 c 0,30,31
 697 1024 697 1024 610 1017.5 c 128,-1,32
 523 1011 523 1011 472 992 c 128,-1,33
 421 973 421 973 400 939.5 c 128,-1,34
 379 906 379 906 379 852 c 1,35,-1
 187 852 l 1,36,37
 187 943 187 943 219.5 1006 c 128,-1,38
 252 1069 252 1069 327.5 1108.5 c 128,-1,39
 403 1148 403 1148 526 1166 c 128,-1,40
 649 1184 649 1184 829 1184 c 0,41,42
 1005 1184 1005 1184 1127 1155 c 128,-1,43
 1249 1126 1249 1126 1324.5 1053 c 128,-1,44
 1400 980 1400 980 1433.5 856.5 c 128,-1,45
 1467 733 1467 733 1467 544 c 2,46,-1
 1467 0 l 1,47,-1
 1275 0 l 1,48,-1
 1275 158 l 1,0,1
829 128 m 0,49,50
 956 128 956 128 1041.5 140 c 128,-1,51
 1127 152 1127 152 1179 176 c 128,-1,52
 1231 200 1231 200 1253 236 c 128,-1,53
 1275 272 1275 272 1275 320 c 256,54,55
 1275 368 1275 368 1249.5 401.5 c 128,-1,56
 1224 435 1224 435 1164.5 456 c 128,-1,57
 1105 477 1105 477 1007 486.5 c 128,-1,58
 909 496 909 496 765 496 c 256,59,60
 621 496 621 496 532.5 491 c 128,-1,61
 444 486 444 486 396 468 c 128,-1,62
 348 450 348 450 331.5 415 c 128,-1,63
 315 380 315 380 315 320 c 256,64,65
 315 260 315 260 332.5 222.5 c 128,-1,66
 350 185 350 185 404 164 c 128,-1,67
 458 143 458 143 559.5 135.5 c 128,-1,68
 661 128 661 128 829 128 c 0,49,50
EndSplineSet
EndChar

StartChar: b
Encoding: 98 98 73
Width: 1632
GlyphClass: 2
Flags: HW
HStem: -22 150<471.943 1194.7> 0 21G<128 320> 1023 161<476.375 1194.7> 1516 20G<128 320>
VStem: 128 192<0 127 281.217 865.656 1043 1536> 1344 192<266.878 883.5>
LayerCount: 2
Fore
SplineSet
832 -22 m 0,0,1
 694 -22 694 -22 602.5 -3.5 c 128,-1,2
 511 15 511 15 453 36.5 c 132,-1,3
 395 58 395 58 365 104.5 c 128,-1,4
 335 151 335 151 320 177 c 1,5,-1
 320 0 l 1,6,-1
 128 0 l 1,7,-1
 128 1536 l 1,8,-1
 320 1536 l 1,9,-1
 320 1043 l 1,10,11
 333 1064 333 1064 363.5 1088.5 c 128,-1,12
 394 1113 394 1113 452.5 1134.5 c 128,-1,13
 511 1156 511 1156 603 1170 c 128,-1,14
 695 1184 695 1184 832 1184 c 0,15,16
 1024 1184 1024 1184 1158 1155 c 128,-1,17
 1292 1126 1292 1126 1376 1056 c 128,-1,18
 1460 986 1460 986 1498 868.5 c 128,-1,19
 1536 751 1536 751 1536 574 c 0,20,21
 1536 400 1536 400 1498 285 c 128,-1,22
 1460 170 1460 170 1376 102 c 128,-1,23
 1292 34 1292 34 1158 6 c 128,-1,24
 1024 -22 1024 -22 832 -22 c 0,0,1
832 128 m 0,25,26
 944 128 944 128 1025.5 135 c 128,-1,27
 1107 142 1107 142 1164 160 c 128,-1,28
 1221 178 1221 178 1256.5 210 c 128,-1,29
 1292 242 1292 242 1311.5 291.5 c 128,-1,30
 1331 341 1331 341 1337.5 410.5 c 128,-1,31
 1344 480 1344 480 1344 574 c 256,32,33
 1344 668 1344 668 1337.5 738 c 128,-1,34
 1331 808 1331 808 1311.5 857.5 c 128,-1,35
 1292 907 1292 907 1256.5 939.5 c 128,-1,36
 1221 972 1221 972 1164 990.5 c 128,-1,37
 1107 1009 1107 1009 1025.5 1016 c 128,-1,38
 944 1023 944 1023 832 1023 c 0,39,40
 736 1023 736 1023 661 1018.5 c 128,-1,41
 586 1014 586 1014 529 998 c 128,-1,42
 472 982 472 982 432.5 952 c 128,-1,43
 393 922 393 922 368 872 c 128,-1,44
 343 822 343 822 331.5 748 c 128,-1,45
 320 674 320 674 320 571 c 0,46,47
 320 469 320 469 331.5 396.5 c 128,-1,48
 343 324 343 324 368 275 c 128,-1,49
 393 226 393 226 432.5 196.5 c 128,-1,50
 472 167 472 167 529 152 c 128,-1,51
 586 137 586 137 661 132.5 c 128,-1,52
 736 128 736 128 832 128 c 0,25,26
EndSplineSet
EndChar

StartChar: c
Encoding: 99 99 74
Width: 1569
GlyphClass: 2
Flags: W
HStem: -22 150<428.329 1150.85> 1025 160<425.523 1161.67>
VStem: 96 193<247.469 905.852> 1247 194<204.479 384 789 954.619>
LayerCount: 2
Fore
SplineSet
96 574 m 0,0,1
 96 694 96 694 108 786 c 128,-1,2
 120 878 120 878 150.5 946 c 128,-1,3
 181 1014 181 1014 232.5 1059.5 c 128,-1,4
 284 1105 284 1105 362.5 1133 c 128,-1,5
 441 1161 441 1161 549 1173 c 128,-1,6
 657 1185 657 1185 801 1185 c 0,7,8
 993 1185 993 1185 1117 1161.5 c 128,-1,9
 1241 1138 1241 1138 1313 1089.5 c 128,-1,10
 1385 1041 1385 1041 1413 966.5 c 128,-1,11
 1441 892 1441 892 1441 789 c 1,12,-1
 1249 789 l 1,13,14
 1249 826 1249 826 1247 858 c 128,-1,15
 1245 890 1245 890 1232.5 916 c 128,-1,16
 1220 942 1220 942 1193 962.5 c 128,-1,17
 1166 983 1166 983 1116 997 c 128,-1,18
 1066 1011 1066 1011 989.5 1018 c 128,-1,19
 913 1025 913 1025 801 1025 c 0,20,21
 673 1025 673 1025 585.5 1016 c 128,-1,22
 498 1007 498 1007 441 986.5 c 128,-1,23
 384 966 384 966 353 931.5 c 128,-1,24
 322 897 322 897 308 847 c 128,-1,25
 294 797 294 797 291.5 729.5 c 128,-1,26
 289 662 289 662 289 574 c 0,27,28
 289 488 289 488 291.5 421.5 c 128,-1,29
 294 355 294 355 308 305.5 c 128,-1,30
 322 256 322 256 353 222 c 128,-1,31
 384 188 384 188 441 167 c 128,-1,32
 498 146 498 146 585.5 137 c 128,-1,33
 673 128 673 128 801 128 c 0,34,35
 913 128 913 128 989.5 136 c 128,-1,36
 1066 144 1066 144 1116 159 c 128,-1,37
 1166 174 1166 174 1193 196 c 128,-1,38
 1220 218 1220 218 1232.5 246.5 c 128,-1,39
 1245 275 1245 275 1247 309.5 c 128,-1,40
 1249 344 1249 344 1249 384 c 1,41,-1
 1441 384 l 1,42,43
 1441 279 1441 279 1413 202 c 128,-1,44
 1385 125 1385 125 1313 75.5 c 128,-1,45
 1241 26 1241 26 1117 2 c 128,-1,46
 993 -22 993 -22 801 -22 c 0,47,48
 657 -22 657 -22 549 -10 c 128,-1,49
 441 2 441 2 362.5 29.5 c 128,-1,50
 284 57 284 57 232.5 102 c 128,-1,51
 181 147 181 147 150.5 213 c 128,-1,52
 120 279 120 279 108 368.5 c 128,-1,53
 96 458 96 458 96 574 c 0,0,1
EndSplineSet
EndChar

StartChar: d
Encoding: 100 100 75
Width: 1632
GlyphClass: 2
Flags: WO
HStem: -22 150<437.301 1106.55> 0 21G<1312 1504> 1024 160<437.301 1159.4> 1516 20G<1312 1504>
VStem: 96 192<266.878 886.63> 1312 192<0 171 281.217 870.094 1044 1536>
LayerCount: 2
Fore
SplineSet
800 -22 m 0,0,1
 608 -22 608 -22 474 6 c 128,-1,2
 340 34 340 34 256 102 c 128,-1,3
 172 170 172 170 134 285 c 128,-1,4
 96 400 96 400 96 574 c 0,5,6
 96 754 96 754 134 872 c 128,-1,7
 172 990 172 990 256 1059 c 128,-1,8
 340 1128 340 1128 474 1156 c 128,-1,9
 608 1184 608 1184 800 1184 c 0,10,11
 936 1184 936 1184 1028 1170 c 128,-1,12
 1120 1156 1120 1156 1178.5 1135 c 128,-1,13
 1237 1114 1237 1114 1267.5 1089.5 c 128,-1,14
 1298 1065 1298 1065 1312 1044 c 1,15,-1
 1312 1536 l 1,16,-1
 1504 1536 l 1,17,-1
 1504 0 l 1,18,-1
 1312 0 l 1,19,-1
 1312 171 l 1,20,21
 1264.5 114 l 0,22,23
 1222 73 1222 73 1171 48 c 128,-1,24
 1120 23 1120 23 1028 0.5 c 128,-1,25
 936 -22 936 -22 800 -22 c 0,0,1
800 128 m 0,26,27
 896 128 896 128 971 132.5 c 128,-1,28
 1046 137 1046 137 1103 152 c 128,-1,29
 1160 167 1160 167 1199.5 196.5 c 128,-1,30
 1239 226 1239 226 1264 275 c 128,-1,31
 1289 324 1289 324 1300.5 396.5 c 128,-1,32
 1312 469 1312 469 1312 571 c 0,33,34
 1312 677 1312 677 1300.5 751.5 c 128,-1,35
 1289 826 1289 826 1264 876.5 c 128,-1,36
 1239 927 1239 927 1199.5 956 c 128,-1,37
 1160 985 1160 985 1103 1000.5 c 128,-1,38
 1046 1016 1046 1016 971 1020 c 128,-1,39
 896 1024 896 1024 800 1024 c 0,40,41
 688 1024 688 1024 606.5 1017 c 128,-1,42
 525 1010 525 1010 468 992 c 128,-1,43
 411 974 411 974 375.5 942 c 128,-1,44
 340 910 340 910 320.5 860 c 128,-1,45
 301 810 301 810 294.5 739.5 c 128,-1,46
 288 669 288 669 288 574 c 0,47,48
 288 480 288 480 294.5 410.5 c 128,-1,49
 301 341 301 341 320.5 291.5 c 128,-1,50
 340 242 340 242 375.5 210 c 128,-1,51
 411 178 411 178 468 160 c 128,-1,52
 525 142 525 142 606.5 135 c 128,-1,53
 688 128 688 128 800 128 c 0,26,27
EndSplineSet
EndChar

StartChar: e
Encoding: 101 101 76
Width: 1568
GlyphClass: 2
Flags: W
HStem: -22 150<428.741 1174.24> 528 128<288 1248> 1024 160<429.45 1094.62>
VStem: 96 192<266.604 528 656 875.489> 1248 192<193.714 320 656 880.61>
LayerCount: 2
Fore
SplineSet
800 -22 m 0,0,1
 608 -22 608 -22 474 4.5 c 128,-1,2
 340 31 340 31 256 96 c 128,-1,3
 172 161 172 161 134 270 c 128,-1,4
 96 379 96 379 96 544 c 0,5,6
 96 733 96 733 134 856.5 c 128,-1,7
 172 980 172 980 256 1053 c 128,-1,8
 340 1126 340 1126 474 1155 c 128,-1,9
 608 1184 608 1184 800 1184 c 0,10,11
 937 1184 937 1184 1037.5 1164 c 128,-1,12
 1138 1144 1138 1144 1209.5 1106 c 128,-1,13
 1281 1068 1281 1068 1325.5 1014 c 128,-1,14
 1370 960 1370 960 1395.5 900.5 c 128,-1,15
 1421 841 1421 841 1430.5 761 c 128,-1,16
 1440 681 1440 681 1440 592 c 1,17,-1
 1424 528 l 1,18,-1
 288 528 l 1,19,20
 288 396 288 396 314 311.5 c 128,-1,21
 340 227 340 227 400 188 c 128,-1,22
 460 149 460 149 558 138.5 c 128,-1,23
 656 128 656 128 800 128 c 0,24,25
 932 128 932 128 1018.5 135.5 c 128,-1,26
 1105 143 1105 143 1156 164 c 128,-1,27
 1207 185 1207 185 1227.5 222.5 c 128,-1,28
 1248 260 1248 260 1248 320 c 1,29,-1
 1440 320 l 1,30,31
 1440 227 1440 227 1407.5 161.5 c 128,-1,32
 1375 96 1375 96 1300 55.5 c 128,-1,33
 1225 15 1225 15 1102.5 -3.5 c 128,-1,34
 980 -22 980 -22 800 -22 c 0,0,1
800 1024 m 0,35,36
 704 1024 704 1024 628.5 1020 c 128,-1,37
 553 1016 553 1016 496.5 1002.5 c 128,-1,38
 440 989 440 989 400 963.5 c 128,-1,39
 360 938 360 938 335.5 903.5 c 128,-1,40
 311 869 311 869 299.5 806.5 c 128,-1,41
 288 744 288 744 288 656 c 1,42,-1
 1248 656 l 1,43,44
 1248 773 1248 773 1223 839.5 c 128,-1,45
 1198 906 1198 906 1144 949 c 128,-1,46
 1090 992 1090 992 1005 1008 c 128,-1,47
 920 1024 920 1024 800 1024 c 0,35,36
EndSplineSet
EndChar

StartChar: f
Encoding: 102 102 77
Width: 1056
GlyphClass: 2
Flags: HW
HStem: 0 21G<320 512> 1024 128<128 320 512 1056> 1408 160<564.094 1056>
VStem: 320 192<0 1024 1152 1354.55>
LayerCount: 2
Fore
SplineSet
512 1006 m 5,0,-1
 512 0 l 1,1,-1
 320 0 l 1,2,-1
 320 1006 l 5,3,-1
 128 1006 l 5,4,-1
 128 1152 l 1,5,-1
 320 1152 l 1,6,-1
 320 1162 l 2,7,8
 320 1279 320 1279 346 1357 c 128,-1,9
 372 1435 372 1435 432 1482 c 128,-1,10
 492 1529 492 1529 590.5 1548.5 c 128,-1,11
 689 1568 689 1568 833 1568 c 2,12,-1
 1056 1568 l 1,13,-1
 1056 1408 l 1,14,-1
 832 1408 l 2,15,16
 741 1408 741 1408 680 1404 c 128,-1,17
 619 1400 619 1400 581.5 1377 c 128,-1,18
 544 1354 544 1354 528 1304 c 128,-1,19
 512 1254 512 1254 512 1162 c 2,20,-1
 512 1152 l 1,21,-1
 1056 1152 l 1,22,-1
 1056 1006 l 5,23,-1
 512 1006 l 5,0,-1
EndSplineSet
EndChar

StartChar: g
Encoding: 103 103 78
Width: 1632
GlyphClass: 2
Flags: W
HStem: -421 160<396.237 1170.59> -32 160<437.301 1147.16> 1024 160<437.301 1161.38> 1132 20G<1312 1504>
VStem: 96 192<265.302 886.63> 1312 192<-125.896 128 282.781 872.217 1045 1152>
LayerCount: 2
Fore
SplineSet
800 1024 m 0,0,1
 688 1024 688 1024 606.5 1017 c 128,-1,2
 525 1010 525 1010 468 992 c 128,-1,3
 411 974 411 974 375.5 942 c 128,-1,4
 340 910 340 910 320.5 860 c 128,-1,5
 301 810 301 810 294.5 739.5 c 128,-1,6
 288 669 288 669 288 574 c 0,7,8
 288 480 288 480 294.5 410.5 c 128,-1,9
 301 341 301 341 320.5 291.5 c 128,-1,10
 340 242 340 242 375.5 210 c 128,-1,11
 411 178 411 178 468 160 c 128,-1,12
 525 142 525 142 606.5 135 c 128,-1,13
 688 128 688 128 800 128 c 0,14,15
 896 128 896 128 971 132.5 c 128,-1,16
 1046 137 1046 137 1103 152.5 c 128,-1,17
 1160 168 1160 168 1199.5 197.5 c 128,-1,18
 1239 227 1239 227 1264 276.5 c 128,-1,19
 1289 326 1289 326 1300.5 399.5 c 128,-1,20
 1312 473 1312 473 1312 577 c 256,21,22
 1312 681 1312 681 1300.5 755 c 128,-1,23
 1289 829 1289 829 1264 878.5 c 128,-1,24
 1239 928 1239 928 1199.5 957 c 128,-1,25
 1160 986 1160 986 1103 1001 c 128,-1,26
 1046 1016 1046 1016 971 1020 c 128,-1,27
 896 1024 896 1024 800 1024 c 0,0,1
1504 160 m 2,28,29
 1504 -8 1504 -8 1466 -119 c 128,-1,30
 1428 -230 1428 -230 1344 -298.5 c 128,-1,31
 1260 -367 1260 -367 1126 -394 c 128,-1,32
 992 -421 992 -421 800 -421 c 0,33,34
 620 -421 620 -421 497.5 -405 c 128,-1,35
 375 -389 375 -389 300 -354.5 c 128,-1,36
 225 -320 225 -320 192.5 -265.5 c 128,-1,37
 160 -211 160 -211 160 -133 c 1,38,-1
 352 -133 l 1,39,40
 352 -172 352 -172 372.5 -197 c 128,-1,41
 393 -222 393 -222 444 -236 c 128,-1,42
 495 -250 495 -250 581.5 -255.5 c 128,-1,43
 668 -261 668 -261 800 -261 c 0,44,45
 944 -261 944 -261 1042 -250.5 c 128,-1,46
 1140 -240 1140 -240 1200 -201 c 128,-1,47
 1260 -162 1260 -162 1286 -83 c 128,-1,48
 1312 -4 1312 -4 1312 128 c 1,49,50
 1298 104 1298 104 1267.5 76 c 128,-1,51
 1237 48 1237 48 1178.5 24 c 128,-1,52
 1120 0 1120 0 1028 -16 c 128,-1,53
 936 -32 936 -32 800 -32 c 0,54,55
 608 -32 608 -32 474 -3.5 c 128,-1,56
 340 25 340 25 256 94 c 128,-1,57
 172 163 172 163 134 280 c 128,-1,58
 96 397 96 397 96 574 c 0,59,60
 96 754 96 754 134 872 c 128,-1,61
 172 990 172 990 256 1059 c 128,-1,62
 340 1128 340 1128 474 1156 c 128,-1,63
 608 1184 608 1184 800 1184 c 0,64,65
 936 1184 936 1184 1028 1170 c 128,-1,66
 1120 1156 1120 1156 1178.5 1135 c 128,-1,67
 1237 1114 1237 1114 1267.5 1089.5 c 128,-1,68
 1298 1065 1298 1065 1312 1045 c 1,69,-1
 1312 1152 l 1,70,-1
 1504 1152 l 1,71,-1
 1504 160 l 2,28,29
EndSplineSet
EndChar

StartChar: h
Encoding: 104 104 79
Width: 1601
GlyphClass: 2
Flags: W
HStem: 0 21G<128 320 1280 1472.03> 1024 160<537.832 1139.19> 1516 20G<128 320>
VStem: 128 192<0 884.589 970 1536> 1280 192<0 897.236>
LayerCount: 2
Fore
SplineSet
1280 0 m 1,0,-1
 1280 650 l 2,1,2
 1280 754 1280 754 1264 825.5 c 128,-1,3
 1248 897 1248 897 1200 941 c 128,-1,4
 1152 985 1152 985 1064 1004.5 c 128,-1,5
 976 1024 976 1024 832 1024 c 0,6,7
 676 1024 676 1024 576.5 1001.5 c 128,-1,8
 477 979 477 979 420 938.5 c 128,-1,9
 363 898 363 898 341.5 841 c 128,-1,10
 320 784 320 784 320 714 c 2,11,-1
 320 0 l 1,12,-1
 128 0 l 1,13,-1
 128 1536 l 1,14,-1
 320 1536 l 1,15,-1
 320 970 l 1,16,17
 340 1017 340 1017 377 1051 c 128,-1,18
 414 1085 414 1085 462.5 1109 c 128,-1,19
 511 1133 511 1133 567 1147.5 c 128,-1,20
 623 1162 623 1162 680.5 1170 c 128,-1,21
 738 1178 738 1178 793.5 1181 c 128,-1,22
 849 1184 849 1184 896 1184 c 0,23,24
 1024 1184 1024 1184 1116.5 1168.5 c 128,-1,25
 1209 1153 1209 1153 1273.5 1122.5 c 128,-1,26
 1338 1092 1338 1092 1377 1047 c 128,-1,27
 1416 1002 1416 1002 1437.5 942.5 c 128,-1,28
 1459 883 1459 883 1466 809.5 c 128,-1,29
 1473 736 1473 736 1473 650 c 2,30,-1
 1472 0 l 1,31,-1
 1280 0 l 1,0,-1
EndSplineSet
EndChar

StartChar: i
Encoding: 105 105 80
Width: 576
GlyphClass: 2
Flags: W
HStem: 0 21G<192 384> 1132 20G<192 384> 1344 192<192 384>
VStem: 192 192<0 1152 1344 1536>
LayerCount: 2
Fore
SplineSet
192 1152 m 1,0,-1
 384 1152 l 1,1,-1
 384 0 l 1,2,-1
 192 0 l 1,3,-1
 192 1152 l 1,0,-1
384 1344 m 1,4,-1
 192 1344 l 1,5,-1
 192 1536 l 1,6,-1
 384 1536 l 1,7,-1
 384 1344 l 1,4,-1
EndSplineSet
EndChar

StartChar: j
Encoding: 106 106 81
Width: 672
GlyphClass: 2
Flags: W
HStem: -384 160<128 263.967> 1132 20G<288 480> 1344 192<288 480>
VStem: 288 192<-202.176 1152 1344 1536>
LayerCount: 2
Fore
SplineSet
480 -64 m 2,0,1
 480 -138 480 -138 470 -197 c 128,-1,2
 460 -256 460 -256 424 -297.5 c 128,-1,3
 388 -339 388 -339 318 -361.5 c 128,-1,4
 248 -384 248 -384 128 -384 c 1,5,-1
 128 -224 l 1,6,7
 176 -224 176 -224 207 -217 c 128,-1,8
 238 -210 238 -210 256 -192 c 128,-1,9
 274 -174 274 -174 281 -143 c 128,-1,10
 288 -112 288 -112 288 -64 c 2,11,-1
 288 1152 l 1,12,-1
 480 1152 l 1,13,-1
 480 -64 l 2,0,1
480 1344 m 1,14,-1
 288 1344 l 1,15,-1
 288 1536 l 1,16,-1
 480 1536 l 1,17,-1
 480 1344 l 1,14,-1
EndSplineSet
EndChar

StartChar: k
Encoding: 107 107 82
Width: 1408
GlyphClass: 2
Flags: W
HStem: 0 21G<128 320 1093.33 1408> 552 144<320 384> 1132 20G<1057.12 1376> 1516 20G<128 320>
VStem: 128 192<0 552 696 1536> 1088 288<864 1152> 1120 288<0 288>
DStem2: 384 696 560 616 0.835813 0.549014<103.182 838.763> 560 616 384 552 0.809066 -0.587718<0 815.111>
LayerCount: 2
Fore
SplineSet
128 1536 m 1,0,-1
 320 1536 l 1,1,-1
 320 696 l 1,2,-1
 384 696 l 1,3,-1
 1088 1152 l 1,4,-1
 1376 1152 l 1,5,-1
 560 616 l 1,6,-1
 1408 0 l 1,7,-1
 1120 0 l 1,8,-1
 384 552 l 1,9,-1
 320 552 l 1,10,-1
 320 0 l 1,11,-1
 128 0 l 1,12,-1
 128 1536 l 1,0,-1
EndSplineSet
EndChar

StartChar: l
Encoding: 108 108 83
Width: 576
GlyphClass: 2
Flags: W
HStem: 0 21G<192 384> 1516 20G<192 384>
VStem: 192 192<0 1536>
LayerCount: 2
Fore
SplineSet
192 1536 m 1,0,-1
 384 1536 l 1,1,-1
 384 0 l 1,2,-1
 192 0 l 1,3,-1
 192 1536 l 1,0,-1
EndSplineSet
EndChar

StartChar: m
Encoding: 109 109 84
Width: 2496
GlyphClass: 2
Flags: W
HStem: 0 21G<128 320 1152 1344 2176 2368> 1024 160<527.463 1031.72 1538.22 2055.87> 1132 20G<128 320>
VStem: 128 192<0 890.812 970 1152> 1152 192<0 890.125> 2176 192<0 909.164>
CounterMasks: 1 1c
LayerCount: 2
Fore
SplineSet
1344 0 m 1,0,-1
 1152 0 l 1,1,-1
 1152 650 l 2,2,3
 1152 754 1152 754 1138.5 825.5 c 128,-1,4
 1125 897 1125 897 1083.5 941 c 128,-1,5
 1042 985 1042 985 966.5 1004.5 c 128,-1,6
 891 1024 891 1024 768 1024 c 0,7,8
 633 1024 633 1024 546 1001.5 c 128,-1,9
 459 979 459 979 409 938.5 c 128,-1,10
 359 898 359 898 339.5 841 c 128,-1,11
 320 784 320 784 320 714 c 2,12,-1
 320 0 l 1,13,-1
 128 0 l 1,14,-1
 128 1152 l 1,15,-1
 320 1152 l 1,16,-1
 320 970 l 1,17,18
 321 973 321 973 329 990 c 128,-1,19
 337 1007 337 1007 357.5 1030.5 c 128,-1,20
 378 1054 378 1054 413.5 1081 c 128,-1,21
 449 1108 449 1108 505.5 1131 c 128,-1,22
 562 1154 562 1154 642 1169 c 128,-1,23
 722 1184 722 1184 832 1184 c 0,24,25
 940 1184 940 1184 1019.5 1170.5 c 128,-1,26
 1099 1157 1099 1157 1155.5 1130.5 c 128,-1,27
 1212 1104 1212 1104 1247.5 1064.5 c 128,-1,28
 1283 1025 1283 1025 1304 974 c 1,29,30
 1321 1001 1321 1001 1357 1037 c 128,-1,31
 1393 1073 1393 1073 1457.5 1106 c 128,-1,32
 1522 1139 1522 1139 1619 1161.5 c 128,-1,33
 1716 1184 1716 1184 1856 1184 c 0,34,35
 1971 1184 1971 1184 2053.5 1168.5 c 128,-1,36
 2136 1153 2136 1153 2193 1122.5 c 128,-1,37
 2250 1092 2250 1092 2284.5 1047 c 128,-1,38
 2319 1002 2319 1002 2337.5 942.5 c 128,-1,39
 2356 883 2356 883 2362 809.5 c 128,-1,40
 2368 736 2368 736 2368 650 c 2,41,-1
 2368 0 l 1,42,-1
 2176 0 l 1,43,-1
 2176 650 l 2,44,45
 2176 754 2176 754 2162.5 825.5 c 128,-1,46
 2149 897 2149 897 2107.5 941 c 128,-1,47
 2066 985 2066 985 1990.5 1004.5 c 128,-1,48
 1915 1024 1915 1024 1792 1024 c 0,49,50
 1657 1024 1657 1024 1570 1001.5 c 128,-1,51
 1483 979 1483 979 1433 938.5 c 128,-1,52
 1383 898 1383 898 1363.5 841 c 128,-1,53
 1344 784 1344 784 1344 714 c 2,54,-1
 1344 0 l 1,0,-1
EndSplineSet
EndChar

StartChar: n
Encoding: 110 110 85
Width: 1601
GlyphClass: 2
Flags: W
HStem: 0 21G<128 320 1280 1472.03> 1024 160<552.906 1137.71> 1132 20G<128 320>
VStem: 128 192<0 880.132 960 1152> 1280 192<0 894.17>
LayerCount: 2
Fore
SplineSet
1280 0 m 1,0,-1
 1280 640 l 2,1,2
 1280 747 1280 747 1264 820.5 c 128,-1,3
 1248 894 1248 894 1200 939 c 128,-1,4
 1152 984 1152 984 1064 1004 c 128,-1,5
 976 1024 976 1024 832 1024 c 0,6,7
 676 1024 676 1024 576.5 1001 c 128,-1,8
 477 978 477 978 420 936 c 128,-1,9
 363 894 363 894 341.5 835 c 128,-1,10
 320 776 320 776 320 704 c 2,11,-1
 320 0 l 1,12,-1
 128 0 l 1,13,-1
 128 1152 l 1,14,-1
 320 1152 l 1,15,-1
 320 960 l 1,16,17
 341 1009 341 1009 380 1044.5 c 128,-1,18
 419 1080 419 1080 468 1105 c 128,-1,19
 517 1130 517 1130 574 1145.5 c 128,-1,20
 631 1161 631 1161 688 1169.5 c 128,-1,21
 745 1178 745 1178 798.5 1181 c 128,-1,22
 852 1184 852 1184 896 1184 c 0,23,24
 1024 1184 1024 1184 1116.5 1168 c 128,-1,25
 1209 1152 1209 1152 1273.5 1121 c 128,-1,26
 1338 1090 1338 1090 1377 1044 c 128,-1,27
 1416 998 1416 998 1437.5 937.5 c 128,-1,28
 1459 877 1459 877 1466 802.5 c 128,-1,29
 1473 728 1473 728 1473 640 c 2,30,-1
 1472 0 l 1,31,-1
 1280 0 l 1,0,-1
EndSplineSet
EndChar

StartChar: o
Encoding: 111 111 86
Width: 1600
GlyphClass: 2
Flags: W
HStem: -22 150<437.678 1154.71> 1024 160<437.301 1162.7>
VStem: 96 192<271.35 874.072> 1312 192<285.911 874.072>
LayerCount: 2
Fore
SplineSet
96 584 m 256,0,1
 96 761 96 761 134 877 c 128,-1,2
 172 993 172 993 256 1061 c 128,-1,3
 340 1129 340 1129 474 1156.5 c 128,-1,4
 608 1184 608 1184 800 1184 c 256,5,6
 992 1184 992 1184 1126 1156.5 c 128,-1,7
 1260 1129 1260 1129 1344 1061 c 128,-1,8
 1428 993 1428 993 1466 877 c 128,-1,9
 1504 761 1504 761 1504 584 c 256,10,11
 1504 407 1504 407 1466 290 c 128,-1,12
 1428 173 1428 173 1344 104 c 128,-1,13
 1260 35 1260 35 1126 6.5 c 128,-1,14
 992 -22 992 -22 800 -22 c 256,15,16
 608 -22 608 -22 474 6.5 c 128,-1,17
 340 35 340 35 256 104 c 128,-1,18
 172 173 172 173 134 290 c 128,-1,19
 96 407 96 407 96 584 c 256,0,1
288 584 m 0,20,21
 288 488 288 488 295 417 c 128,-1,22
 302 346 302 346 321.5 295 c 128,-1,23
 341 244 341 244 376 212 c 128,-1,24
 411 180 411 180 468 161 c 128,-1,25
 525 142 525 142 606.5 135 c 128,-1,26
 688 128 688 128 800 128 c 0,27,28
 896 128 896 128 971.5 132.5 c 128,-1,29
 1047 137 1047 137 1103.5 153 c 128,-1,30
 1160 169 1160 169 1200 198.5 c 128,-1,31
 1240 228 1240 228 1264.5 279 c 128,-1,32
 1289 330 1289 330 1300.5 404.5 c 128,-1,33
 1312 479 1312 479 1312 584 c 0,34,35
 1312 687 1312 687 1300.5 759.5 c 128,-1,36
 1289 832 1289 832 1264.5 881 c 128,-1,37
 1240 930 1240 930 1200 958.5 c 128,-1,38
 1160 987 1160 987 1103.5 1001.5 c 128,-1,39
 1047 1016 1047 1016 971.5 1020 c 128,-1,40
 896 1024 896 1024 800 1024 c 256,41,42
 704 1024 704 1024 628.5 1020 c 128,-1,43
 553 1016 553 1016 496.5 1001.5 c 128,-1,44
 440 987 440 987 400 958.5 c 128,-1,45
 360 930 360 930 335.5 881 c 128,-1,46
 311 832 311 832 299.5 759.5 c 128,-1,47
 288 687 288 687 288 584 c 0,20,21
EndSplineSet
EndChar

StartChar: p
Encoding: 112 112 87
Width: 1632
GlyphClass: 2
Flags: W
HStem: -384 21G<128 320> -22 150<474.871 1194.7> 1024 160<476.375 1194.36> 1132 20G<128 320>
VStem: 128 192<-384 128 282.783 868.221 1045 1152> 1344 192<266.878 883.852>
LayerCount: 2
Fore
SplineSet
832 1184 m 0,0,1
 1024 1184 1024 1184 1158 1155 c 128,-1,2
 1292 1126 1292 1126 1376 1056 c 128,-1,3
 1460 986 1460 986 1498 868.5 c 128,-1,4
 1536 751 1536 751 1536 574 c 0,5,6
 1536 400 1536 400 1498 285 c 128,-1,7
 1460 170 1460 170 1376 102 c 128,-1,8
 1292 34 1292 34 1158 6 c 128,-1,9
 1024 -22 1024 -22 832 -22 c 0,10,11
 695 -22 695 -22 603 -7 c 128,-1,12
 511 8 511 8 452.5 30.5 c 128,-1,13
 394 53 394 53 363.5 79 c 128,-1,14
 333 105 333 105 320 128 c 1,15,-1
 320 -384 l 1,16,-1
 128 -384 l 1,17,-1
 128 1152 l 1,18,-1
 320 1152 l 1,19,-1
 320 1045 l 1,20,21
 333 1065 333 1065 363.5 1089.5 c 128,-1,22
 394 1114 394 1114 452.5 1135 c 128,-1,23
 511 1156 511 1156 603 1170 c 128,-1,24
 695 1184 695 1184 832 1184 c 0,0,1
832 1024 m 0,25,26
 736 1024 736 1024 661 1019 c 128,-1,27
 586 1014 586 1014 529 998.5 c 128,-1,28
 472 983 472 983 432.5 953.5 c 128,-1,29
 393 924 393 924 368 874.5 c 128,-1,30
 343 825 343 825 331.5 752 c 128,-1,31
 320 679 320 679 320 577 c 0,32,33
 320 474 320 474 331.5 400 c 128,-1,34
 343 326 343 326 368 276.5 c 128,-1,35
 393 227 393 227 432.5 197.5 c 128,-1,36
 472 168 472 168 529 152.5 c 128,-1,37
 586 137 586 137 661 132.5 c 128,-1,38
 736 128 736 128 832 128 c 0,39,40
 944 128 944 128 1025.5 135 c 128,-1,41
 1107 142 1107 142 1164 160 c 128,-1,42
 1221 178 1221 178 1256.5 210 c 128,-1,43
 1292 242 1292 242 1311.5 291.5 c 128,-1,44
 1331 341 1331 341 1337.5 410.5 c 128,-1,45
 1344 480 1344 480 1344 574 c 256,46,47
 1344 668 1344 668 1337.5 738 c 128,-1,48
 1331 808 1331 808 1311.5 858 c 128,-1,49
 1292 908 1292 908 1256.5 940 c 128,-1,50
 1221 972 1221 972 1164 991 c 128,-1,51
 1107 1010 1107 1010 1025.5 1017 c 128,-1,52
 944 1024 944 1024 832 1024 c 0,25,26
EndSplineSet
EndChar

StartChar: q
Encoding: 113 113 88
Width: 1632
GlyphClass: 2
Flags: W
HStem: -384 21G<1312 1504> -22 150<437.638 1155.38> 1024 160<425.508 1157.13> 1132 20G<1312 1504>
VStem: 96 192<271.35 894.946> 1312 192<-384 128 286.469 879.342 1035 1152>
LayerCount: 2
Fore
SplineSet
800 1184 m 0,0,1
 936 1184 936 1184 1028 1169 c 128,-1,2
 1120 1154 1120 1154 1178.5 1131.5 c 128,-1,3
 1237 1109 1237 1109 1267.5 1083 c 128,-1,4
 1298 1057 1298 1057 1312 1035 c 1,5,-1
 1312 1152 l 1,6,-1
 1504 1152 l 1,7,-1
 1504 -384 l 1,8,-1
 1312 -384 l 1,9,-1
 1312 128 l 1,10,11
 1298 105 1298 105 1267.5 79 c 128,-1,12
 1237 53 1237 53 1178.5 30.5 c 128,-1,13
 1120 8 1120 8 1028 -7 c 128,-1,14
 936 -22 936 -22 800 -22 c 0,15,16
 608 -22 608 -22 474 6.5 c 128,-1,17
 340 35 340 35 256 104 c 128,-1,18
 172 173 172 173 134 290 c 128,-1,19
 96 407 96 407 96 584 c 256,20,21
 96 761 96 761 134 877 c 128,-1,22
 172 993 172 993 256 1061 c 128,-1,23
 340 1129 340 1129 474 1156.5 c 128,-1,24
 608 1184 608 1184 800 1184 c 0,0,1
800 1024 m 0,25,26
 688 1024 688 1024 606.5 1018 c 128,-1,27
 525 1012 525 1012 468 995 c 128,-1,28
 411 978 411 978 375.5 948 c 128,-1,29
 340 918 340 918 320.5 869 c 128,-1,30
 301 820 301 820 294.5 750 c 128,-1,31
 288 680 288 680 288 584 c 256,32,33
 288 488 288 488 294.5 417 c 128,-1,34
 301 346 301 346 320.5 295 c 128,-1,35
 340 244 340 244 375.5 212 c 128,-1,36
 411 180 411 180 468 161 c 128,-1,37
 525 142 525 142 606.5 135 c 128,-1,38
 688 128 688 128 800 128 c 0,39,40
 896 128 896 128 971 132.5 c 128,-1,41
 1046 137 1046 137 1103 153 c 128,-1,42
 1160 169 1160 169 1199.5 199 c 128,-1,43
 1239 229 1239 229 1264 280 c 128,-1,44
 1289 331 1289 331 1300.5 406 c 128,-1,45
 1312 481 1312 481 1312 587 c 0,46,47
 1312 691 1312 691 1300.5 764 c 128,-1,48
 1289 837 1289 837 1264 885.5 c 128,-1,49
 1239 934 1239 934 1199.5 962 c 128,-1,50
 1160 990 1160 990 1103 1003.5 c 128,-1,51
 1046 1017 1046 1017 971 1020.5 c 128,-1,52
 896 1024 896 1024 800 1024 c 0,25,26
EndSplineSet
EndChar

StartChar: r
Encoding: 114 114 89
Width: 1280
GlyphClass: 2
Flags: W
HStem: 0 21G<128 320> 1024 160<506.453 1049.75> 1132 20G<128 320>
VStem: 128 192<0 899.062 969 1152> 1120 160<777 959.071>
LayerCount: 2
Fore
SplineSet
1120 777 m 1,0,1
 1120 849 1120 849 1109.5 896.5 c 128,-1,2
 1099 944 1099 944 1060 972.5 c 128,-1,3
 1021 1001 1021 1001 944.5 1012.5 c 128,-1,4
 868 1024 868 1024 736 1024 c 0,5,6
 607 1024 607 1024 526 1001.5 c 128,-1,7
 445 979 445 979 399 938 c 128,-1,8
 353 897 353 897 336.5 840 c 128,-1,9
 320 783 320 783 320 713 c 2,10,-1
 320 0 l 1,11,-1
 128 0 l 1,12,-1
 128 1152 l 1,13,-1
 320 1152 l 1,14,-1
 320 969 l 1,15,16
 330 1000 330 1000 357 1037.5 c 128,-1,17
 384 1075 384 1075 439 1107.5 c 128,-1,18
 494 1140 494 1140 581.5 1162 c 128,-1,19
 669 1184 669 1184 800 1184 c 0,20,21
 950 1184 950 1184 1044 1157.5 c 128,-1,22
 1138 1131 1138 1131 1190.5 1079.5 c 128,-1,23
 1243 1028 1243 1028 1261.5 952 c 128,-1,24
 1280 876 1280 876 1280 777 c 1,25,-1
 1120 777 l 1,0,1
EndSplineSet
EndChar

StartChar: s
Encoding: 115 115 90
AltUni2: 00017f.ffffffff.0
Width: 1600
GlyphClass: 2
Flags: W
HStem: -12 140<393.947 768 972.5 1187.02> 512 160<354.558 609 991 1222.97> 1024 160<381.106 1210.23>
VStem: 128 192<192.846 320 708.733 959.017> 1280 192<200.987 344 398.5 460.044 848 934.933>
LayerCount: 2
Fore
SplineSet
800 525 m 4,0,1
 912 525 912 525 991 521.5 c 132,-1,2
 1070 518 1070 518 1123.5 509.5 c 132,-1,3
 1177 501 1177 501 1208 488 c 132,-1,4
 1239 475 1239 475 1255 449.5 c 128,-1,5
 1271 424 1271 424 1275.5 398.5 c 128,-1,6
 1280 373 1280 373 1280 340 c 0,7,8
 1280 304 1280 304 1275.5 274.5 c 128,-1,9
 1271 245 1271 245 1254 221 c 128,-1,10
 1237 197 1237 197 1204 180 c 128,-1,11
 1171 163 1171 163 1114 151 c 128,-1,12
 1057 139 1057 139 972.5 133.5 c 128,-1,13
 888 128 888 128 768 128 c 0,14,15
 636 128 636 128 549.5 135.5 c 128,-1,16
 463 143 463 143 412 164 c 128,-1,17
 361 185 361 185 340.5 222.5 c 128,-1,18
 320 260 320 260 320 320 c 1,19,-1
 128 320 l 1,20,21
 128 229 128 229 160.5 166 c 128,-1,22
 193 103 193 103 268 63.5 c 128,-1,23
 343 24 343 24 465.5 6 c 128,-1,24
 588 -12 588 -12 768 -12 c 0,25,26
 912 -12 912 -12 1020.5 -3.5 c 128,-1,27
 1129 5 1129 5 1207 22.5 c 128,-1,28
 1285 40 1285 40 1336.5 68.5 c 128,-1,29
 1388 97 1388 97 1418 136.5 c 128,-1,30
 1448 176 1448 176 1460 227.5 c 128,-1,31
 1472 279 1472 279 1472 344 c 256,32,33
 1472 409 1472 409 1460 458.5 c 128,-1,34
 1448 508 1448 508 1418.5 544.5 c 128,-1,35
 1389 581 1389 581 1340 612 c 128,-1,36
 1291 643 1291 643 1216 658 c 132,-1,37
 1141 673 1141 673 1038.5 679 c 132,-1,38
 936 685 936 685 800 685 c 4,39,40
 688 685 688 685 609 685.5 c 132,-1,41
 530 686 530 686 476.5 691.5 c 132,-1,42
 423 697 423 697 392 708 c 132,-1,43
 361 719 361 719 345 740 c 132,-1,44
 329 761 329 761 324.5 793.5 c 132,-1,45
 320 826 320 826 320 860 c 0,46,47
 320 918 320 918 346 951 c 128,-1,48
 372 984 372 984 432 1000 c 128,-1,49
 492 1016 492 1016 590 1020 c 128,-1,50
 688 1024 688 1024 832 1024 c 0,51,52
 964 1024 964 1024 1050.5 1016.5 c 128,-1,53
 1137 1009 1137 1009 1188 989.5 c 128,-1,54
 1239 970 1239 970 1259.5 936 c 128,-1,55
 1280 902 1280 902 1280 848 c 1,56,-1
 1472 848 l 1,57,58
 1472 935 1472 935 1443 998 c 128,-1,59
 1414 1061 1414 1061 1341.5 1102.5 c 128,-1,60
 1269 1144 1269 1144 1145.5 1164 c 128,-1,61
 1022 1184 1022 1184 832 1184 c 0,62,63
 640 1184 640 1184 506 1167 c 128,-1,64
 372 1150 372 1150 288 1111.5 c 128,-1,65
 204 1073 204 1073 166 1011.5 c 128,-1,66
 128 950 128 950 128 860 c 0,67,68
 128 794 128 794 140 737.5 c 132,-1,69
 152 681 152 681 181 642.5 c 132,-1,70
 210 604 210 604 259.5 581 c 132,-1,71
 309 558 309 558 383.5 545.5 c 132,-1,72
 458 533 458 533 561 529 c 132,-1,73
 664 525 664 525 800 525 c 4,0,1
EndSplineSet
EndChar

StartChar: t
Encoding: 116 116 91
Width: 1376
GlyphClass: 2
Flags: HW
HStem: 0 160<555.005 1014.7> 1001 151<64 301 493 1216>
VStem: 301 192<208.57 1001 1152 1408> 1088 160<236.683 512>
LayerCount: 2
Fore
SplineSet
1248 512 m 1,0,1
 1248 365 1248 365 1224 266.5 c 128,-1,2
 1200 168 1200 168 1143.5 109 c 128,-1,3
 1087 50 1087 50 995 25 c 128,-1,4
 903 0 903 0 768 0 c 0,5,6
 637 0 637 0 548 20 c 128,-1,7
 459 40 459 40 404 88 c 128,-1,8
 349 136 349 136 325 216 c 128,-1,9
 301 296 301 296 301 416 c 2,10,-1
 301 994 l 1,11,-1
 64 994 l 1,12,-1
 64 1152 l 1,13,-1
 301 1152 l 1,14,-1
 301 1467 l 5,15,-1
 493 1467 l 5,16,-1
 493 1152 l 1,17,-1
 1216 1152 l 1,18,-1
 1216 994 l 1,19,-1
 493 994 l 1,20,-1
 493 416 l 2,21,22
 493 320 493 320 507.5 268 c 128,-1,23
 522 216 522 216 554 192 c 128,-1,24
 586 168 586 168 638.5 164 c 128,-1,25
 691 160 691 160 767 160 c 0,26,27
 827 160 827 160 874.5 162 c 128,-1,28
 922 164 922 164 957.5 174.5 c 128,-1,29
 993 185 993 185 1018 206.5 c 128,-1,30
 1043 228 1043 228 1058.5 267 c 128,-1,31
 1074 306 1074 306 1081 365.5 c 128,-1,32
 1088 425 1088 425 1088 512 c 1,33,-1
 1248 512 l 1,0,1
EndSplineSet
EndChar

StartChar: u
Encoding: 117 117 92
Width: 1601
GlyphClass: 2
Flags: W
HStem: -22 150<463.445 1054.28> 0 21G<1281 1473> 1132 20G<128.969 321 1281 1473>
VStem: 128 193<258.006 1152> 1281 192<0 192 271.868 1152>
LayerCount: 2
Fore
SplineSet
321 1152 m 1,0,-1
 321 512 l 2,1,2
 321 405 321 405 337 331.5 c 128,-1,3
 353 258 353 258 401 213 c 128,-1,4
 449 168 449 168 537 148 c 128,-1,5
 625 128 625 128 769 128 c 0,6,7
 925 128 925 128 1024.5 151 c 128,-1,8
 1124 174 1124 174 1181 216 c 128,-1,9
 1238 258 1238 258 1259.5 317 c 128,-1,10
 1281 376 1281 376 1281 448 c 2,11,-1
 1281 1152 l 1,12,-1
 1473 1152 l 1,13,-1
 1473 0 l 1,14,-1
 1281 0 l 1,15,-1
 1281 192 l 1,16,17
 1267 161 1267 161 1234 123.5 c 128,-1,18
 1201 86 1201 86 1135 54 c 128,-1,19
 1069 22 1069 22 964.5 0 c 128,-1,20
 860 -22 860 -22 705 -22 c 0,21,22
 576 -22 576 -22 483.5 -6.5 c 128,-1,23
 391 9 391 9 326.5 39.5 c 128,-1,24
 262 70 262 70 223 115 c 128,-1,25
 184 160 184 160 163 219.5 c 128,-1,26
 142 279 142 279 135 352 c 128,-1,27
 128 425 128 425 128 512 c 2,28,-1
 129 1152 l 1,29,-1
 321 1152 l 1,0,-1
EndSplineSet
EndChar

StartChar: v
Encoding: 118 118 93
Width: 1600
GlyphClass: 2
Flags: W
HStem: 0 128<672 928>
DStem2: 288 1152 64 1152 0.466759 -0.884385<0 1144.59> 800 128 928 0 0.466759 0.884385<0 1144.59>
LayerCount: 2
Fore
SplineSet
672 0 m 1,0,-1
 928 0 l 1,1,-1
 1536 1152 l 1,2,-1
 1312 1152 l 1,3,-1
 800 128 l 1,4,-1
 288 1152 l 1,5,-1
 64 1152 l 1,6,-1
 672 0 l 1,0,-1
EndSplineSet
EndChar

StartChar: w
Encoding: 119 119 94
Width: 2240
GlyphClass: 2
Flags: W
HStem: 944 208<920 1320>
DStem2: 640 144 768 0 0.355995 0.934488<0 918.468> 1216 1152 1120 944 0.352751 -0.935717<160.765 1077.25>
LayerCount: 2
Fore
SplineSet
2176 1152 m 1,0,-1
 1952 1152 l 1,1,-1
 1596 144 l 1,2,-1
 1216 1152 l 1,3,-1
 1024 1152 l 1,4,-1
 640 144 l 1,5,-1
 288 1152 l 1,6,-1
 64 1152 l 1,7,-1
 512 0 l 1,8,-1
 768 0 l 1,9,-1
 1120 944 l 1,10,-1
 1472 0 l 1,11,-1
 1728 0 l 1,12,-1
 2176 1152 l 1,0,-1
EndSplineSet
EndChar

StartChar: x
Encoding: 120 120 95
Width: 1628
GlyphClass: 2
Flags: W
HStem: 482 210<709 919>
VStem: 96 256<0 256> 124 256<896 1152> 1248 256<896 1152> 1276 256<0 256>
DStem2: 96 0 352 0 0.707107 0.707107<181.019 832.265 1013.28 1629.17> 380 1152 124 1152 0.707107 -0.707107<0 615.89 796.909 1448.15>
LayerCount: 2
Fore
SplineSet
1276 0 m 1,0,-1
 1532 0 l 1,1,-1
 942 587 l 1,2,-1
 1504 1152 l 1,3,-1
 1248 1152 l 1,4,-1
 819 707 l 1,5,-1
 380 1152 l 1,6,-1
 124 1152 l 1,7,-1
 686 586 l 5,8,-1
 96 0 l 1,9,-1
 352 0 l 1,10,-1
 814 482 l 1,11,-1
 1276 0 l 1,0,-1
EndSplineSet
EndChar

StartChar: y
Encoding: 121 121 96
Width: 1568
GlyphClass: 2
Flags: W
HStem: -384 160<450 598.4>
DStem2: 288 1152 64 1152 0.466759 -0.884385<0 1144.59> 736 0 896 -64 0.448445 0.893811<-224.709 0 143.108 1063.98>
LayerCount: 2
Fore
SplineSet
672 0 m 1,0,-1
 736 0 l 1,1,2
 720 -32 720 -32 707.5 -61 c 128,-1,3
 695 -90 695 -90 677 -115 c 128,-1,4
 659 -140 659 -140 632 -160 c 128,-1,5
 605 -180 605 -180 560.5 -194.5 c 128,-1,6
 516 -209 516 -209 450 -216.5 c 128,-1,7
 384 -224 384 -224 288 -224 c 1,8,-1
 288 -384 l 1,9,10
 400 -384 400 -384 482 -373.5 c 128,-1,11
 564 -363 564 -363 623.5 -343.5 c 128,-1,12
 683 -324 683 -324 724 -296 c 128,-1,13
 765 -268 765 -268 795 -232.5 c 128,-1,14
 825 -197 825 -197 848.5 -154.5 c 128,-1,15
 872 -112 872 -112 896 -64 c 2,16,-1
 928 0 l 1,17,-1
 1504 1152 l 1,18,-1
 1280 1152 l 1,19,-1
 800 128 l 1,20,-1
 288 1152 l 1,21,-1
 64 1152 l 1,22,-1
 672 0 l 1,0,-1
EndSplineSet
EndChar

StartChar: z
Encoding: 122 122 97
Width: 1472
GlyphClass: 2
Flags: HW
DStem2: 128 160 368 128 0.748762 0.662839<158.492 1303.48>
LayerCount: 2
Fore
SplineSet
192 1152 m 5,0,-1
 192 1011 l 5,1,-1
 1104 1011 l 5,2,-1
 128 160 l 5,3,-1
 128 0 l 5,4,-1
 1344 0 l 5,5,-1
 1344 143 l 5,6,-1
 382 143 l 5,7,-1
 1344 992 l 5,8,-1
 1344 1152 l 5,9,-1
 192 1152 l 5,0,-1
EndSplineSet
EndChar

StartChar: braceleft
Encoding: 123 123 98
Width: 960
GlyphClass: 2
Flags: W
HStem: -64 160<619.244 832> 688 160<128 300.266> 1440 160<619.244 832>
VStem: 322.5 191<199.307 407.5 596 663.545 873.388 940 1128.5 1336.69>
CounterMasks: 1 e0
LayerCount: 2
Fore
SplineSet
320 536 m 0,0,1
 320 470 320 470 322.5 400.5 c 128,-1,2
 325 331 325 331 339 264 c 128,-1,3
 353 197 353 197 384 137.5 c 128,-1,4
 415 78 415 78 472 33 c 128,-1,5
 529 -12 529 -12 616.5 -38 c 128,-1,6
 704 -64 704 -64 832 -64 c 1,7,-1
 832 96 l 1,8,9
 751 96 751 96 696 109.5 c 128,-1,10
 641 123 641 123 605.5 148.5 c 128,-1,11
 570 174 570 174 551 212 c 128,-1,12
 532 250 532 250 523.5 299 c 128,-1,13
 515 348 515 348 513.5 407.5 c 128,-1,14
 512 467 512 467 512 536 c 0,15,16
 512 565 512 565 510 596 c 128,-1,17
 508 627 508 627 496 657 c 128,-1,18
 484 687 484 687 458 715.5 c 128,-1,19
 432 744 432 744 384 768 c 1,20,21
 432 792 432 792 458 820.5 c 128,-1,22
 484 849 484 849 496 879 c 128,-1,23
 508 909 508 909 510 940 c 128,-1,24
 512 971 512 971 512 1000 c 0,25,26
 512 1069 512 1069 513.5 1128.5 c 128,-1,27
 515 1188 515 1188 523.5 1237 c 128,-1,28
 532 1286 532 1286 551 1324 c 128,-1,29
 570 1362 570 1362 605.5 1387.5 c 128,-1,30
 641 1413 641 1413 696 1426.5 c 128,-1,31
 751 1440 751 1440 832 1440 c 1,32,-1
 832 1600 l 1,33,34
 704 1600 704 1600 616.5 1574 c 128,-1,35
 529 1548 529 1548 472 1503 c 128,-1,36
 415 1458 415 1458 384 1398.5 c 128,-1,37
 353 1339 353 1339 339 1272 c 128,-1,38
 325 1205 325 1205 322.5 1135 c 128,-1,39
 320 1065 320 1065 320 1000 c 0,40,41
 320 964 320 964 317 935.5 c 128,-1,42
 314 907 314 907 296 887.5 c 128,-1,43
 278 868 278 868 239 858 c 128,-1,44
 200 848 200 848 128 848 c 1,45,-1
 128 688 l 1,46,47
 200 688 200 688 239 678.5 c 128,-1,48
 278 669 278 669 296 650 c 128,-1,49
 314 631 314 631 317 602.5 c 128,-1,50
 320 574 320 574 320 536 c 0,0,1
EndSplineSet
EndChar

StartChar: bar
Encoding: 124 124 99
Width: 448
GlyphClass: 2
Flags: W
VStem: 128 192
LayerCount: 2
Fore
SplineSet
128 -128 m 1,0,-1
 320 -128 l 1,1,-1
 320 1600 l 1,2,-1
 128 1600 l 1,3,-1
 128 -128 l 1,0,-1
EndSplineSet
EndChar

StartChar: braceright
Encoding: 125 125 100
Width: 960
GlyphClass: 2
Flags: W
HStem: -64 160<128 340.756> 688 160<659.734 832> 1440 160<128 340.756>
VStem: 446.5 191<199.307 407.5 596 663.545 873.388 940 1128.5 1336.69>
CounterMasks: 1 e0
LayerCount: 2
Fore
SplineSet
640 536 m 0,0,1
 640 574 640 574 643 602.5 c 128,-1,2
 646 631 646 631 664 650 c 128,-1,3
 682 669 682 669 721 678.5 c 128,-1,4
 760 688 760 688 832 688 c 1,5,-1
 832 848 l 1,6,7
 760 848 760 848 721 858 c 128,-1,8
 682 868 682 868 664 887.5 c 128,-1,9
 646 907 646 907 643 935.5 c 128,-1,10
 640 964 640 964 640 1000 c 0,11,12
 640 1065 640 1065 637.5 1135 c 128,-1,13
 635 1205 635 1205 621 1272 c 128,-1,14
 607 1339 607 1339 576 1398.5 c 128,-1,15
 545 1458 545 1458 488 1503 c 128,-1,16
 431 1548 431 1548 343.5 1574 c 128,-1,17
 256 1600 256 1600 128 1600 c 1,18,-1
 128 1440 l 1,19,20
 208 1440 208 1440 263.5 1426.5 c 128,-1,21
 319 1413 319 1413 354.5 1387.5 c 128,-1,22
 390 1362 390 1362 409 1324 c 128,-1,23
 428 1286 428 1286 436.5 1237 c 128,-1,24
 445 1188 445 1188 446.5 1128.5 c 128,-1,25
 448 1069 448 1069 448 1000 c 0,26,27
 448 971 448 971 450 940 c 128,-1,28
 452 909 452 909 464 879 c 128,-1,29
 476 849 476 849 502 820.5 c 128,-1,30
 528 792 528 792 576 768 c 1,31,32
 528 744 528 744 502 715.5 c 128,-1,33
 476 687 476 687 464 657 c 128,-1,34
 452 627 452 627 450 596 c 128,-1,35
 448 565 448 565 448 536 c 0,36,37
 448 467 448 467 446.5 407.5 c 128,-1,38
 445 348 445 348 436.5 299 c 128,-1,39
 428 250 428 250 409 212 c 128,-1,40
 390 174 390 174 354.5 148.5 c 128,-1,41
 319 123 319 123 263.5 109.5 c 128,-1,42
 208 96 208 96 128 96 c 1,43,-1
 128 -64 l 1,44,45
 256 -64 256 -64 343.5 -38 c 128,-1,46
 431 -12 431 -12 488 33 c 128,-1,47
 545 78 545 78 576 137.5 c 128,-1,48
 607 197 607 197 621 264 c 128,-1,49
 635 331 635 331 637.5 401 c 128,-1,50
 640 471 640 471 640 536 c 0,0,1
EndSplineSet
EndChar

StartChar: asciitilde
Encoding: 126 126 101
Width: 1152
GlyphClass: 2
Flags: W
HStem: 832 160<611.023 768 796 827.484> 928 160<324.254 356 384 540.977>
VStem: 128 192<832 926.021> 832 192<994.54 1088>
DStem2: 603 1040 467.5 913 0.929609 -0.368547<-161 169.769>
LayerCount: 2
Fore
SplineSet
384 928 m 0,0,1
 429 928 429 928 467.5 913 c 128,-1,2
 506 898 506 898 549 880 c 128,-1,3
 592 862 592 862 644 847 c 128,-1,4
 696 832 696 832 768 832 c 0,5,6
 804 832 804 832 848.5 844.5 c 128,-1,7
 893 857 893 857 932 886.5 c 128,-1,8
 971 916 971 916 997.5 965 c 128,-1,9
 1024 1014 1024 1014 1024 1088 c 1,10,-1
 832 1088 l 1,11,12
 832 1058 832 1058 828 1039 c 128,-1,13
 824 1020 824 1020 816 1009.5 c 128,-1,14
 808 999 808 999 796 995.5 c 128,-1,15
 784 992 784 992 768 992 c 0,16,17
 723 992 723 992 684.5 1007 c 128,-1,18
 646 1022 646 1022 603 1040 c 128,-1,19
 560 1058 560 1058 508 1073 c 128,-1,20
 456 1088 456 1088 384 1088 c 0,21,22
 348 1088 348 1088 303.5 1076.5 c 128,-1,23
 259 1065 259 1065 220 1036.5 c 128,-1,24
 181 1008 181 1008 154.5 958 c 128,-1,25
 128 908 128 908 128 832 c 1,26,-1
 320 832 l 1,27,28
 320 863 320 863 324 882 c 128,-1,29
 328 901 328 901 336 911 c 128,-1,30
 344 921 344 921 356 924.5 c 128,-1,31
 368 928 368 928 384 928 c 0,0,1
EndSplineSet
EndChar

StartChar: cent
Encoding: 162 162 104
Width: 1601
GlyphClass: 2
Flags: W
HStem: -32 160<451.955 617.5 833 1182.85> 960 160<451.955 617.5 833 1182.85>
VStem: 128 193<240.369 847.631> 1279 194<204.924 384 704 883.076>
LayerCount: 2
Fore
SplineSet
128 544 m 256,0,1
 128 432 128 432 140 346 c 128,-1,2
 152 260 152 260 182.5 196 c 128,-1,3
 213 132 213 132 264.5 88 c 128,-1,4
 316 44 316 44 394.5 17.5 c 128,-1,5
 473 -9 473 -9 581 -20.5 c 128,-1,6
 689 -32 689 -32 833 -32 c 0,7,8
 1025 -32 1025 -32 1149 -7.5 c 128,-1,9
 1273 17 1273 17 1345 68 c 128,-1,10
 1417 119 1417 119 1445 197.5 c 128,-1,11
 1473 276 1473 276 1473 384 c 1,12,-1
 1281 384 l 1,13,14
 1281 344 1281 344 1279 309.5 c 128,-1,15
 1277 275 1277 275 1264.5 246.5 c 128,-1,16
 1252 218 1252 218 1225 196 c 128,-1,17
 1198 174 1198 174 1148 159 c 128,-1,18
 1098 144 1098 144 1021.5 136 c 128,-1,19
 945 128 945 128 833 128 c 0,20,21
 705 128 705 128 617.5 136.5 c 128,-1,22
 530 145 530 145 473 164.5 c 128,-1,23
 416 184 416 184 385 216 c 128,-1,24
 354 248 354 248 340 294 c 128,-1,25
 326 340 326 340 323.5 402 c 128,-1,26
 321 464 321 464 321 544 c 256,27,28
 321 624 321 624 323.5 686 c 128,-1,29
 326 748 326 748 340 794 c 128,-1,30
 354 840 354 840 385 872 c 128,-1,31
 416 904 416 904 473 923.5 c 128,-1,32
 530 943 530 943 617.5 951.5 c 128,-1,33
 705 960 705 960 833 960 c 0,34,35
 945 960 945 960 1021.5 952 c 128,-1,36
 1098 944 1098 944 1148 929 c 128,-1,37
 1198 914 1198 914 1225 892 c 128,-1,38
 1252 870 1252 870 1264.5 841.5 c 128,-1,39
 1277 813 1277 813 1279 778.5 c 128,-1,40
 1281 744 1281 744 1281 704 c 1,41,-1
 1473 704 l 1,42,43
 1473 812 1473 812 1445 890.5 c 128,-1,44
 1417 969 1417 969 1345 1020 c 128,-1,45
 1273 1071 1273 1071 1149 1095.5 c 128,-1,46
 1025 1120 1025 1120 833 1120 c 0,47,48
 689 1120 689 1120 581 1108.5 c 128,-1,49
 473 1097 473 1097 394.5 1070.5 c 128,-1,50
 316 1044 316 1044 264.5 1000 c 128,-1,51
 213 956 213 956 182.5 892 c 128,-1,52
 152 828 152 828 140 742 c 128,-1,53
 128 656 128 656 128 544 c 256,0,1
EndSplineSet
EndChar

StartChar: sterling
Encoding: 163 163 105
Width: 1663
GlyphClass: 2
Flags: W
HStem: 0 160<448 1472> 640 160<64 256 448 1280> 1173 21G<1344 1536> 1409 160<584.523 1266.33>
VStem: 256 192<160 640 800 1289.85> 1344 192<1173 1341.08>
LayerCount: 2
Fore
SplineSet
64 800 m 1,0,-1
 256 800 l 1,1,-1
 256 958 l 2,2,3
 256 1078 256 1078 268 1170 c 128,-1,4
 280 1262 280 1262 310 1330 c 128,-1,5
 340 1398 340 1398 391.5 1443.5 c 128,-1,6
 443 1489 443 1489 521.5 1517 c 128,-1,7
 600 1545 600 1545 708 1557 c 128,-1,8
 816 1569 816 1569 960 1569 c 0,9,10
 1131 1569 1131 1569 1242.5 1545.5 c 128,-1,11
 1354 1522 1354 1522 1419 1473.5 c 128,-1,12
 1484 1425 1484 1425 1510 1350.5 c 128,-1,13
 1536 1276 1536 1276 1536 1173 c 1,14,-1
 1344 1173 l 1,15,16
 1344 1210 1344 1210 1342 1242 c 128,-1,17
 1340 1274 1340 1274 1328.5 1300 c 128,-1,18
 1317 1326 1317 1326 1293.5 1346.5 c 128,-1,19
 1270 1367 1270 1367 1227.5 1381 c 128,-1,20
 1185 1395 1185 1395 1119.5 1402 c 128,-1,21
 1054 1409 1054 1409 960 1409 c 0,22,23
 832 1409 832 1409 744.5 1400 c 128,-1,24
 657 1391 657 1391 600 1370.5 c 128,-1,25
 543 1350 543 1350 512 1315.5 c 128,-1,26
 481 1281 481 1281 467 1231 c 128,-1,27
 453 1181 453 1181 450.5 1113.5 c 128,-1,28
 448 1046 448 1046 448 958 c 2,29,-1
 448 800 l 1,30,-1
 1280 800 l 1,31,-1
 1280 640 l 1,32,-1
 448 640 l 1,33,-1
 448 160 l 1,34,-1
 1472 160 l 1,35,-1
 1472 0 l 1,36,-1
 256 0 l 1,37,-1
 256 640 l 1,38,-1
 64 640 l 1,39,-1
 64 800 l 1,0,-1
EndSplineSet
EndChar

StartChar: currency
Encoding: 164 164 106
Width: 1280
GlyphClass: 2
Flags: W
HStem: 96 160<471.792 807.219> 768 160<472.063 807.22>
VStem: 192 192<344.636 680.121> 896 192<345.246 678.619>
DStem2: 196 977 112 880 0.759312 -0.650727<0 197.841 1080.49 1279.44> 112 144 196 47 0.759312 0.650727<0.661664 198.502 1081.69 1280.11>
LayerCount: 2
Fore
SplineSet
640 928 m 0,0,1
 553 928 553 928 479 908.5 c 128,-1,2
 405 889 405 889 346 848 c 1,3,-1
 196 977 l 1,4,-1
 112 880 l 1,5,-1
 256 756 l 1,6,7
 225 708 225 708 208.5 647.5 c 128,-1,8
 192 587 192 587 192 512 c 0,9,10
 192 436 192 436 208.5 376 c 128,-1,11
 225 316 225 316 256 268 c 1,12,-1
 112 144 l 1,13,-1
 196 47 l 1,14,-1
 346 176 l 1,15,16
 404 134 404 134 478.5 115 c 128,-1,17
 553 96 553 96 640 96 c 0,18,19
 726 96 726 96 800.5 115 c 128,-1,20
 875 134 875 134 933 175 c 1,21,-1
 1084 47 l 1,22,-1
 1168 144 l 1,23,-1
 1023 268 l 1,24,25
 1054 316 1054 316 1071 376 c 128,-1,26
 1088 436 1088 436 1088 512 c 0,27,28
 1088 587 1088 587 1071.5 647.5 c 128,-1,29
 1055 708 1055 708 1023 756 c 1,30,-1
 1168 880 l 1,31,-1
 1084 977 l 1,32,-1
 934 848 l 1,33,34
 875 889 875 889 800.5 908.5 c 128,-1,35
 726 928 726 928 640 928 c 0,0,1
640 256 m 256,36,37
 586 256 586 256 539 269 c 128,-1,38
 492 282 492 282 457.5 312 c 128,-1,39
 423 342 423 342 403.5 391 c 128,-1,40
 384 440 384 440 384 512 c 256,41,42
 384 584 384 584 403.5 633 c 128,-1,43
 423 682 423 682 457.5 712 c 128,-1,44
 492 742 492 742 539 755 c 128,-1,45
 586 768 586 768 640 768 c 256,46,47
 694 768 694 768 740.5 755 c 128,-1,48
 787 742 787 742 821.5 712 c 128,-1,49
 856 682 856 682 876 633 c 128,-1,50
 896 584 896 584 896 512 c 256,51,52
 896 440 896 440 876 391 c 128,-1,53
 856 342 856 342 821.5 312 c 128,-1,54
 787 282 787 282 740.5 269 c 128,-1,55
 694 256 694 256 640 256 c 256,36,37
EndSplineSet
EndChar

StartChar: yen
Encoding: 165 165 107
Width: 2048
GlyphClass: 2
Flags: W
HStem: 0 768<544 1504> 256 160<416 928 1120 1632> 640 160<416 773 1274 1632> 1516 20G<64 338.333 1709.67 1984>
VStem: 64 256<1280 1536> 928 192<0 256 416 640> 1728 256<1280 1536>
CounterMasks: 1 0e
LayerCount: 2
Fore
SplineSet
416 416 m 1,0,-1
 928 416 l 1,1,-1
 928 640 l 1,2,-1
 416 640 l 1,3,-1
 416 800 l 1,4,-1
 773 800 l 1,5,-1
 64 1536 l 1,6,-1
 320 1536 l 1,7,-1
 1024 768 l 1,8,-1
 1728 1536 l 1,9,-1
 1984 1536 l 1,10,-1
 1274 800 l 1,11,-1
 1632 800 l 1,12,-1
 1632 640 l 1,13,-1
 1120 640 l 1,14,-1
 1120 416 l 1,15,-1
 1632 416 l 1,16,-1
 1632 256 l 1,17,-1
 1120 256 l 1,18,-1
 1120 0 l 1,19,-1
 928 0 l 1,20,-1
 928 256 l 1,21,-1
 416 256 l 1,22,-1
 416 416 l 1,0,-1
EndSplineSet
EndChar

StartChar: brokenbar
Encoding: 166 166 108
Width: 448
GlyphClass: 2
Flags: W
VStem: 128 192
LayerCount: 2
Fore
SplineSet
128 896 m 1,0,-1
 320 896 l 1,1,-1
 320 1600 l 1,2,-1
 128 1600 l 1,3,-1
 128 896 l 1,0,-1
128 -128 m 1,4,-1
 320 -128 l 1,5,-1
 320 576 l 1,6,-1
 128 576 l 1,7,-1
 128 -128 l 1,4,-1
EndSplineSet
EndChar

StartChar: section
Encoding: 167 167 109
Width: 1504
GlyphClass: 2
Flags: W
HStem: -32 160<382.118 672 876.5 1103.62> 480 164<336.475 704 895 1133.23> 800 160<539.448 801 980.5 1162.92> 807.5 167<354.321 796.167> 1312 160<401.38 628.5 833 1122.88>
VStem: 128 193<185.533 320 676.72 822.449 1008.84 1120 1179 1245.19> 1184 192<194.812 260.5 320 432.139 622.134 763.156 1120 1254.47>
DStem2: 394 1437.5 487 1291.5 0.989246 0.146259<-77.7588 412.222> 876.5 133 924.5 -23.5 0.989246 0.146259<-199.331 296.844>
LayerCount: 2
Fore
SplineSet
704 480 m 0,0,1
 816 480 816 480 895 476.5 c 128,-1,2
 974 473 974 473 1027.5 465.5 c 128,-1,3
 1081 458 1081 458 1112 446 c 128,-1,4
 1143 434 1143 434 1159 416 c 128,-1,5
 1175 398 1175 398 1179.5 374.5 c 128,-1,6
 1184 351 1184 351 1184 320 c 0,7,8
 1184 287 1184 287 1179.5 260.5 c 128,-1,9
 1175 234 1175 234 1158 212.5 c 128,-1,10
 1141 191 1141 191 1108 175 c 128,-1,11
 1075 159 1075 159 1018 148.5 c 128,-1,12
 961 138 961 138 876.5 133 c 128,-1,13
 792 128 792 128 672 128 c 0,14,15
 570 128 570 128 503 135.5 c 128,-1,16
 436 143 436 143 396 164 c 128,-1,17
 356 185 356 185 340 222.5 c 128,-1,18
 324 260 324 260 324 320 c 1,19,-1
 132 320 l 1,20,21
 132 224 132 224 159.5 157 c 128,-1,22
 187 90 187 90 250 48 c 128,-1,23
 313 6 313 6 416.5 -13 c 128,-1,24
 520 -32 520 -32 672 -32 c 0,25,26
 816 -32 816 -32 924.5 -23.5 c 128,-1,27
 1033 -15 1033 -15 1111 2.5 c 128,-1,28
 1189 20 1189 20 1240.5 48.5 c 128,-1,29
 1292 77 1292 77 1322 116.5 c 128,-1,30
 1352 156 1352 156 1364 207.5 c 128,-1,31
 1376 259 1376 259 1376 324 c 0,32,33
 1376 404 1376 404 1356.5 459.5 c 128,-1,34
 1337 515 1337 515 1286 551 c 1,35,36
 1329 611 1329 611 1351.5 662.5 c 128,-1,37
 1374 714 1374 714 1374 757 c 0,38,39
 1374 807 1374 807 1340.5 845 c 128,-1,40
 1307 883 1307 883 1237 908.5 c 128,-1,41
 1167 934 1167 934 1058.5 947 c 128,-1,42
 950 960 950 960 800 960 c 0,43,44
 688 960 688 960 609 963.5 c 128,-1,45
 530 967 530 967 476.5 974.5 c 128,-1,46
 423 982 423 982 392.5 994 c 128,-1,47
 362 1006 362 1006 346 1024 c 128,-1,48
 330 1042 330 1042 325.5 1065.5 c 128,-1,49
 321 1089 321 1089 321 1120 c 0,50,51
 321 1152 321 1152 325.5 1179 c 128,-1,52
 330 1206 330 1206 347 1227.5 c 128,-1,53
 364 1249 364 1249 397 1265 c 128,-1,54
 430 1281 430 1281 487 1291.5 c 128,-1,55
 544 1302 544 1302 628.5 1307 c 128,-1,56
 713 1312 713 1312 833 1312 c 0,57,58
 935 1312 935 1312 1002 1304.5 c 128,-1,59
 1069 1297 1069 1297 1109 1276 c 128,-1,60
 1149 1255 1149 1255 1165 1217.5 c 128,-1,61
 1181 1180 1181 1180 1181 1120 c 1,62,-1
 1373 1120 l 1,63,64
 1373 1216 1373 1216 1345.5 1283 c 128,-1,65
 1318 1350 1318 1350 1255 1392 c 128,-1,66
 1192 1434 1192 1434 1088.5 1453 c 128,-1,67
 985 1472 985 1472 833 1472 c 0,68,69
 689 1472 689 1472 580.5 1463.5 c 128,-1,70
 472 1455 472 1455 394 1437.5 c 128,-1,71
 316 1420 316 1420 264.5 1391.5 c 128,-1,72
 213 1363 213 1363 183 1323.5 c 128,-1,73
 153 1284 153 1284 141 1232.5 c 128,-1,74
 129 1181 129 1181 129 1116 c 0,75,76
 129 1035 129 1035 149 979.5 c 128,-1,77
 169 924 169 924 220 887 c 1,78,79
 177 835 177 835 152.5 788 c 128,-1,80
 128 741 128 741 128 699 c 0,81,82
 128 666 128 666 135.5 636.5 c 128,-1,83
 143 607 143 607 164.5 583 c 128,-1,84
 186 559 186 559 225.5 539.5 c 128,-1,85
 265 520 265 520 329 507 c 128,-1,86
 393 494 393 494 485 487 c 128,-1,87
 577 480 577 480 704 480 c 0,0,1
704 640 m 0,88,89
 584 640 584 640 509 644 c 128,-1,90
 434 648 434 648 392.5 658 c 128,-1,91
 351 668 351 668 336 686 c 128,-1,92
 321 704 321 704 321 733 c 0,93,94
 321 752 321 752 330.5 776.5 c 128,-1,95
 340 801 340 801 352 832 c 1,96,97
 426 815 426 815 536 807.5 c 128,-1,98
 646 800 646 800 801 800 c 0,99,100
 907 800 907 800 980.5 796 c 128,-1,101
 1054 792 1054 792 1100 782 c 128,-1,102
 1146 772 1146 772 1166 754 c 128,-1,103
 1186 736 1186 736 1186 708 c 0,104,105
 1186 688 1186 688 1177.5 663.5 c 128,-1,106
 1169 639 1169 639 1153 607 c 1,107,108
 1076 625 1076 625 966 632.5 c 128,-1,109
 856 640 856 640 704 640 c 0,88,89
EndSplineSet
EndChar

StartChar: dieresis
Encoding: 168 168 110
Width: 1088
GlyphClass: 2
Flags: W
HStem: 1344 192
LayerCount: 2
Fore
SplineSet
256 1536 m 1,0,-1
 64 1536 l 1,1,-1
 64 1344 l 1,2,-1
 256 1344 l 1,3,-1
 256 1536 l 1,0,-1
1024 1536 m 1,4,-1
 832 1536 l 1,5,-1
 832 1344 l 1,6,-1
 1024 1344 l 1,7,-1
 1024 1536 l 1,4,-1
EndSplineSet
EndChar

StartChar: copyright
Encoding: 169 169 111
Width: 1920
GlyphClass: 2
Flags: W
HStem: 64 160<547.151 1372.85> 410 134<686.747 1246.71> 1241 134<686.747 1249> 1504 160<547.151 1372.85>
VStem: 128 192<463.904 616.5 1111.5 1264.1> 448 162<617.466 1167.83> 1312 160<604.069 759 1027 1182.75> 1600 192<463.904 616.5 1111.5 1264.1>
LayerCount: 2
Fore
SplineSet
960 1664 m 256,0,1
 784 1664 784 1664 654 1642.5 c 128,-1,2
 524 1621 524 1621 431.5 1577.5 c 128,-1,3
 339 1534 339 1534 280 1468 c 128,-1,4
 221 1402 221 1402 187 1313 c 128,-1,5
 153 1224 153 1224 140.5 1112 c 128,-1,6
 128 1000 128 1000 128 864 c 256,7,8
 128 728 128 728 140.5 616 c 128,-1,9
 153 504 153 504 187 415 c 128,-1,10
 221 326 221 326 280 260 c 128,-1,11
 339 194 339 194 431.5 150.5 c 128,-1,12
 524 107 524 107 654 85.5 c 128,-1,13
 784 64 784 64 960 64 c 256,14,15
 1136 64 1136 64 1266 85.5 c 128,-1,16
 1396 107 1396 107 1488.5 150.5 c 128,-1,17
 1581 194 1581 194 1640 260 c 128,-1,18
 1699 326 1699 326 1733 415 c 128,-1,19
 1767 504 1767 504 1779.5 616 c 128,-1,20
 1792 728 1792 728 1792 864 c 256,21,22
 1792 1000 1792 1000 1779.5 1112 c 128,-1,23
 1767 1224 1767 1224 1733 1313 c 128,-1,24
 1699 1402 1699 1402 1640 1468 c 128,-1,25
 1581 1534 1581 1534 1488.5 1577.5 c 128,-1,26
 1396 1621 1396 1621 1266 1642.5 c 128,-1,27
 1136 1664 1136 1664 960 1664 c 256,0,1
960 224 m 256,28,29
 832 224 832 224 735 231.5 c 128,-1,30
 638 239 638 239 566.5 262 c 128,-1,31
 495 285 495 285 448 328 c 128,-1,32
 401 371 401 371 372.5 442 c 128,-1,33
 344 513 344 513 332 616.5 c 128,-1,34
 320 720 320 720 320 864 c 256,35,36
 320 1008 320 1008 332 1111.5 c 128,-1,37
 344 1215 344 1215 372.5 1286 c 128,-1,38
 401 1357 401 1357 448 1400 c 128,-1,39
 495 1443 495 1443 566.5 1466 c 128,-1,40
 638 1489 638 1489 735 1496.5 c 128,-1,41
 832 1504 832 1504 960 1504 c 256,42,43
 1088 1504 1088 1504 1185 1496.5 c 128,-1,44
 1282 1489 1282 1489 1353.5 1466 c 128,-1,45
 1425 1443 1425 1443 1472 1400 c 128,-1,46
 1519 1357 1519 1357 1547.5 1286 c 128,-1,47
 1576 1215 1576 1215 1588 1111.5 c 128,-1,48
 1600 1008 1600 1008 1600 864 c 256,49,50
 1600 720 1600 720 1588 616.5 c 128,-1,51
 1576 513 1576 513 1547.5 442 c 128,-1,52
 1519 371 1519 371 1472 328 c 128,-1,53
 1425 285 1425 285 1353.5 262 c 128,-1,54
 1282 239 1282 239 1185 231.5 c 128,-1,55
 1088 224 1088 224 960 224 c 256,28,29
448 893 m 256,56,57
 448 752 448 752 469 659 c 128,-1,58
 490 566 490 566 546.5 510.5 c 128,-1,59
 603 455 603 455 702.5 432.5 c 128,-1,60
 802 410 802 410 959 410 c 0,61,62
 1111 410 1111 410 1210 430.5 c 128,-1,63
 1309 451 1309 451 1367.5 493.5 c 128,-1,64
 1426 536 1426 536 1449 602 c 128,-1,65
 1472 668 1472 668 1472 759 c 1,66,-1
 1312 759 l 1,67,68
 1312 725 1312 725 1310 696.5 c 128,-1,69
 1308 668 1308 668 1297.5 644 c 128,-1,70
 1287 620 1287 620 1265.5 601.5 c 128,-1,71
 1244 583 1244 583 1204.5 570 c 128,-1,72
 1165 557 1165 557 1105 550.5 c 128,-1,73
 1045 544 1045 544 959 544 c 0,74,75
 872 544 872 544 812.5 551 c 128,-1,76
 753 558 753 558 714 574.5 c 128,-1,77
 675 591 675 591 654 618 c 128,-1,78
 633 645 633 645 623 683.5 c 128,-1,79
 613 722 613 722 611.5 774 c 128,-1,80
 610 826 610 826 610 893 c 256,81,82
 610 960 610 960 611.5 1012 c 128,-1,83
 613 1064 613 1064 623 1102.5 c 128,-1,84
 633 1141 633 1141 654 1167.5 c 128,-1,85
 675 1194 675 1194 714 1210.5 c 128,-1,86
 753 1227 753 1227 812.5 1234 c 128,-1,87
 872 1241 872 1241 959 1241 c 0,88,89
 1045 1241 1045 1241 1105 1234.5 c 128,-1,90
 1165 1228 1165 1228 1204.5 1215.5 c 128,-1,91
 1244 1203 1244 1203 1265.5 1184.5 c 128,-1,92
 1287 1166 1287 1166 1297.5 1142 c 128,-1,93
 1308 1118 1308 1118 1310 1089 c 128,-1,94
 1312 1060 1312 1060 1312 1027 c 1,95,-1
 1472 1027 l 1,96,97
 1472 1117 1472 1117 1449 1183 c 128,-1,98
 1426 1249 1426 1249 1367.5 1291.5 c 128,-1,99
 1309 1334 1309 1334 1210 1354.5 c 128,-1,100
 1111 1375 1111 1375 959 1375 c 0,101,102
 802 1375 802 1375 702.5 1352.5 c 128,-1,103
 603 1330 603 1330 546.5 1274.5 c 128,-1,104
 490 1219 490 1219 469 1126.5 c 128,-1,105
 448 1034 448 1034 448 893 c 256,56,57
EndSplineSet
EndChar

StartChar: guillemotleft
Encoding: 171 171 113
Width: 1344
GlyphClass: 2
Flags: W
VStem: 128 128<512 704> 576 128<512 704>
DStem2: 128 704 256 608 0.816968 0.576683<49.2103 665.877> 256 608 128 512 0.816968 -0.576683<0 616.667> 576 704 704 608 0.816968 0.576683<49.2103 665.877> 704 608 576 512 0.816968 -0.576683<0 616.667>
LayerCount: 2
Fore
SplineSet
768 256 m 1,0,-1
 672 128 l 1,1,-1
 128 512 l 1,2,-1
 128 704 l 1,3,-1
 672 1088 l 1,4,-1
 768 960 l 1,5,-1
 256 608 l 1,6,-1
 768 256 l 1,0,-1
1216 256 m 1,7,-1
 1120 128 l 1,8,-1
 576 512 l 1,9,-1
 576 704 l 1,10,-1
 1120 1088 l 1,11,-1
 1216 960 l 1,12,-1
 704 608 l 1,13,-1
 1216 256 l 1,7,-1
EndSplineSet
EndChar

StartChar: logicalnot
Encoding: 172 172 114
Width: 1216
GlyphClass: 2
Flags: W
HStem: 928 160<128 896>
VStem: 896 192<640 928>
LayerCount: 2
Fore
SplineSet
1088 640 m 1,0,-1
 896 640 l 1,1,-1
 896 928 l 1,2,-1
 128 928 l 1,3,-1
 128 1088 l 1,4,-1
 1088 1088 l 1,5,-1
 1088 640 l 1,0,-1
EndSplineSet
EndChar

StartChar: registered
Encoding: 174 174 115
Width: 1920
GlyphClass: 2
Flags: W
HStem: 64 160<547.151 1372.85> 800 128<860 1159.51> 1248 128<860 1189.08> 1504 160<547.151 1372.85>
VStem: 128 192<463.904 616.5 1111.5 1264.1> 1244 160<633.5 734.493 977.82 1196.31> 1600 192<463.904 616.5 1111.5 1264.1>
LayerCount: 2
Fore
SplineSet
1405 536 m 2,0,1
 1405 606 1405 606 1396.5 662 c 128,-1,2
 1388 718 1388 718 1362 758.5 c 128,-1,3
 1336 799 1336 799 1288 824.5 c 128,-1,4
 1240 850 1240 850 1160 860 c 1,5,6
 1240 865 1240 865 1288 889.5 c 128,-1,7
 1336 914 1336 914 1362 947.5 c 128,-1,8
 1388 981 1388 981 1396 1018.5 c 128,-1,9
 1404 1056 1404 1056 1404 1088 c 0,10,11
 1403 1158 1403 1158 1381 1212 c 128,-1,12
 1359 1266 1359 1266 1299 1302.5 c 128,-1,13
 1239 1339 1239 1339 1133.5 1357.5 c 128,-1,14
 1028 1376 1028 1376 860 1376 c 2,15,-1
 573 1376 l 1,16,-1
 573 384 l 1,17,-1
 733 384 l 1,18,-1
 733 800 l 1,19,-1
 828 800 l 2,20,21
 923 800 923 800 991 796 c 128,-1,22
 1059 792 1059 792 1105 781.5 c 128,-1,23
 1151 771 1151 771 1178.5 752.5 c 128,-1,24
 1206 734 1206 734 1220.5 704.5 c 128,-1,25
 1235 675 1235 675 1239.5 633.5 c 128,-1,26
 1244 592 1244 592 1244 536 c 2,27,-1
 1244 384 l 1,28,-1
 1405 384 l 1,29,-1
 1405 536 l 2,0,1
733 1248 m 1,30,-1
 860 1248 l 2,31,32
 980 1248 980 1248 1055 1239.5 c 128,-1,33
 1130 1231 1130 1231 1172 1212 c 128,-1,34
 1214 1193 1214 1193 1229 1162.5 c 128,-1,35
 1244 1132 1244 1132 1244 1088 c 0,36,37
 1244 1042 1244 1042 1229 1011.5 c 128,-1,38
 1214 981 1214 981 1172 962.5 c 128,-1,39
 1130 944 1130 944 1055 936 c 128,-1,40
 980 928 980 928 860 928 c 2,41,-1
 733 928 l 1,42,-1
 733 1248 l 1,30,-1
960 1664 m 256,43,44
 784 1664 784 1664 654 1642.5 c 128,-1,45
 524 1621 524 1621 431.5 1577.5 c 128,-1,46
 339 1534 339 1534 280 1468 c 128,-1,47
 221 1402 221 1402 187 1313 c 128,-1,48
 153 1224 153 1224 140.5 1112 c 128,-1,49
 128 1000 128 1000 128 864 c 256,50,51
 128 728 128 728 140.5 616 c 128,-1,52
 153 504 153 504 187 415 c 128,-1,53
 221 326 221 326 280 260 c 128,-1,54
 339 194 339 194 431.5 150.5 c 128,-1,55
 524 107 524 107 654 85.5 c 128,-1,56
 784 64 784 64 960 64 c 256,57,58
 1136 64 1136 64 1266 85.5 c 128,-1,59
 1396 107 1396 107 1488.5 150.5 c 128,-1,60
 1581 194 1581 194 1640 260 c 128,-1,61
 1699 326 1699 326 1733 415 c 128,-1,62
 1767 504 1767 504 1779.5 616 c 128,-1,63
 1792 728 1792 728 1792 864 c 256,64,65
 1792 1000 1792 1000 1779.5 1112 c 128,-1,66
 1767 1224 1767 1224 1733 1313 c 128,-1,67
 1699 1402 1699 1402 1640 1468 c 128,-1,68
 1581 1534 1581 1534 1488.5 1577.5 c 128,-1,69
 1396 1621 1396 1621 1266 1642.5 c 128,-1,70
 1136 1664 1136 1664 960 1664 c 256,43,44
960 224 m 256,71,72
 832 224 832 224 735 231.5 c 128,-1,73
 638 239 638 239 566.5 262 c 128,-1,74
 495 285 495 285 448 328 c 128,-1,75
 401 371 401 371 372.5 442 c 128,-1,76
 344 513 344 513 332 616.5 c 128,-1,77
 320 720 320 720 320 864 c 256,78,79
 320 1008 320 1008 332 1111.5 c 128,-1,80
 344 1215 344 1215 372.5 1286 c 128,-1,81
 401 1357 401 1357 448 1400 c 128,-1,82
 495 1443 495 1443 566.5 1466 c 128,-1,83
 638 1489 638 1489 735 1496.5 c 128,-1,84
 832 1504 832 1504 960 1504 c 256,85,86
 1088 1504 1088 1504 1185 1496.5 c 128,-1,87
 1282 1489 1282 1489 1353.5 1466 c 128,-1,88
 1425 1443 1425 1443 1472 1400 c 128,-1,89
 1519 1357 1519 1357 1547.5 1286 c 128,-1,90
 1576 1215 1576 1215 1588 1111.5 c 128,-1,91
 1600 1008 1600 1008 1600 864 c 256,92,93
 1600 720 1600 720 1588 616.5 c 128,-1,94
 1576 513 1576 513 1547.5 442 c 128,-1,95
 1519 371 1519 371 1472 328 c 128,-1,96
 1425 285 1425 285 1353.5 262 c 128,-1,97
 1282 239 1282 239 1185 231.5 c 128,-1,98
 1088 224 1088 224 960 224 c 256,71,72
EndSplineSet
EndChar

StartChar: macron
Encoding: 175 175 116
Width: 1024
GlyphClass: 2
Flags: W
HStem: 1344 160
LayerCount: 2
Fore
SplineSet
128 1344 m 1,0,-1
 896 1344 l 1,1,-1
 896 1504 l 1,2,-1
 128 1504 l 1,3,-1
 128 1344 l 1,0,-1
EndSplineSet
EndChar

StartChar: degree
Encoding: 176 176 117
Width: 1280
GlyphClass: 2
Flags: W
HStem: 96 160<472.168 807.342> 768 160<472.168 807.342>
VStem: 192 192<344.943 679.057> 896 192<345.553 678.447>
LayerCount: 2
Fore
SplineSet
640 928 m 256,0,1
 544 928 544 928 462 903.5 c 128,-1,2
 380 879 380 879 320 828 c 128,-1,3
 260 777 260 777 226 698.5 c 128,-1,4
 192 620 192 620 192 512 c 256,5,6
 192 404 192 404 226 325.5 c 128,-1,7
 260 247 260 247 320 196 c 128,-1,8
 380 145 380 145 462 120.5 c 128,-1,9
 544 96 544 96 640 96 c 256,10,11
 736 96 736 96 818 120.5 c 128,-1,12
 900 145 900 145 960 196 c 128,-1,13
 1020 247 1020 247 1054 325.5 c 128,-1,14
 1088 404 1088 404 1088 512 c 256,15,16
 1088 620 1088 620 1054 698.5 c 128,-1,17
 1020 777 1020 777 960 828 c 128,-1,18
 900 879 900 879 818 903.5 c 128,-1,19
 736 928 736 928 640 928 c 256,0,1
640 256 m 256,20,21
 586 256 586 256 539 269 c 128,-1,22
 492 282 492 282 457.5 312 c 128,-1,23
 423 342 423 342 403.5 391 c 128,-1,24
 384 440 384 440 384 512 c 256,25,26
 384 584 384 584 403.5 633 c 128,-1,27
 423 682 423 682 457.5 712 c 128,-1,28
 492 742 492 742 539 755 c 128,-1,29
 586 768 586 768 640 768 c 256,30,31
 694 768 694 768 740.5 755 c 128,-1,32
 787 742 787 742 821.5 712 c 128,-1,33
 856 682 856 682 876 633 c 128,-1,34
 896 584 896 584 896 512 c 256,35,36
 896 440 896 440 876 391 c 128,-1,37
 856 342 856 342 821.5 312 c 128,-1,38
 787 282 787 282 740.5 269 c 128,-1,39
 694 256 694 256 640 256 c 256,20,21
EndSplineSet
EndChar

StartChar: plusminus
Encoding: 177 177 118
Width: 1344
GlyphClass: 2
Flags: W
HStem: 800 160<128 576 768 1216>
VStem: 576 192<320 800 960 1408>
LayerCount: 2
Fore
SplineSet
128 960 m 1,0,-1
 576 960 l 1,1,-1
 576 1408 l 1,2,-1
 768 1408 l 1,3,-1
 768 960 l 1,4,-1
 1216 960 l 1,5,-1
 1216 800 l 1,6,-1
 768 800 l 1,7,-1
 768 320 l 1,8,-1
 576 320 l 1,9,-1
 576 800 l 1,10,-1
 128 800 l 1,11,-1
 128 960 l 1,0,-1
EndSplineSet
EndChar

StartChar: twosuperior
Encoding: 178 178 119
Width: 1344
GlyphClass: 2
Flags: W
HStem: 1408 160<341.687 419.5 842.5 986.423>
VStem: 128 192<672 759.267 1248 1379.79> 1024 192<1091.58 1368.69>
DStem2: 448 962 505.5 805.5 0.980581 0.196116<-157.486 569.809>
LayerCount: 2
Fore
SplineSet
128 448 m 1,0,-1
 1186 448 l 1,1,-1
 1186 608 l 1,2,-1
 320 608 l 1,3,4
 320 648 320 648 321.5 676 c 128,-1,5
 323 704 323 704 332 723.5 c 128,-1,6
 341 743 341 743 360.5 757 c 128,-1,7
 380 771 380 771 415.5 782.5 c 128,-1,8
 451 794 451 794 505.5 805.5 c 128,-1,9
 560 817 560 817 640 833 c 2,10,-1
 898 884 l 2,11,12
 991 902 991 902 1052.5 931.5 c 128,-1,13
 1114 961 1114 961 1150.5 1004 c 128,-1,14
 1187 1047 1187 1047 1201.5 1106 c 128,-1,15
 1216 1165 1216 1165 1216 1243 c 0,16,17
 1216 1359 1216 1359 1182.5 1424.5 c 128,-1,18
 1149 1490 1149 1490 1081.5 1522 c 128,-1,19
 1014 1554 1014 1554 912 1561 c 128,-1,20
 810 1568 810 1568 673 1568 c 0,21,22
 584 1568 584 1568 509 1566 c 128,-1,23
 434 1564 434 1564 373 1555 c 128,-1,24
 312 1546 312 1546 266.5 1526.5 c 128,-1,25
 221 1507 221 1507 190 1471.5 c 128,-1,26
 159 1436 159 1436 143.5 1381.5 c 128,-1,27
 128 1327 128 1327 128 1248 c 1,28,-1
 320 1248 l 1,29,30
 320 1281 320 1281 321 1306 c 128,-1,31
 322 1331 322 1331 331 1349 c 128,-1,32
 340 1367 340 1367 360 1378.5 c 128,-1,33
 380 1390 380 1390 419.5 1396.5 c 128,-1,34
 459 1403 459 1403 520.5 1405.5 c 128,-1,35
 582 1408 582 1408 673 1408 c 0,36,37
 775 1408 775 1408 842.5 1404.5 c 128,-1,38
 910 1401 910 1401 950.5 1385 c 128,-1,39
 991 1369 991 1369 1007.5 1335.5 c 128,-1,40
 1024 1302 1024 1302 1024 1242 c 256,41,42
 1024 1182 1024 1182 1011.5 1145.5 c 128,-1,43
 999 1109 999 1109 975 1087.5 c 128,-1,44
 951 1066 951 1066 915.5 1055 c 128,-1,45
 880 1044 880 1044 834 1035 c 2,46,-1
 448 962 l 2,47,48
 338 941 338 941 274.5 913 c 128,-1,49
 211 885 211 885 178.5 849 c 128,-1,50
 146 813 146 813 137 769 c 128,-1,51
 128 725 128 725 128 672 c 2,52,-1
 128 448 l 1,0,-1
EndSplineSet
EndChar

StartChar: threesuperior
Encoding: 179 179 120
Width: 1471
GlyphClass: 2
Flags: W
HStem: 416 160<333.841 455 957 1117.49> 896 160<959 1117.91> 1369.5 162<337.596 455 1073.5 1129.5>
VStem: 128 192<598.803 703 1218 1348.05> 1150 193<626.277 866.688 1089.3 1135.5 1217 1317.96>
LayerCount: 2
Fore
SplineSet
768 1056 m 1,0,-1
 768 896 l 1,1,-1
 959 896 l 2,2,3
 975 896 975 896 995.5 896.5 c 128,-1,4
 1016 897 1016 897 1037 894.5 c 128,-1,5
 1058 892 1058 892 1078.5 883.5 c 128,-1,6
 1099 875 1099 875 1115 857 c 128,-1,7
 1131 839 1131 839 1140.5 809 c 128,-1,8
 1150 779 1150 779 1150 734 c 0,9,10
 1150 674 1150 674 1133 641.5 c 128,-1,11
 1116 609 1116 609 1073.5 594.5 c 128,-1,12
 1031 580 1031 580 957 578 c 128,-1,13
 883 576 883 576 769 576 c 0,14,15
 658 576 658 576 581.5 577 c 128,-1,16
 505 578 505 578 455 581.5 c 128,-1,17
 405 585 405 585 378 593 c 128,-1,18
 351 601 351 601 338 615.5 c 128,-1,19
 325 630 325 630 322.5 651 c 128,-1,20
 320 672 320 672 320 703 c 1,21,-1
 128 703 l 1,22,23
 128 625 128 625 146.5 573 c 128,-1,24
 165 521 165 521 201.5 489.5 c 128,-1,25
 238 458 238 458 292.5 442.5 c 128,-1,26
 347 427 347 427 418 421 c 128,-1,27
 489 415 489 415 577 415.5 c 128,-1,28
 665 416 665 416 769 416 c 0,29,30
 917 416 917 416 1025 423 c 128,-1,31
 1133 430 1133 430 1203.5 460.5 c 128,-1,32
 1274 491 1274 491 1308.5 555 c 128,-1,33
 1343 619 1343 619 1343 733 c 0,34,35
 1343 794 1343 794 1333.5 833.5 c 128,-1,36
 1324 873 1324 873 1304.5 899 c 128,-1,37
 1285 925 1285 925 1255 942 c 128,-1,38
 1225 959 1225 959 1183 976 c 1,39,40
 1225 989 1225 989 1255 1007.5 c 128,-1,41
 1285 1026 1285 1026 1304.5 1054 c 128,-1,42
 1324 1082 1324 1082 1333.5 1122 c 128,-1,43
 1343 1162 1343 1162 1343 1218 c 0,44,45
 1343 1299 1343 1299 1328 1354.5 c 128,-1,46
 1313 1410 1313 1410 1282 1445 c 128,-1,47
 1251 1480 1251 1480 1204 1499 c 128,-1,48
 1157 1518 1157 1518 1093 1526 c 128,-1,49
 1029 1534 1029 1534 948 1535 c 128,-1,50
 867 1536 867 1536 769 1536 c 0,51,52
 665 1536 665 1536 577 1537 c 128,-1,53
 489 1538 489 1538 418 1531.5 c 128,-1,54
 347 1525 347 1525 292.5 1508 c 128,-1,55
 238 1491 238 1491 201.5 1456 c 128,-1,56
 165 1421 165 1421 146.5 1363 c 128,-1,57
 128 1305 128 1305 128 1218 c 1,58,-1
 320 1218 l 1,59,60
 320 1256 320 1256 322.5 1283 c 128,-1,61
 325 1310 325 1310 338 1327.5 c 128,-1,62
 351 1345 351 1345 378 1355 c 128,-1,63
 405 1365 405 1365 455 1369.5 c 128,-1,64
 505 1374 505 1374 581.5 1375 c 128,-1,65
 658 1376 658 1376 769 1376 c 0,66,67
 883 1376 883 1376 957 1377 c 128,-1,68
 1031 1378 1031 1378 1073.5 1365 c 128,-1,69
 1116 1352 1116 1352 1133 1319 c 128,-1,70
 1150 1286 1150 1286 1150 1217 c 0,71,72
 1150 1167 1150 1167 1138 1135.5 c 128,-1,73
 1126 1104 1126 1104 1102.5 1086.5 c 128,-1,74
 1079 1069 1079 1069 1043 1062.5 c 128,-1,75
 1007 1056 1007 1056 959 1056 c 2,76,-1
 768 1056 l 1,0,-1
EndSplineSet
EndChar

StartChar: acute
Encoding: 180 180 121
Width: 960
GlyphClass: 2
Flags: W
LayerCount: 2
Fore
SplineSet
832 1664 m 1,0,-1
 704 1856 l 1,1,-1
 128 1376 l 1,2,-1
 192 1280 l 1,3,-1
 832 1664 l 1,0,-1
EndSplineSet
EndChar

StartChar: mu
Encoding: 181 181 122
Width: 1601
GlyphClass: 2
Flags: W
HStem: -384 21G<129 321> -32 160<462.754 1042.41> 0 21G<1281 1473>
VStem: 128 193<-384 33 257.83 1088> 1281 192<0 191 271.868 1088>
LayerCount: 2
Fore
SplineSet
129 -384 m 1,0,1
 129 -226 129 -226 129 -103.5 c 128,-1,2
 129 19 129 19 128.5 117 c 128,-1,3
 128 215 128 215 128 293.5 c 128,-1,4
 128 372 128 372 128 442.5 c 128,-1,5
 128 513 128 513 128 580 c 128,-1,6
 128 647 128 647 128.5 722.5 c 128,-1,7
 129 798 129 798 129 886.5 c 128,-1,8
 129 975 129 975 129 1088 c 1,9,-1
 321 1088 l 1,10,-1
 321 512 l 2,11,12
 321 405 321 405 337 331.5 c 128,-1,13
 353 258 353 258 401 213 c 128,-1,14
 449 168 449 168 537 148 c 128,-1,15
 625 128 625 128 769 128 c 0,16,17
 925 128 925 128 1024.5 151 c 128,-1,18
 1124 174 1124 174 1181 216 c 128,-1,19
 1238 258 1238 258 1259.5 317 c 128,-1,20
 1281 376 1281 376 1281 448 c 2,21,-1
 1281 1088 l 1,22,-1
 1473 1088 l 1,23,-1
 1473 0 l 1,24,-1
 1281 0 l 1,25,-1
 1281 191 l 1,26,27
 1280 189 1280 189 1271.5 171.5 c 128,-1,28
 1263 154 1263 154 1240.5 129 c 128,-1,29
 1218 104 1218 104 1178.5 76 c 128,-1,30
 1139 48 1139 48 1075.5 24 c 128,-1,31
 1012 0 1012 0 921 -16 c 128,-1,32
 830 -32 830 -32 705 -32 c 0,33,34
 573 -32 573 -32 479.5 -15.5 c 128,-1,35
 386 1 386 1 321 33 c 1,36,-1
 321 -384 l 1,37,-1
 129 -384 l 1,0,1
EndSplineSet
EndChar

StartChar: paragraph
Encoding: 182 182 123
Width: 1984
GlyphClass: 2
Flags: W
VStem: 128 960<814.583 1346.26>
LayerCount: 2
Fore
SplineSet
1088 1376 m 1,0,-1
 1472 1376 l 1,1,-1
 1472 0 l 1,2,-1
 1664 0 l 1,3,-1
 1664 1376 l 1,4,-1
 1856 1376 l 1,5,-1
 1856 1536 l 1,6,-1
 833 1536 l 2,7,8
 673 1536 673 1536 558.5 1523.5 c 128,-1,9
 444 1511 444 1511 365.5 1486 c 128,-1,10
 287 1461 287 1461 240 1424 c 128,-1,11
 193 1387 193 1387 168 1337 c 128,-1,12
 143 1287 143 1287 135.5 1225 c 128,-1,13
 128 1163 128 1163 128 1088 c 0,14,15
 128 1010 128 1010 135.5 944 c 128,-1,16
 143 878 143 878 168 824.5 c 128,-1,17
 193 771 193 771 240 730.5 c 128,-1,18
 287 690 287 690 365 663 c 128,-1,19
 443 636 443 636 558 622 c 128,-1,20
 673 608 673 608 833 608 c 2,21,-1
 896 608 l 1,22,-1
 896 0 l 1,23,-1
 1088 0 l 1,24,-1
 1088 1376 l 1,0,-1
EndSplineSet
EndChar

StartChar: periodcentered
Encoding: 183 183 124
Width: 448
GlyphClass: 2
Flags: W
HStem: 704 192
VStem: 128 192
LayerCount: 2
Fore
SplineSet
320 896 m 1,0,-1
 128 896 l 1,1,-1
 128 704 l 1,2,-1
 320 704 l 1,3,-1
 320 896 l 1,0,-1
EndSplineSet
EndChar

StartChar: cedilla
Encoding: 184 184 125
Width: 640
GlyphClass: 2
Flags: W
HStem: -544 160<128 308.647>
VStem: 128 128<-128 64> 320 192<-370.345 -250.926>
LayerCount: 2
Fore
SplineSet
128 -384 m 1,0,1
 176 -384 176 -384 212 -382.5 c 128,-1,2
 248 -381 248 -381 272 -372 c 128,-1,3
 296 -363 296 -363 308 -343.5 c 128,-1,4
 320 -324 320 -324 320 -288 c 0,5,6
 320 -276 320 -276 317 -264.5 c 128,-1,7
 314 -253 314 -253 296 -244 c 128,-1,8
 278 -235 278 -235 239 -229.5 c 128,-1,9
 200 -224 200 -224 128 -224 c 1,10,-1
 128 64 l 1,11,-1
 256 64 l 1,12,-1
 256 -128 l 1,13,14
 304 -128 304 -128 350 -135 c 128,-1,15
 396 -142 396 -142 432 -160 c 128,-1,16
 468 -178 468 -178 490 -209 c 128,-1,17
 512 -240 512 -240 512 -288 c 0,18,19
 512 -372 512 -372 479 -422.5 c 128,-1,20
 446 -473 446 -473 392 -500 c 128,-1,21
 338 -527 338 -527 269 -535.5 c 128,-1,22
 200 -544 200 -544 128 -544 c 1,23,-1
 128 -384 l 1,0,1
EndSplineSet
EndChar

StartChar: onesuperior
Encoding: 185 185 126
Width: 896
GlyphClass: 2
Flags: W
DStem2: 64 1120 160 992 0.732793 0.680451<0 549.386>
LayerCount: 2
Fore
SplineSet
64 1120 m 1,0,-1
 160 992 l 1,1,-1
 576 1376 l 1,2,-1
 576 448 l 1,3,-1
 768 448 l 1,4,-1
 768 1536 l 1,5,-1
 512 1536 l 1,6,-1
 64 1120 l 1,0,-1
EndSplineSet
EndChar

StartChar: ordmasculine
Encoding: 186 186 127
Width: 1664
GlyphClass: 2
Flags: W
HStem: 385 160<460.879 1199.14> 1377 160<464.86 1199.14>
VStem: 128 192<674.069 1233.34> 1344 192<688.663 1233.34>
LayerCount: 2
Fore
SplineSet
128 961 m 256,0,1
 128 1129 128 1129 166 1240 c 128,-1,2
 204 1351 204 1351 288 1417 c 128,-1,3
 372 1483 372 1483 506 1510 c 128,-1,4
 640 1537 640 1537 832 1537 c 256,5,6
 1024 1537 1024 1537 1158 1510 c 128,-1,7
 1292 1483 1292 1483 1376 1417 c 128,-1,8
 1460 1351 1460 1351 1498 1240 c 128,-1,9
 1536 1129 1536 1129 1536 961 c 256,10,11
 1536 793 1536 793 1498 682 c 128,-1,12
 1460 571 1460 571 1376 505 c 128,-1,13
 1292 439 1292 439 1158 412 c 128,-1,14
 1024 385 1024 385 832 385 c 256,15,16
 640 385 640 385 506 412 c 128,-1,17
 372 439 372 439 288 505 c 128,-1,18
 204 571 204 571 166 682 c 128,-1,19
 128 793 128 793 128 961 c 256,0,1
320 961 m 0,20,21
 320 873 320 873 327 808 c 128,-1,22
 334 743 334 743 353.5 696.5 c 128,-1,23
 373 650 373 650 408 621 c 128,-1,24
 443 592 443 592 500 575 c 128,-1,25
 557 558 557 558 638.5 551.5 c 128,-1,26
 720 545 720 545 832 545 c 0,27,28
 976 545 976 545 1074 556 c 128,-1,29
 1172 567 1172 567 1232 609 c 128,-1,30
 1292 651 1292 651 1318 734 c 128,-1,31
 1344 817 1344 817 1344 961 c 256,32,33
 1344 1105 1344 1105 1318 1188 c 128,-1,34
 1292 1271 1292 1271 1232 1313 c 128,-1,35
 1172 1355 1172 1355 1074 1366 c 128,-1,36
 976 1377 976 1377 832 1377 c 256,37,38
 688 1377 688 1377 590 1366 c 128,-1,39
 492 1355 492 1355 432 1313 c 128,-1,40
 372 1271 372 1271 346 1188 c 128,-1,41
 320 1105 320 1105 320 961 c 0,20,21
EndSplineSet
EndChar

StartChar: guillemotright
Encoding: 187 187 128
Width: 1344
GlyphClass: 2
Flags: W
VStem: 640 128<512 704> 1088 128<512 704>
DStem2: 224 1088 128 960 0.816968 -0.576683<0 616.667> 128 256 224 128 0.816968 0.576683<4.61347 621.28> 672 1088 576 960 0.816968 -0.576683<0 616.667> 576 256 672 128 0.816968 0.576683<4.61347 621.28>
LayerCount: 2
Fore
SplineSet
640 608 m 1,0,-1
 128 960 l 1,1,-1
 224 1088 l 1,2,-1
 768 704 l 1,3,-1
 768 512 l 1,4,-1
 224 128 l 1,5,-1
 128 256 l 1,6,-1
 640 608 l 1,0,-1
1088 608 m 1,7,-1
 576 960 l 1,8,-1
 672 1088 l 1,9,-1
 1216 704 l 1,10,-1
 1216 512 l 1,11,-1
 672 128 l 1,12,-1
 576 256 l 1,13,-1
 1088 608 l 1,7,-1
EndSplineSet
EndChar

StartChar: AE
Encoding: 198 198 139
Width: 3072
GlyphClass: 2
Flags: W
HStem: 0 160<1664 2944> 352 160<704 1472> 704 160<1664 2880> 1376 160<1664 2944>
VStem: 0 256<0 256> 1472 192<160 352 512 704 864 1376>
DStem2: 0 0 256 0 0.675725 0.737154<172.986 652.75 853.133 1774.01>
LayerCount: 2
Fore
SplineSet
1472 0 m 1,0,-1
 1472 352 l 1,1,-1
 582 352 l 1,2,-1
 256 0 l 1,3,-1
 0 0 l 1,4,-1
 1408 1536 l 1,5,-1
 2944 1536 l 1,6,-1
 2944 1376 l 1,7,-1
 1664 1376 l 1,8,-1
 1664 864 l 1,9,-1
 2880 864 l 1,10,-1
 2880 704 l 1,11,-1
 1664 704 l 1,12,-1
 1664 160 l 1,13,-1
 2944 160 l 1,14,-1
 2944 0 l 1,15,-1
 1472 0 l 1,0,-1
1472 512 m 1,16,-1
 1472 1376 l 1,17,-1
 704 512 l 1,18,-1
 1472 512 l 1,16,-1
EndSplineSet
EndChar

StartChar: Ccedilla
Encoding: 199 199 140
Width: 2111
GlyphClass: 2
Flags: W
HStem: -544 160<959 1139.65> -32 160<456.678 959 1087 1658.06> 1408 160<456.678 1657.27>
VStem: 128 192<265.621 1272.77> 959 128<-128 -32> 1151 192<-370.345 -250.926> 1791 192<250.36 512 1056 1284.25>
LayerCount: 2
Fore
SplineSet
959 -384 m 1,0,1
 1007 -384 1007 -384 1043 -382.5 c 128,-1,2
 1079 -381 1079 -381 1103 -372 c 128,-1,3
 1127 -363 1127 -363 1139 -343.5 c 128,-1,4
 1151 -324 1151 -324 1151 -288 c 0,5,6
 1151 -276 1151 -276 1148 -264.5 c 128,-1,7
 1145 -253 1145 -253 1127 -244 c 128,-1,8
 1109 -235 1109 -235 1070 -229.5 c 128,-1,9
 1031 -224 1031 -224 959 -224 c 1,10,-1
 959 -32 l 1,11,-1
 831 -32 l 2,12,13
 655 -32 655 -32 534.5 -10.5 c 128,-1,14
 414 11 414 11 336 54.5 c 128,-1,15
 258 98 258 98 215.5 164 c 128,-1,16
 173 230 173 230 153.5 319 c 128,-1,17
 134 408 134 408 131 520 c 128,-1,18
 128 632 128 632 128 768 c 256,19,20
 128 904 128 904 131 1016 c 128,-1,21
 134 1128 134 1128 153.5 1217 c 128,-1,22
 173 1306 173 1306 215.5 1372 c 128,-1,23
 258 1438 258 1438 336 1481.5 c 128,-1,24
 414 1525 414 1525 534.5 1546.5 c 128,-1,25
 655 1568 655 1568 831 1568 c 2,26,-1
 1280 1568 l 2,27,28
 1424 1568 1424 1568 1532 1554.5 c 128,-1,29
 1640 1541 1640 1541 1718 1513.5 c 128,-1,30
 1796 1486 1796 1486 1847 1444 c 128,-1,31
 1898 1402 1898 1402 1928.5 1345 c 128,-1,32
 1959 1288 1959 1288 1971 1216 c 128,-1,33
 1983 1144 1983 1144 1983 1056 c 1,34,-1
 1791 1056 l 1,35,36
 1791 1176 1791 1176 1765 1246 c 128,-1,37
 1739 1316 1739 1316 1679 1352 c 128,-1,38
 1619 1388 1619 1388 1521.5 1398 c 128,-1,39
 1424 1408 1424 1408 1280 1408 c 2,40,-1
 831 1408 l 2,41,42
 703 1408 703 1408 615.5 1400.5 c 128,-1,43
 528 1393 528 1393 471 1370 c 128,-1,44
 414 1347 414 1347 383 1304 c 128,-1,45
 352 1261 352 1261 338 1190 c 128,-1,46
 324 1119 324 1119 322 1015.5 c 128,-1,47
 320 912 320 912 320 768 c 256,48,49
 320 624 320 624 322.5 520.5 c 128,-1,50
 325 417 325 417 339 346 c 128,-1,51
 353 275 353 275 383.5 232 c 128,-1,52
 414 189 414 189 471 166 c 128,-1,53
 528 143 528 143 615.5 135.5 c 128,-1,54
 703 128 703 128 831 128 c 2,55,-1
 1280 128 l 2,56,57
 1392 128 1392 128 1473 134 c 128,-1,58
 1554 140 1554 140 1611 156 c 128,-1,59
 1668 172 1668 172 1703 200 c 128,-1,60
 1738 228 1738 228 1757.5 270.5 c 128,-1,61
 1777 313 1777 313 1784 372.5 c 128,-1,62
 1791 432 1791 432 1791 512 c 1,63,-1
 1983 512 l 1,64,65
 1983 416 1983 416 1971 338.5 c 128,-1,66
 1959 261 1959 261 1928.5 200.5 c 128,-1,67
 1898 140 1898 140 1847 96 c 128,-1,68
 1796 52 1796 52 1718 23.5 c 128,-1,69
 1640 -5 1640 -5 1532 -18.5 c 128,-1,70
 1424 -32 1424 -32 1280 -32 c 2,71,-1
 1087 -32 l 1,72,-1
 1087 -128 l 1,73,74
 1135 -128 1135 -128 1181 -135 c 128,-1,75
 1227 -142 1227 -142 1263 -160 c 128,-1,76
 1299 -178 1299 -178 1321 -209 c 128,-1,77
 1343 -240 1343 -240 1343 -288 c 0,78,79
 1343 -372 1343 -372 1310 -422.5 c 128,-1,80
 1277 -473 1277 -473 1223 -500 c 128,-1,81
 1169 -527 1169 -527 1100 -535.5 c 128,-1,82
 1031 -544 1031 -544 959 -544 c 1,83,-1
 959 -384 l 1,0,1
EndSplineSet
EndChar

StartChar: Eth
Encoding: 208 208 149
Width: 2112
GlyphClass: 2
Flags: W
HStem: 0 160<1279 1659.97> 1376 160<1279 1659.97>
VStem: 1792 192<292.666 532.5 1003.5 1243.33>
LayerCount: 2
Fore
SplineSet
0 704 m 1,0,-1
 128 704 l 1,1,-1
 128 0 l 1,2,-1
 1279 0 l 2,3,4
 1455 0 1455 0 1575.5 20.5 c 128,-1,5
 1696 41 1696 41 1774.5 83 c 128,-1,6
 1853 125 1853 125 1895.5 188 c 128,-1,7
 1938 251 1938 251 1957.5 336.5 c 128,-1,8
 1977 422 1977 422 1980.5 529.5 c 128,-1,9
 1984 637 1984 637 1984 768 c 256,10,11
 1984 899 1984 899 1980.5 1006.5 c 128,-1,12
 1977 1114 1977 1114 1957.5 1199.5 c 128,-1,13
 1938 1285 1938 1285 1895.5 1348 c 128,-1,14
 1853 1411 1853 1411 1774.5 1453 c 128,-1,15
 1696 1495 1696 1495 1575.5 1515.5 c 128,-1,16
 1455 1536 1455 1536 1279 1536 c 2,17,-1
 128 1536 l 1,18,-1
 128 864 l 1,19,-1
 0 864 l 1,20,-1
 0 704 l 1,0,-1
320 160 m 1,21,-1
 320 704 l 1,22,-1
 768 704 l 1,23,-1
 768 864 l 1,24,-1
 320 864 l 1,25,-1
 320 1376 l 1,26,-1
 1279 1376 l 2,27,28
 1407 1376 1407 1376 1494.5 1369 c 128,-1,29
 1582 1362 1582 1362 1639 1340.5 c 128,-1,30
 1696 1319 1696 1319 1727 1278 c 128,-1,31
 1758 1237 1758 1237 1772.5 1169.5 c 128,-1,32
 1787 1102 1787 1102 1789.5 1003.5 c 128,-1,33
 1792 905 1792 905 1792 768 c 256,34,35
 1792 631 1792 631 1789.5 532.5 c 128,-1,36
 1787 434 1787 434 1772.5 366.5 c 128,-1,37
 1758 299 1758 299 1727 258 c 128,-1,38
 1696 217 1696 217 1639 195.5 c 128,-1,39
 1582 174 1582 174 1494 167 c 128,-1,40
 1406 160 1406 160 1279 160 c 2,41,-1
 320 160 l 1,21,-1
EndSplineSet
EndChar

StartChar: multiply
Encoding: 215 215 156
Width: 1344
GlyphClass: 2
Flags: W
HStem: 728 272<536 808>
VStem: 536 272<728 1000>
DStem2: 355 1317 219 1181 0.707107 -0.707107<0 448.306 640.639 1088.94> 219 547 355 411 0.707107 0.707107<0 448.306 640.639 1088.94>
LayerCount: 2
Fore
SplineSet
1125 1181 m 1,0,-1
 989 1317 l 1,1,-1
 672 1000 l 1,2,-1
 355 1317 l 1,3,-1
 219 1181 l 1,4,-1
 536 864 l 1,5,-1
 219 547 l 1,6,-1
 355 411 l 1,7,-1
 672 728 l 1,8,-1
 989 411 l 1,9,-1
 1125 547 l 1,10,-1
 808 864 l 1,11,-1
 1125 1181 l 1,0,-1
EndSplineSet
EndChar

StartChar: Oslash
Encoding: 216 216 157
Width: 2241
GlyphClass: 2
Flags: W
HStem: -32 160<457.463 769 1019 1784.32> 1408 160<457.678 1349>
VStem: 129 192<265.621 1272.77> 1921 192<265.621 1270.38>
DStem2: 704 -192 864 -256 0.373968 0.927441<0.478679 173.626 414.581 1725.12 1959.38 2139.22> 1596 1561 1625 1400 0.993454 -0.114233<0 260.601>
LayerCount: 2
Fore
SplineSet
1410 1568 m 1,0,-1
 1414 1568 l 1,1,-1
 1504 1792 l 1,2,-1
 1664 1728 l 1,3,-1
 1596 1561 l 1,4,5
 1656 1555 1656 1555 1706 1546 c 0,6,7
 1827 1525 1827 1525 1905 1481.5 c 128,-1,8
 1983 1438 1983 1438 2025 1372 c 128,-1,9
 2067 1306 2067 1306 2086.5 1217 c 128,-1,10
 2106 1128 2106 1128 2109.5 1016 c 128,-1,11
 2113 904 2113 904 2113 768 c 256,12,13
 2113 632 2113 632 2109.5 520 c 128,-1,14
 2106 408 2106 408 2086.5 319 c 128,-1,15
 2067 230 2067 230 2025 164 c 128,-1,16
 1983 98 1983 98 1905 54.5 c 128,-1,17
 1827 11 1827 11 1706.5 -10.5 c 128,-1,18
 1586 -32 1586 -32 1410 -32 c 2,19,-1
 954 -32 l 1,20,-1
 864 -256 l 1,21,-1
 704 -192 l 1,22,-1
 769 -31 l 1,23,24
 634 -28 634 -28 535 -10 c 0,25,26
 415 11 415 11 337 54.5 c 128,-1,27
 259 98 259 98 216.5 164 c 128,-1,28
 174 230 174 230 154.5 319 c 128,-1,29
 135 408 135 408 132 520 c 128,-1,30
 129 632 129 632 129 768 c 256,31,32
 129 904 129 904 132 1016 c 128,-1,33
 135 1128 135 1128 154.5 1217 c 128,-1,34
 174 1306 174 1306 216.5 1372 c 128,-1,35
 259 1438 259 1438 337 1481.5 c 128,-1,36
 415 1525 415 1525 535.5 1546.5 c 128,-1,37
 656 1568 656 1568 832 1568 c 2,38,-1
 1410 1568 l 1,0,-1
616 1400 m 0,39,40
 529 1393 529 1393 472 1370 c 128,-1,41
 415 1347 415 1347 384 1304 c 128,-1,42
 353 1261 353 1261 339 1190 c 128,-1,43
 325 1119 325 1119 323 1015.5 c 128,-1,44
 321 912 321 912 321 768 c 256,45,46
 321 624 321 624 323.5 520.5 c 128,-1,47
 326 417 326 417 340 346 c 128,-1,48
 354 275 354 275 384.5 232 c 128,-1,49
 415 189 415 189 472 166 c 128,-1,50
 529 143 529 143 616.5 135.5 c 128,-1,51
 704 128 704 128 832 128 c 2,52,-1
 833 128 l 1,53,-1
 1349 1408 l 1,54,-1
 832 1408 l 2,55,56
 704 1408 704 1408 616 1400 c 0,39,40
1410 128 m 2,57,58
 1537 128 1537 128 1624.5 135.5 c 128,-1,59
 1712 143 1712 143 1769 166 c 128,-1,60
 1826 189 1826 189 1857 232 c 128,-1,61
 1888 275 1888 275 1902 346 c 128,-1,62
 1916 417 1916 417 1918.5 520.5 c 128,-1,63
 1921 624 1921 624 1921 768 c 256,64,65
 1921 912 1921 912 1918.5 1015.5 c 128,-1,66
 1916 1119 1916 1119 1902 1190 c 128,-1,67
 1888 1261 1888 1261 1857 1304 c 128,-1,68
 1826 1347 1826 1347 1769.5 1370 c 128,-1,69
 1713 1393 1713 1393 1625 1400 c 0,70,71
 1584 1404 1584 1404 1534 1406 c 1,72,-1
 1019 128 l 1,73,-1
 1410 128 l 2,57,58
EndSplineSet
EndChar

StartChar: Thorn
Encoding: 222 222 163
Width: 1920
GlyphClass: 2
Flags: W
HStem: 416 160<1151 1581.72> 1184 160<1282 1595.19>
VStem: 1664 192<649.524 775.5 1008 1122.55>
LayerCount: 2
Fore
SplineSet
128 0 m 1,0,-1
 320 0 l 1,1,-1
 320 416 l 1,2,-1
 1151 416 l 2,3,4
 1327 416 1327 416 1447.5 430 c 128,-1,5
 1568 444 1568 444 1646.5 471 c 128,-1,6
 1725 498 1725 498 1767.5 538.5 c 128,-1,7
 1810 579 1810 579 1829.5 632.5 c 128,-1,8
 1849 686 1849 686 1852.5 752 c 128,-1,9
 1856 818 1856 818 1856 896 c 0,10,11
 1856 971 1856 971 1853.5 1033 c 128,-1,12
 1851 1095 1851 1095 1835 1145 c 128,-1,13
 1819 1195 1819 1195 1784.5 1232 c 128,-1,14
 1750 1269 1750 1269 1686 1294 c 128,-1,15
 1622 1319 1622 1319 1523.5 1331.5 c 128,-1,16
 1425 1344 1425 1344 1282 1344 c 2,17,-1
 320 1344 l 1,18,-1
 320 1536 l 1,19,-1
 128 1536 l 1,20,-1
 128 0 l 1,0,-1
320 1184 m 1,21,-1
 1151 1184 l 2,22,23
 1279 1184 1279 1184 1366.5 1181 c 128,-1,24
 1454 1178 1454 1178 1511 1167.5 c 128,-1,25
 1568 1157 1568 1157 1599 1138 c 128,-1,26
 1630 1119 1630 1119 1644.5 1087 c 128,-1,27
 1659 1055 1659 1055 1661.5 1008 c 128,-1,28
 1664 961 1664 961 1664 896 c 0,29,30
 1664 826 1664 826 1661.5 775.5 c 128,-1,31
 1659 725 1659 725 1644.5 689 c 128,-1,32
 1630 653 1630 653 1599 631 c 128,-1,33
 1568 609 1568 609 1511 597 c 128,-1,34
 1454 585 1454 585 1366.5 580.5 c 128,-1,35
 1279 576 1279 576 1151 576 c 2,36,-1
 320 576 l 1,37,-1
 320 1184 l 1,21,-1
EndSplineSet
EndChar

StartChar: germandbls
Encoding: 223 223 164
Width: 2048
GlyphClass: 2
Flags: W
HStem: 0 160<1279 1627.44> 736 160<1215 1521.87> 1376 160<420.562 769 1216 1518.93>
VStem: 128 192<1180.5 1284.16> 1600 192<969.52 1061 1174 1303.8> 1728 192<251.837 355 478 659.089>
LayerCount: 2
Fore
SplineSet
769 1536 m 2,0,1
 625 1536 625 1536 521.5 1523 c 128,-1,2
 418 1510 418 1510 346.5 1483.5 c 128,-1,3
 275 1457 275 1457 232 1417 c 128,-1,4
 189 1377 189 1377 166 1324 c 128,-1,5
 143 1271 143 1271 135.5 1204.5 c 128,-1,6
 128 1138 128 1138 128 1058 c 2,7,-1
 128 -128 l 1,8,-1
 320 -128 l 1,9,-1
 320 1058 l 2,10,11
 320 1129 320 1129 327 1180.5 c 128,-1,12
 334 1232 334 1232 353.5 1267.5 c 128,-1,13
 373 1303 373 1303 408 1324.5 c 128,-1,14
 443 1346 443 1346 500 1357.5 c 128,-1,15
 557 1369 557 1369 639 1372.5 c 128,-1,16
 721 1376 721 1376 833 1376 c 2,17,-1
 1216 1376 l 2,18,19
 1312 1376 1312 1376 1384 1368.5 c 128,-1,20
 1456 1361 1456 1361 1504 1339.5 c 128,-1,21
 1552 1318 1552 1318 1576 1278 c 128,-1,22
 1600 1238 1600 1238 1600 1174 c 0,23,24
 1600 1085 1600 1085 1586 1030.5 c 128,-1,25
 1572 976 1572 976 1530.5 946 c 128,-1,26
 1489 916 1489 916 1413.5 906 c 128,-1,27
 1338 896 1338 896 1215 896 c 2,28,-1
 512 896 l 1,29,-1
 512 736 l 1,30,-1
 1215 736 l 2,31,32
 1327 736 1327 736 1409 732.5 c 128,-1,33
 1491 729 1491 729 1548 719 c 128,-1,34
 1605 709 1605 709 1640 691.5 c 128,-1,35
 1675 674 1675 674 1694.5 645.5 c 128,-1,36
 1714 617 1714 617 1721 575.5 c 128,-1,37
 1728 534 1728 534 1728 478 c 0,38,39
 1728 406 1728 406 1721 355 c 128,-1,40
 1714 304 1714 304 1694.5 268.5 c 128,-1,41
 1675 233 1675 233 1640 211.5 c 128,-1,42
 1605 190 1605 190 1548 178.5 c 128,-1,43
 1491 167 1491 167 1409 163.5 c 128,-1,44
 1327 160 1327 160 1215 160 c 2,45,-1
 512 160 l 1,46,-1
 512 0 l 1,47,-1
 1279 0 l 2,48,49
 1423 0 1423 0 1526.5 13 c 128,-1,50
 1630 26 1630 26 1701.5 52.5 c 128,-1,51
 1773 79 1773 79 1816 119 c 128,-1,52
 1859 159 1859 159 1882 212 c 128,-1,53
 1905 265 1905 265 1912.5 331.5 c 128,-1,54
 1920 398 1920 398 1920 478 c 0,55,56
 1920 544 1920 544 1906 594.5 c 128,-1,57
 1892 645 1892 645 1869.5 682.5 c 128,-1,58
 1847 720 1847 720 1818.5 745.5 c 128,-1,59
 1790 771 1790 771 1760 788 c 0,60,61
 1690 827 1690 827 1600 832 c 1,62,63
 1654 837 1654 837 1696 875 c 0,64,65
 1714 891 1714 891 1731 915.5 c 128,-1,66
 1748 940 1748 940 1761.5 976 c 128,-1,67
 1775 1012 1775 1012 1783.5 1061 c 128,-1,68
 1792 1110 1792 1110 1792 1174 c 0,69,70
 1792 1262 1792 1262 1766 1330 c 128,-1,71
 1740 1398 1740 1398 1680 1443.5 c 128,-1,72
 1620 1489 1620 1489 1522 1512.5 c 128,-1,73
 1424 1536 1424 1536 1280 1536 c 2,74,-1
 769 1536 l 2,0,1
EndSplineSet
EndChar

StartChar: ae
Encoding: 230 230 171
Width: 2752
GlyphClass: 2
Flags: W
HStem: -36 164<390.033 1157.01 1612.17 2358.05> 496 163<368.307 1156.01> 512 128<1472 2432> 960 160<458.93 1153.64 1599.63 2292.8>
VStem: 128 192<207.069 430.943> 192 192<768 893.36> 1280 192<259.934 400.45 640 830.599> 2432 192<192.846 320 640 835.888>
LayerCount: 2
Fore
SplineSet
1984 -32 m 0,0,1
 1869 -32 1869 -32 1775.5 -23 c 128,-1,2
 1682 -14 1682 -14 1607.5 7 c 128,-1,3
 1533 28 1533 28 1477 61.5 c 128,-1,4
 1421 95 1421 95 1382 145 c 1,5,6
 1354 108 1354 108 1309 78 c 0,7,8
 1277 57 1277 57 1232 36.5 c 128,-1,9
 1187 16 1187 16 1125.5 0 c 128,-1,10
 1064 -16 1064 -16 984 -26 c 128,-1,11
 904 -36 904 -36 802 -36 c 0,12,13
 621 -36 621 -36 493 -17 c 128,-1,14
 365 2 365 2 284 42.5 c 128,-1,15
 203 83 203 83 165.5 145 c 128,-1,16
 128 207 128 207 128 293 c 0,17,18
 128 380 128 380 148.5 440.5 c 128,-1,19
 169 501 169 501 208.5 542 c 128,-1,20
 248 583 248 583 304 606 c 128,-1,21
 360 629 360 629 431.5 641 c 128,-1,22
 503 653 503 653 588 656 c 128,-1,23
 673 659 673 659 769 659 c 0,24,25
 853 659 853 659 919.5 654 c 128,-1,26
 986 649 986 649 1038 641 c 128,-1,27
 1090 633 1090 633 1128 622.5 c 128,-1,28
 1166 612 1166 612 1193 601 c 0,29,30
 1256 575 1256 575 1280 544 c 1,31,32
 1280 640 1280 640 1270.5 708 c 128,-1,33
 1261 776 1261 776 1239.5 822.5 c 128,-1,34
 1218 869 1218 869 1184 896 c 128,-1,35
 1150 923 1150 923 1100.5 937.5 c 128,-1,36
 1051 952 1051 952 985 956 c 128,-1,37
 919 960 919 960 834 960 c 0,38,39
 702 960 702 960 615 952.5 c 128,-1,40
 528 945 528 945 477 924 c 128,-1,41
 426 903 426 903 405 865.5 c 128,-1,42
 384 828 384 828 384 768 c 1,43,-1
 192 768 l 1,44,45
 192 864 192 864 224.5 931 c 128,-1,46
 257 998 257 998 332.5 1040 c 128,-1,47
 408 1082 408 1082 531 1101 c 128,-1,48
 654 1120 654 1120 834 1120 c 0,49,50
 939 1120 939 1120 1023.5 1112 c 128,-1,51
 1108 1104 1108 1104 1175 1080 c 128,-1,52
 1242 1056 1242 1056 1293 1012 c 128,-1,53
 1344 968 1344 968 1382 896 c 1,54,55
 1416 968 1416 968 1471 1012 c 128,-1,56
 1526 1056 1526 1056 1602 1080 c 128,-1,57
 1678 1104 1678 1104 1773.5 1112 c 128,-1,58
 1869 1120 1869 1120 1984 1120 c 0,59,60
 2121 1120 2121 1120 2221.5 1101.5 c 128,-1,61
 2322 1083 2322 1083 2393.5 1049 c 128,-1,62
 2465 1015 2465 1015 2509.5 966 c 128,-1,63
 2554 917 2554 917 2579.5 857 c 128,-1,64
 2605 797 2605 797 2614.5 726 c 128,-1,65
 2624 655 2624 655 2624 576 c 1,66,-1
 2608 512 l 1,67,-1
 1472 512 l 1,68,-1
 1472 486 l 1,69,70
 1474 363 1474 363 1501.5 291.5 c 128,-1,71
 1529 220 1529 220 1589.5 184 c 128,-1,72
 1650 148 1650 148 1746.5 138 c 128,-1,73
 1843 128 1843 128 1984 128 c 0,74,75
 2116 128 2116 128 2202.5 135.5 c 128,-1,76
 2289 143 2289 143 2340 164 c 128,-1,77
 2391 185 2391 185 2411.5 222.5 c 128,-1,78
 2432 260 2432 260 2432 320 c 1,79,-1
 2624 320 l 1,80,81
 2624 224 2624 224 2591.5 157 c 128,-1,82
 2559 90 2559 90 2484 48 c 128,-1,83
 2409 6 2409 6 2286.5 -13 c 128,-1,84
 2164 -32 2164 -32 1984 -32 c 0,0,1
834 128 m 0,85,86
 961 128 961 128 1046.5 140 c 128,-1,87
 1132 152 1132 152 1184 176 c 128,-1,88
 1236 200 1236 200 1258 236 c 128,-1,89
 1280 272 1280 272 1280 320 c 256,90,91
 1280 368 1280 368 1254.5 401.5 c 128,-1,92
 1229 435 1229 435 1169.5 456 c 128,-1,93
 1110 477 1110 477 1012 486.5 c 128,-1,94
 914 496 914 496 770 496 c 256,95,96
 626 496 626 496 537.5 491 c 128,-1,97
 449 486 449 486 401 468 c 128,-1,98
 353 450 353 450 336.5 415 c 128,-1,99
 320 380 320 380 320 320 c 256,100,101
 320 260 320 260 337.5 222.5 c 128,-1,102
 355 185 355 185 409 164 c 128,-1,103
 463 143 463 143 564.5 135.5 c 128,-1,104
 666 128 666 128 834 128 c 0,85,86
1984 960 m 0,105,106
 1840 960 1840 960 1742 950.5 c 128,-1,107
 1644 941 1644 941 1584 908 c 128,-1,108
 1524 875 1524 875 1498 811.5 c 128,-1,109
 1472 748 1472 748 1472 640 c 1,110,-1
 2432 640 l 1,111,112
 2432 736 2432 736 2407 798 c 128,-1,113
 2382 860 2382 860 2328 896 c 128,-1,114
 2274 932 2274 932 2189 946 c 128,-1,115
 2104 960 2104 960 1984 960 c 0,105,106
EndSplineSet
EndChar

StartChar: ccedilla
Encoding: 231 231 172
Width: 1601
GlyphClass: 2
Flags: W
HStem: -544 160<704 884.647> -32 160<451.955 617.5 833 1182.85> 960 160<451.955 617.5 833 1182.85>
VStem: 128 193<240.369 847.631> 896 192<-370.345 -250.926> 1279 194<204.924 384 704 883.076>
LayerCount: 2
Fore
SplineSet
704 -544 m 1,0,1
 776 -544 776 -544 845 -535.5 c 128,-1,2
 914 -527 914 -527 968 -500 c 128,-1,3
 1022 -473 1022 -473 1055 -422.5 c 128,-1,4
 1088 -372 1088 -372 1088 -288 c 0,5,6
 1088 -240 1088 -240 1066 -209 c 128,-1,7
 1044 -178 1044 -178 1008 -160 c 128,-1,8
 972 -142 972 -142 926 -135 c 128,-1,9
 880 -128 880 -128 832 -128 c 1,10,-1
 832 -32 l 1,11,-1
 833 -32 l 2,12,13
 1025 -32 1025 -32 1149 -7.5 c 128,-1,14
 1273 17 1273 17 1345 68 c 128,-1,15
 1417 119 1417 119 1445 197.5 c 128,-1,16
 1473 276 1473 276 1473 384 c 1,17,-1
 1281 384 l 1,18,19
 1281 344 1281 344 1279 309.5 c 128,-1,20
 1277 275 1277 275 1264.5 246.5 c 128,-1,21
 1252 218 1252 218 1225 196 c 128,-1,22
 1198 174 1198 174 1148 159 c 128,-1,23
 1098 144 1098 144 1021.5 136 c 128,-1,24
 945 128 945 128 833 128 c 0,25,26
 705 128 705 128 617.5 136.5 c 128,-1,27
 530 145 530 145 473 164.5 c 128,-1,28
 416 184 416 184 385 216 c 128,-1,29
 354 248 354 248 340 294 c 128,-1,30
 326 340 326 340 323.5 402 c 128,-1,31
 321 464 321 464 321 544 c 256,32,33
 321 624 321 624 323.5 686 c 128,-1,34
 326 748 326 748 340 794 c 128,-1,35
 354 840 354 840 385 872 c 128,-1,36
 416 904 416 904 473 923.5 c 128,-1,37
 530 943 530 943 617.5 951.5 c 128,-1,38
 705 960 705 960 833 960 c 0,39,40
 945 960 945 960 1021.5 952 c 128,-1,41
 1098 944 1098 944 1148 929 c 128,-1,42
 1198 914 1198 914 1225 892 c 128,-1,43
 1252 870 1252 870 1264.5 841.5 c 128,-1,44
 1277 813 1277 813 1279 778.5 c 128,-1,45
 1281 744 1281 744 1281 704 c 1,46,-1
 1473 704 l 1,47,48
 1473 812 1473 812 1445 890.5 c 128,-1,49
 1417 969 1417 969 1345 1020 c 128,-1,50
 1273 1071 1273 1071 1149 1095.5 c 128,-1,51
 1025 1120 1025 1120 833 1120 c 0,52,53
 689 1120 689 1120 581 1108.5 c 128,-1,54
 473 1097 473 1097 394.5 1070.5 c 128,-1,55
 316 1044 316 1044 264.5 1000 c 128,-1,56
 213 956 213 956 182.5 892 c 128,-1,57
 152 828 152 828 140 742 c 128,-1,58
 128 656 128 656 128 544 c 128,-1,59
 128 432 128 432 140 346 c 128,-1,60
 152 260 152 260 182.5 196 c 128,-1,61
 213 132 213 132 264.5 88 c 128,-1,62
 316 44 316 44 394.5 17.5 c 128,-1,63
 473 -9 473 -9 581 -20 c 0,64,65
 637 -26 637 -26 704 -29 c 1,66,-1
 704 -224 l 1,67,68
 776 -224 776 -224 815 -229.5 c 128,-1,69
 854 -235 854 -235 872 -244 c 128,-1,70
 890 -253 890 -253 893 -264.5 c 128,-1,71
 896 -276 896 -276 896 -288 c 0,72,73
 896 -324 896 -324 884 -343.5 c 128,-1,74
 872 -363 872 -363 848 -372 c 128,-1,75
 824 -381 824 -381 788 -382.5 c 128,-1,76
 752 -384 752 -384 704 -384 c 1,77,-1
 704 -544 l 1,0,1
EndSplineSet
EndChar

StartChar: eth
Encoding: 240 240 181
Width: 1984
GlyphClass: 2
Flags: W
HStem: -32 160<444.68 831 1152 1516.35> 768 160<444.68 831 1277 1534.95> 1408 160<545.17 752 1024 1426.1>
VStem: 128 192<232.423 661.677> 193 159<1197 1282.58> 1664 188.5<260.53 676.104 832 1132.36>
DStem2: 1281 1146 1324 1026 0.943372 0.331735<0.756771 316.621 501.922 768.31>
LayerCount: 2
Fore
SplineSet
1324 1026 m 1,0,-1
 1631 1136 l 1,1,2
 1664 1020 1664 1020 1664 832 c 1,3,4
 1638 848 1638 848 1605.5 861 c 128,-1,5
 1573 874 1573 874 1528 885 c 128,-1,6
 1483 896 1483 896 1422 904 c 128,-1,7
 1361 912 1361 912 1277 917.5 c 128,-1,8
 1193 923 1193 923 1083 925.5 c 128,-1,9
 973 928 973 928 831 928 c 0,10,11
 615 928 615 928 478 898 c 128,-1,12
 341 868 341 868 263.5 808 c 128,-1,13
 186 748 186 748 157 658 c 128,-1,14
 128 568 128 568 128 448 c 256,15,16
 128 328 128 328 157 238 c 128,-1,17
 186 148 186 148 263.5 88 c 128,-1,18
 341 28 341 28 478 -2 c 128,-1,19
 615 -32 615 -32 831 -32 c 2,20,-1
 1152 -32 l 2,21,22
 1328 -32 1328 -32 1448.5 -10.5 c 128,-1,23
 1569 11 1569 11 1647.5 54.5 c 128,-1,24
 1726 98 1726 98 1768 164 c 128,-1,25
 1810 230 1810 230 1829.5 319 c 128,-1,26
 1849 408 1849 408 1852.5 520 c 128,-1,27
 1856 632 1856 632 1856 768 c 0,28,29
 1856 899 1856 899 1842 1005 c 128,-1,30
 1828 1111 1828 1111 1796 1196 c 1,31,-1
 2047 1286 l 1,32,-1
 2004 1406 l 1,33,-1
 1739 1311 l 1,34,35
 1694 1378 1694 1378 1629.5 1427 c 128,-1,36
 1565 1476 1565 1476 1477.5 1507 c 128,-1,37
 1390 1538 1390 1538 1277.5 1553 c 128,-1,38
 1165 1568 1165 1568 1024 1568 c 0,39,40
 848 1568 848 1568 718 1555 c 128,-1,41
 588 1542 588 1542 495.5 1516 c 128,-1,42
 403 1490 403 1490 344 1452 c 128,-1,43
 285 1414 285 1414 251.5 1364 c 128,-1,44
 218 1314 218 1314 205.5 1253 c 128,-1,45
 193 1192 193 1192 193 1120 c 1,46,-1
 352 1120 l 1,47,48
 352 1160 352 1160 357.5 1197 c 128,-1,49
 363 1234 363 1234 384 1266 c 128,-1,50
 405 1298 405 1298 448 1324 c 128,-1,51
 491 1350 491 1350 565.5 1369 c 128,-1,52
 640 1388 640 1388 752 1398 c 128,-1,53
 864 1408 864 1408 1024 1408 c 0,54,55
 1129 1408 1129 1408 1215.5 1403.5 c 128,-1,56
 1302 1399 1302 1399 1371 1383.5 c 128,-1,57
 1440 1368 1440 1368 1491.5 1337 c 128,-1,58
 1543 1306 1543 1306 1579 1253 c 1,59,-1
 1281 1146 l 1,60,-1
 1324 1026 l 1,0,-1
831 768 m 0,61,62
 1016 768 1016 768 1150 765.5 c 128,-1,63
 1284 763 1284 763 1376.5 754 c 128,-1,64
 1469 745 1469 745 1525.5 728 c 128,-1,65
 1582 711 1582 711 1613 682.5 c 128,-1,66
 1644 654 1644 654 1654 612 c 128,-1,67
 1664 570 1664 570 1664 512 c 0,68,69
 1664 392 1664 392 1643 317 c 128,-1,70
 1622 242 1622 242 1565.5 200 c 128,-1,71
 1509 158 1509 158 1409 143 c 128,-1,72
 1309 128 1309 128 1152 128 c 2,73,-1
 831 128 l 2,74,75
 719 128 719 128 637.5 134 c 128,-1,76
 556 140 556 140 499.5 154 c 128,-1,77
 443 168 443 168 407.5 192 c 128,-1,78
 372 216 372 216 352.5 251.5 c 128,-1,79
 333 287 333 287 326.5 335.5 c 128,-1,80
 320 384 320 384 320 448 c 256,81,82
 320 512 320 512 327 560.5 c 128,-1,83
 334 609 334 609 353.5 644.5 c 128,-1,84
 373 680 373 680 408 704 c 128,-1,85
 443 728 443 728 500 742 c 128,-1,86
 557 756 557 756 638 762 c 128,-1,87
 719 768 719 768 831 768 c 0,61,62
EndSplineSet
EndChar

StartChar: divide
Encoding: 247 247 188
Width: 1280
GlyphClass: 2
Flags: W
LayerCount: 2
Fore
SplineSet
128 512 m 1,0,-1
 1152 512 l 1,1,-1
 1152 672 l 1,2,-1
 128 672 l 1,3,-1
 128 512 l 1,0,-1
768 960 m 1,4,-1
 576 960 l 1,5,-1
 576 768 l 1,6,-1
 768 768 l 1,7,-1
 768 960 l 1,4,-1
768 384 m 1,8,-1
 576 384 l 1,9,-1
 576 192 l 1,10,-1
 768 192 l 1,11,-1
 768 384 l 1,8,-1
EndSplineSet
EndChar

StartChar: oslash
Encoding: 248 248 189
Width: 1664
GlyphClass: 2
Flags: W
HStem: -32 160<753.79 1198.65> 960 160<465.346 907.982>
VStem: 128 192<257.069 816.337> 1344 192<271.663 816.337>
DStem2: 448 -160 608 -224 0.38176 0.924261<1.92889 166.387 382.624 1210.62 1427.78 1592.62>
LayerCount: 2
Fore
SplineSet
128 544 m 256,0,1
 128 712 128 712 166 823 c 128,-1,2
 204 934 204 934 288 1000 c 128,-1,3
 372 1066 372 1066 506 1093 c 128,-1,4
 640 1120 640 1120 832 1120 c 0,5,6
 908 1120 908 1120 975 1115 c 1,7,-1
 1056 1312 l 1,8,-1
 1216 1248 l 1,9,-1
 1152 1094 l 1,10,11
 1155 1093 1155 1093 1158 1093 c 0,12,13
 1292 1066 1292 1066 1376 1000 c 128,-1,14
 1460 934 1460 934 1498 823 c 128,-1,15
 1536 712 1536 712 1536 544 c 256,16,17
 1536 376 1536 376 1498 265 c 128,-1,18
 1460 154 1460 154 1376 88 c 128,-1,19
 1292 22 1292 22 1158 -5 c 128,-1,20
 1024 -32 1024 -32 832 -32 c 0,21,22
 756 -32 756 -32 689 -27 c 1,23,-1
 608 -224 l 1,24,-1
 448 -160 l 1,25,-1
 511 -6 l 1,26,27
 509 -5 509 -5 506 -5 c 0,28,29
 372 22 372 22 288 88 c 128,-1,30
 204 154 204 154 166 265 c 128,-1,31
 128 376 128 376 128 544 c 256,0,1
320 544 m 0,32,33
 320 456 320 456 327 391 c 128,-1,34
 334 326 334 326 353.5 279.5 c 128,-1,35
 373 233 373 233 408 204 c 128,-1,36
 443 175 443 175 500 158 c 0,37,38
 532 148 532 148 572 141 c 1,39,-1
 910 959 l 1,40,41
 873 960 873 960 832 960 c 0,42,43
 688 960 688 960 590 949 c 128,-1,44
 492 938 492 938 432 896 c 128,-1,45
 372 854 372 854 346 771 c 128,-1,46
 320 688 320 688 320 544 c 0,32,33
832 128 m 0,47,48
 976 128 976 128 1074 139 c 128,-1,49
 1172 150 1172 150 1232 192 c 128,-1,50
 1292 234 1292 234 1318 317 c 128,-1,51
 1344 400 1344 400 1344 544 c 256,52,53
 1344 688 1344 688 1318 771 c 128,-1,54
 1292 854 1292 854 1232 896 c 0,55,56
 1177 934 1177 934 1091 946 c 1,57,-1
 753 128 l 1,58,59
 791 128 791 128 832 128 c 0,47,48
EndSplineSet
EndChar

StartChar: thorn
Encoding: 254 254 195
Width: 1600
GlyphClass: 2
Flags: W
HStem: -32 160<489.015 681.5 832 1202.59> 960 160<489.015 681.5 832 1202.59>
VStem: 128 192<272.398 817.725> 1344 192<254.71 833.29>
LayerCount: 2
Fore
SplineSet
832 1120 m 0,0,1
 748 1120 748 1120 681.5 1113 c 128,-1,2
 615 1106 615 1106 563 1095 c 128,-1,3
 511 1084 511 1084 473 1069.5 c 128,-1,4
 435 1055 435 1055 408 1040 c 0,5,6
 345 1005 345 1005 320 961 c 1,7,-1
 320 1536 l 1,8,-1
 128 1536 l 1,9,-1
 128 -384 l 1,10,-1
 320 -384 l 1,11,-1
 320 128 l 1,12,13
 345 83 345 83 408 48 c 0,14,15
 435 33 435 33 473 18.5 c 128,-1,16
 511 4 511 4 563 -7 c 128,-1,17
 615 -18 615 -18 681.5 -25 c 128,-1,18
 748 -32 748 -32 832 -32 c 0,19,20
 1024 -32 1024 -32 1158 -5 c 128,-1,21
 1292 22 1292 22 1376 88 c 128,-1,22
 1460 154 1460 154 1498 265 c 128,-1,23
 1536 376 1536 376 1536 544 c 256,24,25
 1536 712 1536 712 1498 823 c 128,-1,26
 1460 934 1460 934 1376 1000 c 128,-1,27
 1292 1066 1292 1066 1158 1093 c 128,-1,28
 1024 1120 1024 1120 832 1120 c 0,0,1
832 960 m 0,29,30
 944 960 944 960 1025.5 953.5 c 128,-1,31
 1107 947 1107 947 1164 930 c 128,-1,32
 1221 913 1221 913 1256.5 884 c 128,-1,33
 1292 855 1292 855 1311.5 808.5 c 128,-1,34
 1331 762 1331 762 1337.5 697 c 128,-1,35
 1344 632 1344 632 1344 544 c 256,36,37
 1344 456 1344 456 1337.5 391 c 128,-1,38
 1331 326 1331 326 1311.5 279.5 c 128,-1,39
 1292 233 1292 233 1256.5 204 c 128,-1,40
 1221 175 1221 175 1164 158 c 128,-1,41
 1107 141 1107 141 1025.5 134.5 c 128,-1,42
 944 128 944 128 832 128 c 0,43,44
 736 128 736 128 661 132 c 128,-1,45
 586 136 586 136 529 150.5 c 128,-1,46
 472 165 472 165 432.5 192.5 c 128,-1,47
 393 220 393 220 368 266.5 c 128,-1,48
 343 313 343 313 331.5 381.5 c 128,-1,49
 320 450 320 450 320 547 c 0,50,51
 320 642 320 642 331.5 710 c 128,-1,52
 343 778 343 778 368 823.5 c 128,-1,53
 393 869 393 869 432.5 896 c 128,-1,54
 472 923 472 923 529 937.5 c 128,-1,55
 586 952 586 952 661 956 c 128,-1,56
 736 960 736 960 832 960 c 0,29,30
EndSplineSet
EndChar

StartChar: dcroat
Encoding: 273 273 208
Width: 1664
GlyphClass: 2
Flags: W
HStem: -32 160<461.415 1176.26> 0 21G<1344 1536> 960 160<461.415 1174.98> 1249 160<896 1344 1536 1664> 1516 20G<1344 1536>
VStem: 128 192<254.71 833.29> 1344 192<0 127 270.275 815.602 960 1249 1409 1536>
LayerCount: 2
Fore
SplineSet
896 1409 m 1,0,-1
 1344 1409 l 1,1,-1
 1344 1536 l 1,2,-1
 1536 1536 l 1,3,-1
 1536 1409 l 1,4,-1
 1664 1409 l 1,5,-1
 1664 1249 l 1,6,-1
 1536 1249 l 1,7,-1
 1536 0 l 1,8,-1
 1344 0 l 1,9,-1
 1344 127 l 1,10,11
 1319 82 1319 82 1256 47 c 0,12,13
 1229 32 1229 32 1191 18 c 128,-1,14
 1153 4 1153 4 1101 -7.5 c 128,-1,15
 1049 -19 1049 -19 982.5 -25.5 c 128,-1,16
 916 -32 916 -32 832 -32 c 0,17,18
 640 -32 640 -32 506 -5 c 128,-1,19
 372 22 372 22 288 88 c 128,-1,20
 204 154 204 154 166 265 c 128,-1,21
 128 376 128 376 128 544 c 256,22,23
 128 712 128 712 166 823 c 128,-1,24
 204 934 204 934 288 1000 c 128,-1,25
 372 1066 372 1066 506 1093 c 128,-1,26
 640 1120 640 1120 832 1120 c 0,27,28
 916 1120 916 1120 982.5 1113 c 128,-1,29
 1049 1106 1049 1106 1101 1095 c 128,-1,30
 1153 1084 1153 1084 1191 1069.5 c 128,-1,31
 1229 1055 1229 1055 1256 1040 c 0,32,33
 1319 1005 1319 1005 1344 960 c 1,34,-1
 1344 1249 l 1,35,-1
 896 1249 l 1,36,-1
 896 1409 l 1,0,-1
832 128 m 0,37,38
 928 128 928 128 1003 132 c 128,-1,39
 1078 136 1078 136 1135 150.5 c 128,-1,40
 1192 165 1192 165 1231.5 192 c 128,-1,41
 1271 219 1271 219 1296 264.5 c 128,-1,42
 1321 310 1321 310 1332.5 378 c 128,-1,43
 1344 446 1344 446 1344 541 c 0,44,45
 1344 638 1344 638 1332.5 706.5 c 128,-1,46
 1321 775 1321 775 1296 821.5 c 128,-1,47
 1271 868 1271 868 1231.5 895.5 c 128,-1,48
 1192 923 1192 923 1135 937.5 c 128,-1,49
 1078 952 1078 952 1003 956 c 128,-1,50
 928 960 928 960 832 960 c 0,51,52
 720 960 720 960 638.5 953.5 c 128,-1,53
 557 947 557 947 500 930 c 128,-1,54
 443 913 443 913 407.5 884 c 128,-1,55
 372 855 372 855 352.5 808.5 c 128,-1,56
 333 762 333 762 326.5 697 c 128,-1,57
 320 632 320 632 320 544 c 256,58,59
 320 456 320 456 326.5 391 c 128,-1,60
 333 326 333 326 352.5 279.5 c 128,-1,61
 372 233 372 233 407.5 204 c 128,-1,62
 443 175 443 175 500 158 c 128,-1,63
 557 141 557 141 638.5 134.5 c 128,-1,64
 720 128 720 128 832 128 c 0,37,38
EndSplineSet
EndChar

StartChar: dotlessi
Encoding: 305 305 235
Width: 448
GlyphClass: 2
Flags: W
VStem: 128 192
LayerCount: 2
Fore
SplineSet
128 0 m 1,0,-1
 320 0 l 1,1,-1
 320 1088 l 1,2,-1
 128 1088 l 1,3,-1
 128 0 l 1,0,-1
EndSplineSet
EndChar

StartChar: kgreenlandic
Encoding: 312 312 242
Width: 1408
GlyphClass: 2
Flags: W
VStem: 1088 288<800 1088> 1120 288<0 288>
DStem2: 384 656 560 576 0.847064 0.531491<106.564 825.937> 560 576 384 512 0.827217 -0.561883<0 786.886>
LayerCount: 2
Fore
SplineSet
128 0 m 1,0,-1
 320 0 l 1,1,-1
 320 512 l 1,2,-1
 384 512 l 1,3,-1
 1120 0 l 1,4,-1
 1408 0 l 1,5,-1
 560 576 l 1,6,-1
 1376 1088 l 1,7,-1
 1088 1088 l 1,8,-1
 384 656 l 1,9,-1
 320 656 l 1,10,-1
 320 1536 l 1,11,-1
 128 1536 l 1,12,-1
 128 0 l 1,0,-1
EndSplineSet
EndChar

StartChar: Lslash
Encoding: 321 321 251
Width: 1664
GlyphClass: 2
Flags: W
HStem: 768 160<64 224> 928 160<608 768>
DStem2: 64 928 64 768 0.975133 0.221621<0 686.494>
LayerCount: 2
Fore
SplineSet
64 768 m 1,0,-1
 768 928 l 1,1,-1
 768 1088 l 1,2,-1
 64 928 l 1,3,-1
 64 768 l 1,0,-1
1600 0 m 1,4,-1
 1600 160 l 1,5,-1
 384 160 l 1,6,-1
 384 1536 l 1,7,-1
 192 1536 l 1,8,-1
 192 0 l 1,9,-1
 1600 0 l 1,4,-1
EndSplineSet
EndChar

StartChar: lslash
Encoding: 322 322 252
Width: 512
GlyphClass: 2
Flags: W
HStem: 768 160<0 160> 928 160<416 576>
VStem: 0 576
DStem2: 0 928 0 768 0.963518 0.267644<0 554.986>
LayerCount: 2
Fore
SplineSet
0 768 m 1,0,-1
 576 928 l 1,1,-1
 576 1088 l 1,2,-1
 0 928 l 1,3,-1
 0 768 l 1,0,-1
128 0 m 1,4,-1
 320 0 l 1,5,-1
 320 1536 l 1,6,-1
 128 1536 l 1,7,-1
 128 0 l 1,4,-1
EndSplineSet
EndChar

StartChar: OE
Encoding: 338 338 265
Width: 3520
GlyphClass: 2
Flags: W
HStem: -32 160<456.678 1780.63> 0 160<1273.53 1830.5 2112 3456> 704 160<2112 3392> 1376 160<1273.53 1830.5 2112 3456> 1404 160<450.102 1791.01>
VStem: 128 192<265.621 1272.77> 1920 192<264.871 704 864 1271.13>
LayerCount: 2
Fore
SplineSet
1920 0 m 1,0,-1
 1920 64 l 1,1,2
 1842 16 1842 16 1718 -8 c 128,-1,3
 1594 -32 1594 -32 1409 -32 c 2,4,-1
 831 -32 l 2,5,6
 655 -32 655 -32 534.5 -10.5 c 128,-1,7
 414 11 414 11 336 54.5 c 128,-1,8
 258 98 258 98 215.5 164 c 128,-1,9
 173 230 173 230 153.5 319 c 128,-1,10
 134 408 134 408 131 520 c 128,-1,11
 128 632 128 632 128 768 c 256,12,13
 128 904 128 904 131 1016 c 128,-1,14
 134 1128 134 1128 153.5 1217 c 128,-1,15
 173 1306 173 1306 215.5 1372 c 128,-1,16
 258 1438 258 1438 336 1481.5 c 128,-1,17
 414 1525 414 1525 534.5 1546.5 c 128,-1,18
 655 1568 655 1568 831 1564 c 1,19,-1
 1409 1564 l 1,20,21
 1594 1568 1594 1568 1718 1544 c 128,-1,22
 1842 1520 1842 1520 1920 1472 c 1,23,-1
 1920 1536 l 1,24,-1
 3456 1536 l 1,25,-1
 3456 1376 l 1,26,-1
 2112 1376 l 1,27,-1
 2112 864 l 1,28,-1
 3392 864 l 1,29,-1
 3392 704 l 1,30,-1
 2112 704 l 1,31,-1
 2112 160 l 1,32,-1
 3456 160 l 1,33,-1
 3456 0 l 1,34,-1
 1920 0 l 1,0,-1
1409 128 m 2,35,36
 1536 128 1536 128 1623.5 135.5 c 128,-1,37
 1711 143 1711 143 1768 166 c 128,-1,38
 1825 189 1825 189 1856 232 c 128,-1,39
 1887 275 1887 275 1901 346 c 128,-1,40
 1915 417 1915 417 1917.5 520.5 c 128,-1,41
 1920 624 1920 624 1920 768 c 256,42,43
 1920 912 1920 912 1917.5 1015.5 c 128,-1,44
 1915 1119 1915 1119 1901 1190 c 128,-1,45
 1887 1261 1887 1261 1856 1304 c 128,-1,46
 1825 1347 1825 1347 1768.5 1370 c 128,-1,47
 1712 1393 1712 1393 1624.5 1398.5 c 128,-1,48
 1537 1404 1537 1404 1409 1404 c 2,49,-1
 831 1404 l 1,50,51
 703 1408 703 1408 615.5 1400.5 c 128,-1,52
 528 1393 528 1393 471 1370 c 128,-1,53
 414 1347 414 1347 383 1304 c 128,-1,54
 352 1261 352 1261 338 1190 c 128,-1,55
 324 1119 324 1119 322 1015.5 c 128,-1,56
 320 912 320 912 320 768 c 256,57,58
 320 624 320 624 322.5 520.5 c 128,-1,59
 325 417 325 417 339 346 c 128,-1,60
 353 275 353 275 383.5 232 c 128,-1,61
 414 189 414 189 471 166 c 128,-1,62
 528 143 528 143 615.5 135.5 c 128,-1,63
 703 128 703 128 831 128 c 2,64,-1
 1409 128 l 2,35,36
EndSplineSet
EndChar

StartChar: oe
Encoding: 339 339 266
Width: 2816
GlyphClass: 2
Flags: W
HStem: -32 160<460.879 1172.08 1707.81 2422.24> 960 160<464.86 1173.93 1698.22 2357>
VStem: 128 192<257.069 816.337> 1344 192<271.826 512 640 816.668> 2496 192<192.846 320 640 835.888>
LayerCount: 2
Fore
SplineSet
128 544 m 256,0,1
 128 376 128 376 166 265 c 128,-1,2
 204 154 204 154 288 88 c 128,-1,3
 372 22 372 22 506 -5 c 128,-1,4
 640 -32 640 -32 832 -32 c 0,5,6
 949 -32 949 -32 1049.5 -15 c 128,-1,7
 1150 2 1150 2 1228.5 32 c 128,-1,8
 1307 62 1307 62 1361.5 103 c 128,-1,9
 1416 144 1416 144 1440 192 c 1,10,11
 1464 144 1464 144 1518 103 c 128,-1,12
 1572 62 1572 62 1651 32 c 128,-1,13
 1730 2 1730 2 1830.5 -15 c 128,-1,14
 1931 -32 1931 -32 2048 -32 c 0,15,16
 2228 -32 2228 -32 2350.5 -13 c 128,-1,17
 2473 6 2473 6 2548 48 c 128,-1,18
 2623 90 2623 90 2655.5 157 c 128,-1,19
 2688 224 2688 224 2688 320 c 1,20,-1
 2496 320 l 1,21,22
 2496 260 2496 260 2475.5 222.5 c 128,-1,23
 2455 185 2455 185 2404 164 c 128,-1,24
 2353 143 2353 143 2266.5 135.5 c 128,-1,25
 2180 128 2180 128 2048 128 c 0,26,27
 1904 128 1904 128 1806 138.5 c 128,-1,28
 1708 149 1708 149 1648 188 c 128,-1,29
 1588 227 1588 227 1562 303.5 c 128,-1,30
 1536 380 1536 380 1536 512 c 1,31,-1
 2672 512 l 1,32,-1
 2688 576 l 1,33,34
 2688 655 2688 655 2678.5 726 c 128,-1,35
 2669 797 2669 797 2643.5 857 c 128,-1,36
 2618 917 2618 917 2573.5 966 c 128,-1,37
 2529 1015 2529 1015 2457.5 1049 c 128,-1,38
 2386 1083 2386 1083 2285.5 1101.5 c 128,-1,39
 2185 1120 2185 1120 2048 1120 c 0,40,41
 1931 1120 1931 1120 1826 1103 c 128,-1,42
 1721 1086 1721 1086 1639 1056 c 128,-1,43
 1557 1026 1557 1026 1504.5 985 c 128,-1,44
 1452 944 1452 944 1440 896 c 1,45,46
 1428 942 1428 942 1375 982.5 c 128,-1,47
 1322 1023 1322 1023 1240.5 1053.5 c 128,-1,48
 1159 1084 1159 1084 1054 1102 c 128,-1,49
 949 1120 949 1120 832 1120 c 0,50,51
 640 1120 640 1120 506 1093 c 128,-1,52
 372 1066 372 1066 288 1000 c 128,-1,53
 204 934 204 934 166 823 c 128,-1,54
 128 712 128 712 128 544 c 256,0,1
320 544 m 0,55,56
 320 688 320 688 346 771 c 128,-1,57
 372 854 372 854 432 896 c 128,-1,58
 492 938 492 938 590 949 c 128,-1,59
 688 960 688 960 832 960 c 256,60,61
 976 960 976 960 1074 949 c 128,-1,62
 1172 938 1172 938 1232 896 c 128,-1,63
 1292 854 1292 854 1318 771 c 128,-1,64
 1344 688 1344 688 1344 544 c 256,65,66
 1344 400 1344 400 1318 317 c 128,-1,67
 1292 234 1292 234 1232 192 c 128,-1,68
 1172 150 1172 150 1074 139 c 128,-1,69
 976 128 976 128 832 128 c 0,70,71
 720 128 720 128 638.5 134.5 c 128,-1,72
 557 141 557 141 500 158 c 128,-1,73
 443 175 443 175 408 204 c 128,-1,74
 373 233 373 233 353.5 279.5 c 128,-1,75
 334 326 334 326 327 391 c 128,-1,76
 320 456 320 456 320 544 c 0,55,56
2048 960 m 0,77,78
 2168 960 2168 960 2253 946 c 128,-1,79
 2338 932 2338 932 2392 896 c 128,-1,80
 2446 860 2446 860 2471 798 c 128,-1,81
 2496 736 2496 736 2496 640 c 1,82,-1
 1536 640 l 1,83,84
 1536 748 1536 748 1562 811.5 c 128,-1,85
 1588 875 1588 875 1648 908 c 128,-1,86
 1708 941 1708 941 1806 950.5 c 128,-1,87
 1904 960 1904 960 2048 960 c 0,77,78
EndSplineSet
EndChar

StartChar: scedilla
Encoding: 351 351 278
Width: 1600
GlyphClass: 2
Flags: W
HStem: -619 160<704 884.647> -11 139<393.947 704 832 1187.02> 512 160<354.558 1222.97> 1024 160<381.106 1210.23>
VStem: 128 192<192.846 320 708.733 959.017> 704 128<-203 -11> 896 192<-445.345 -325.926> 1280 192<200.987 460.044 848 934.933>
LayerCount: 2
Fore
SplineSet
704 -459 m 1,0,1
 752 -459 752 -459 788 -457.5 c 128,-1,2
 824 -456 824 -456 848 -447 c 128,-1,3
 872 -438 872 -438 884 -418.5 c 128,-1,4
 896 -399 896 -399 896 -363 c 0,5,6
 896 -351 896 -351 893 -339.5 c 128,-1,7
 890 -328 890 -328 872 -319 c 128,-1,8
 854 -310 854 -310 815 -304.5 c 128,-1,9
 776 -299 776 -299 704 -299 c 1,10,-1
 704 -11 l 1,11,12
 565 -8 565 -8 465 6 c 0,13,14
 343 24 343 24 268 63.5 c 128,-1,15
 193 103 193 103 160.5 166 c 128,-1,16
 128 229 128 229 128 320 c 1,17,-1
 320 320 l 1,18,19
 320 260 320 260 340.5 222.5 c 128,-1,20
 361 185 361 185 412 164 c 128,-1,21
 463 143 463 143 549.5 135.5 c 128,-1,22
 636 128 636 128 768 128 c 0,23,24
 888 128 888 128 972.5 133.5 c 128,-1,25
 1057 139 1057 139 1114 151 c 128,-1,26
 1171 163 1171 163 1204 180 c 128,-1,27
 1237 197 1237 197 1254 221 c 128,-1,28
 1271 245 1271 245 1275.5 274.5 c 128,-1,29
 1280 304 1280 304 1280 340 c 0,30,31
 1280 373 1280 373 1275.5 398.5 c 128,-1,32
 1271 424 1271 424 1255 443 c 128,-1,33
 1239 462 1239 462 1208 475 c 128,-1,34
 1177 488 1177 488 1123.5 496.5 c 128,-1,35
 1070 505 1070 505 991 508.5 c 128,-1,36
 912 512 912 512 800 512 c 0,37,38
 664 512 664 512 561 516 c 128,-1,39
 458 520 458 520 383.5 532.5 c 128,-1,40
 309 545 309 545 259.5 568 c 128,-1,41
 210 591 210 591 181 629.5 c 128,-1,42
 152 668 152 668 140 724.5 c 128,-1,43
 128 781 128 781 128 860 c 0,44,45
 128 950 128 950 166 1011.5 c 128,-1,46
 204 1073 204 1073 288 1111.5 c 128,-1,47
 372 1150 372 1150 506 1167 c 128,-1,48
 640 1184 640 1184 832 1184 c 0,49,50
 1022 1184 1022 1184 1145.5 1164 c 128,-1,51
 1269 1144 1269 1144 1341.5 1102.5 c 128,-1,52
 1414 1061 1414 1061 1443 998 c 128,-1,53
 1472 935 1472 935 1472 848 c 1,54,-1
 1280 848 l 1,55,56
 1280 902 1280 902 1259.5 936 c 128,-1,57
 1239 970 1239 970 1188 989.5 c 128,-1,58
 1137 1009 1137 1009 1050.5 1016.5 c 128,-1,59
 964 1024 964 1024 832 1024 c 0,60,61
 688 1024 688 1024 590 1020 c 128,-1,62
 492 1016 492 1016 432 1000 c 128,-1,63
 372 984 372 984 346 951 c 128,-1,64
 320 918 320 918 320 860 c 0,65,66
 320 813 320 813 324.5 780.5 c 128,-1,67
 329 748 329 748 345 727 c 128,-1,68
 361 706 361 706 392 695 c 128,-1,69
 423 684 423 684 476.5 678.5 c 128,-1,70
 530 673 530 673 609 672.5 c 128,-1,71
 688 672 688 672 800 672 c 0,72,73
 936 672 936 672 1038.5 666 c 128,-1,74
 1141 660 1141 660 1216 645 c 128,-1,75
 1291 630 1291 630 1340 605.5 c 128,-1,76
 1389 581 1389 581 1418.5 544.5 c 128,-1,77
 1448 508 1448 508 1460 458.5 c 128,-1,78
 1472 409 1472 409 1472 344 c 256,79,80
 1472 279 1472 279 1460 227.5 c 128,-1,81
 1448 176 1448 176 1418 136.5 c 128,-1,82
 1388 97 1388 97 1336.5 68.5 c 128,-1,83
 1285 40 1285 40 1207 22.5 c 128,-1,84
 1129 5 1129 5 1020 -3 c 0,85,86
 937 -10 937 -10 832 -11 c 1,87,-1
 832 -203 l 1,88,89
 880 -203 880 -203 926 -210 c 128,-1,90
 972 -217 972 -217 1008 -235 c 128,-1,91
 1044 -253 1044 -253 1066 -284 c 128,-1,92
 1088 -315 1088 -315 1088 -363 c 0,93,94
 1088 -447 1088 -447 1055 -497.5 c 128,-1,95
 1022 -548 1022 -548 968 -575 c 128,-1,96
 914 -602 914 -602 845 -610.5 c 128,-1,97
 776 -619 776 -619 704 -619 c 1,98,-1
 704 -459 l 1,0,1
EndSplineSet
EndChar

StartChar: florin
Encoding: 402 402 311
Width: 1184
GlyphClass: 2
Flags: W
HStem: -288 160<0 265.523> 960 128<128 320 512 960> 1408 160<566.477 960>
VStem: 320 192<-74.0625 960 1088 1354.06>
LayerCount: 2
Fore
SplineSet
320 960 m 1,0,-1
 128 960 l 1,1,-1
 128 1088 l 1,2,-1
 320 1088 l 1,3,-1
 320 1152 l 2,4,5
 320 1272 320 1272 346 1352 c 128,-1,6
 372 1432 372 1432 432 1480 c 128,-1,7
 492 1528 492 1528 590.5 1548 c 128,-1,8
 689 1568 689 1568 833 1568 c 2,9,-1
 960 1568 l 1,10,-1
 960 1408 l 1,11,-1
 832 1408 l 2,12,13
 741 1408 741 1408 680 1404 c 128,-1,14
 619 1400 619 1400 581.5 1376 c 128,-1,15
 544 1352 544 1352 528 1300 c 128,-1,16
 512 1248 512 1248 512 1152 c 2,17,-1
 512 1088 l 1,18,-1
 960 1088 l 1,19,-1
 960 960 l 1,20,-1
 512 960 l 1,21,-1
 512 128 l 2,22,23
 512 8 512 8 486 -72 c 128,-1,24
 460 -152 460 -152 400 -200 c 128,-1,25
 340 -248 340 -248 241.5 -268 c 128,-1,26
 143 -288 143 -288 -1 -288 c 1,27,-1
 0 -128 l 1,28,29
 91 -128 91 -128 152 -124 c 128,-1,30
 213 -120 213 -120 250.5 -96 c 128,-1,31
 288 -72 288 -72 304 -20 c 128,-1,32
 320 32 320 32 320 128 c 2,33,-1
 320 960 l 1,0,-1
EndSplineSet
EndChar

StartChar: dotlessj
Encoding: 567 567 411
Width: 608
GlyphClass: 2
Flags: W
HStem: -384 160<128 263.967>
LayerCount: 2
Fore
SplineSet
480 1088 m 1,0,-1
 288 1088 l 1,1,-1
 288 -64 l 2,2,3
 288 -112 288 -112 281 -143 c 128,-1,4
 274 -174 274 -174 256 -192 c 128,-1,5
 238 -210 238 -210 207 -217 c 128,-1,6
 176 -224 176 -224 128 -224 c 1,7,-1
 128 -384 l 1,8,9
 248 -384 248 -384 318 -361.5 c 128,-1,10
 388 -339 388 -339 424 -297.5 c 128,-1,11
 460 -256 460 -256 470 -197 c 128,-1,12
 480 -138 480 -138 480 -64 c 2,13,-1
 480 1088 l 1,0,-1
EndSplineSet
EndChar

StartChar: circumflex
Encoding: 710 710 412
Width: 1088
GlyphClass: 2
Flags: W
HStem: 1728 128<448 640>
DStem2: 128 1376 256 1280 0.5547 0.83205<0 523.637> 640 1856 544 1728 0.5547 -0.83205<53.2512 576.888>
LayerCount: 2
Fore
SplineSet
832 1280 m 1,0,-1
 960 1376 l 1,1,-1
 640 1856 l 1,2,-1
 448 1856 l 1,3,-1
 128 1376 l 1,4,-1
 256 1280 l 1,5,-1
 544 1728 l 1,6,-1
 832 1280 l 1,0,-1
EndSplineSet
EndChar

StartChar: caron
Encoding: 711 711 413
Width: 1088
GlyphClass: 2
Flags: W
HStem: 1280 128<448 640>
DStem2: 256 1856 128 1760 0.5547 -0.83205<8.8752 532.512> 544 1408 640 1280 0.5547 0.83205<0 523.637>
LayerCount: 2
Fore
SplineSet
544 1408 m 1,0,-1
 256 1856 l 1,1,-1
 128 1760 l 1,2,-1
 448 1280 l 1,3,-1
 640 1280 l 1,4,-1
 960 1760 l 1,5,-1
 832 1856 l 1,6,-1
 544 1408 l 1,0,-1
EndSplineSet
EndChar

StartChar: breve
Encoding: 728 728 414
Width: 1280
GlyphClass: 2
Flags: W
HStem: 1280 128<457.096 822.904>
VStem: 256 160<1447.46 1600> 864 160<1447.46 1600>
LayerCount: 2
Fore
SplineSet
256 1600 m 1,0,1
 256 1432 256 1432 352 1356 c 128,-1,2
 448 1280 448 1280 640 1280 c 256,3,4
 832 1280 832 1280 928 1356 c 128,-1,5
 1024 1432 1024 1432 1024 1600 c 1,6,-1
 864 1600 l 1,7,8
 864 1528 864 1528 847 1489 c 128,-1,9
 830 1450 830 1450 800 1432 c 128,-1,10
 770 1414 770 1414 729 1411 c 128,-1,11
 688 1408 688 1408 640 1408 c 256,12,13
 592 1408 592 1408 551 1411 c 128,-1,14
 510 1414 510 1414 480 1432 c 128,-1,15
 450 1450 450 1450 433 1489 c 128,-1,16
 416 1528 416 1528 416 1600 c 1,17,-1
 256 1600 l 1,0,1
EndSplineSet
EndChar

StartChar: dotaccent
Encoding: 729 729 415
Width: 448
GlyphClass: 2
Flags: W
HStem: 1344 192
VStem: 128 192
LayerCount: 2
Fore
SplineSet
320 1536 m 1,0,-1
 128 1536 l 1,1,-1
 128 1344 l 1,2,-1
 320 1344 l 1,3,-1
 320 1536 l 1,0,-1
EndSplineSet
EndChar

StartChar: ring
Encoding: 730 730 416
Width: 1280
GlyphClass: 2
Flags: W
HStem: 1280 128<498.284 781.716> 1792 128<498.284 781.716>
VStem: 288 160<1458.09 1741.91> 832 160<1458.09 1741.91>
LayerCount: 2
Fore
SplineSet
640 1920 m 256,0,1
 544 1920 544 1920 477 1892.5 c 128,-1,2
 410 1865 410 1865 368 1820 c 128,-1,3
 326 1775 326 1775 307 1717.5 c 128,-1,4
 288 1660 288 1660 288 1600 c 256,5,6
 288 1540 288 1540 307 1482.5 c 128,-1,7
 326 1425 326 1425 368 1380 c 128,-1,8
 410 1335 410 1335 477 1307.5 c 128,-1,9
 544 1280 544 1280 640 1280 c 256,10,11
 736 1280 736 1280 803 1307.5 c 128,-1,12
 870 1335 870 1335 912 1380 c 128,-1,13
 954 1425 954 1425 973 1482.5 c 128,-1,14
 992 1540 992 1540 992 1600 c 256,15,16
 992 1660 992 1660 973 1717.5 c 128,-1,17
 954 1775 954 1775 912 1820 c 128,-1,18
 870 1865 870 1865 803 1892.5 c 128,-1,19
 736 1920 736 1920 640 1920 c 256,0,1
640 1408 m 256,20,21
 580 1408 580 1408 542.5 1424.5 c 128,-1,22
 505 1441 505 1441 484 1468 c 128,-1,23
 463 1495 463 1495 455.5 1529.5 c 128,-1,24
 448 1564 448 1564 448 1600 c 256,25,26
 448 1636 448 1636 455.5 1670.5 c 128,-1,27
 463 1705 463 1705 484 1732 c 128,-1,28
 505 1759 505 1759 542.5 1775.5 c 128,-1,29
 580 1792 580 1792 640 1792 c 256,30,31
 700 1792 700 1792 737.5 1775.5 c 128,-1,32
 775 1759 775 1759 796 1732 c 128,-1,33
 817 1705 817 1705 824.5 1670.5 c 128,-1,34
 832 1636 832 1636 832 1600 c 256,35,36
 832 1564 832 1564 824.5 1529.5 c 128,-1,37
 817 1495 817 1495 796 1468 c 128,-1,38
 775 1441 775 1441 737.5 1424.5 c 128,-1,39
 700 1408 700 1408 640 1408 c 256,20,21
EndSplineSet
EndChar

StartChar: ogonek
Encoding: 731 731 417
Width: 640
GlyphClass: 2
Flags: W
HStem: -512 160<368.996 512>
VStem: 128 192<-322.229 -117.51>
LayerCount: 2
Fore
SplineSet
512 -512 m 1,0,1
 440 -512 440 -512 371 -499 c 128,-1,2
 302 -486 302 -486 248 -456 c 128,-1,3
 194 -426 194 -426 161 -377 c 128,-1,4
 128 -328 128 -328 128 -256 c 0,5,6
 128 -220 128 -220 139 -187 c 128,-1,7
 150 -154 150 -154 168 -125 c 128,-1,8
 186 -96 186 -96 209 -70.5 c 128,-1,9
 232 -45 232 -45 256 -24 c 0,10,11
 312 25 312 25 384 64 c 1,12,-1
 512 64 l 1,13,14
 440 16 440 16 401 -30.5 c 128,-1,15
 362 -77 362 -77 344 -116 c 128,-1,16
 326 -155 326 -155 323 -183.5 c 128,-1,17
 320 -212 320 -212 320 -224 c 0,18,19
 320 -296 320 -296 367.5 -324 c 128,-1,20
 415 -352 415 -352 512 -352 c 1,21,-1
 512 -512 l 1,0,1
EndSplineSet
EndChar

StartChar: tilde
Encoding: 732 732 418
Width: 1152
GlyphClass: 2
Flags: W
HStem: 1344 160<612.379 768 796 827.484> 1440 161<324.254 356 384 540.977>
VStem: 128 192<1344 1438.02> 832 192<1506.54 1600>
DStem2: 603 1552.5 467.5 1425 0.929609 -0.368547<-160.816 169.953>
LayerCount: 2
Fore
SplineSet
384 1440 m 0,0,1
 429 1440 429 1440 467.5 1425 c 128,-1,2
 506 1410 506 1410 549 1392 c 128,-1,3
 592 1374 592 1374 644 1359 c 128,-1,4
 696 1344 696 1344 768 1344 c 0,5,6
 804 1344 804 1344 848.5 1356.5 c 128,-1,7
 893 1369 893 1369 932 1398.5 c 128,-1,8
 971 1428 971 1428 997.5 1477 c 128,-1,9
 1024 1526 1024 1526 1024 1600 c 1,10,-1
 832 1600 l 1,11,12
 832 1570 832 1570 828 1551 c 128,-1,13
 824 1532 824 1532 816 1521.5 c 128,-1,14
 808 1511 808 1511 796 1507.5 c 128,-1,15
 784 1504 784 1504 768 1504 c 0,16,17
 723 1504 723 1504 684.5 1519 c 128,-1,18
 646 1534 646 1534 603 1552.5 c 128,-1,19
 560 1571 560 1571 508 1586 c 128,-1,20
 456 1601 456 1601 384 1601 c 0,21,22
 348 1601 348 1601 303.5 1589.5 c 128,-1,23
 259 1578 259 1578 220 1549 c 128,-1,24
 181 1520 181 1520 154.5 1470 c 128,-1,25
 128 1420 128 1420 128 1344 c 1,26,-1
 320 1344 l 1,27,28
 320 1375 320 1375 324 1394 c 128,-1,29
 328 1413 328 1413 336 1423 c 128,-1,30
 344 1433 344 1433 356 1436.5 c 128,-1,31
 368 1440 368 1440 384 1440 c 0,0,1
EndSplineSet
EndChar

StartChar: hungarumlaut
Encoding: 733 733 419
Width: 1512
GlyphClass: 2
Flags: W
LayerCount: 2
Fore
SplineSet
832 1664 m 1,0,-1
 704 1856 l 1,1,-1
 128 1376 l 1,2,-1
 192 1280 l 1,3,-1
 832 1664 l 1,0,-1
1385 1664 m 1,4,-1
 1257 1856 l 1,5,-1
 681 1376 l 1,6,-1
 745 1280 l 1,7,-1
 1385 1664 l 1,4,-1
EndSplineSet
EndChar

StartChar: uni03A9
Encoding: 937 937 420
Width: 1472
GlyphClass: 2
Flags: W
HStem: 0 224<424.702 576 896 1047.3> 0 160<192 384 1088 1280> 1183 159<432.061 1039.94>
VStem: 128 192<375.277 1052.58> 1152 192<375.277 1052.58>
LayerCount: 2
Fore
SplineSet
192 160 m 1,0,-1
 384 160 l 1,1,2
 323 182 323 182 275.5 222.5 c 128,-1,3
 228 263 228 263 195 325 c 128,-1,4
 162 387 162 387 145 472.5 c 128,-1,5
 128 558 128 558 128 671 c 0,6,7
 128 801 128 801 140.5 901.5 c 128,-1,8
 153 1002 153 1002 181 1076.5 c 128,-1,9
 209 1151 209 1151 255 1201.5 c 128,-1,10
 301 1252 301 1252 368.5 1283.5 c 128,-1,11
 436 1315 436 1315 527 1328.5 c 128,-1,12
 618 1342 618 1342 736 1342 c 256,13,14
 854 1342 854 1342 945 1328.5 c 128,-1,15
 1036 1315 1036 1315 1103.5 1283.5 c 128,-1,16
 1171 1252 1171 1252 1217 1201.5 c 128,-1,17
 1263 1151 1263 1151 1291 1076.5 c 128,-1,18
 1319 1002 1319 1002 1331.5 901.5 c 128,-1,19
 1344 801 1344 801 1344 671 c 0,20,21
 1344 558 1344 558 1327 472.5 c 128,-1,22
 1310 387 1310 387 1277 325 c 128,-1,23
 1244 263 1244 263 1196.5 222.5 c 128,-1,24
 1149 182 1149 182 1088 160 c 1,25,-1
 1280 160 l 1,26,-1
 1280 0 l 1,27,-1
 896 0 l 1,28,-1
 896 224 l 1,29,30
 944 224 944 224 990 236.5 c 128,-1,31
 1036 249 1036 249 1072 294.5 c 128,-1,32
 1108 340 1108 340 1130 429 c 128,-1,33
 1152 518 1152 518 1152 671 c 0,34,35
 1152 799 1152 799 1143.5 886.5 c 128,-1,36
 1135 974 1135 974 1115.5 1031 c 128,-1,37
 1096 1088 1096 1088 1064 1119 c 128,-1,38
 1032 1150 1032 1150 986 1164 c 128,-1,39
 940 1178 940 1178 878 1180.5 c 128,-1,40
 816 1183 816 1183 736 1183 c 256,41,42
 656 1183 656 1183 594 1180.5 c 128,-1,43
 532 1178 532 1178 486 1164 c 128,-1,44
 440 1150 440 1150 408 1119 c 128,-1,45
 376 1088 376 1088 356.5 1031 c 128,-1,46
 337 974 337 974 328.5 886.5 c 128,-1,47
 320 799 320 799 320 671 c 0,48,49
 320 518 320 518 342 429 c 128,-1,50
 364 340 364 340 400 294.5 c 128,-1,51
 436 249 436 249 482 236.5 c 128,-1,52
 528 224 528 224 576 224 c 1,53,-1
 576 0 l 1,54,-1
 192 0 l 1,55,-1
 192 160 l 1,0,-1
EndSplineSet
EndChar

StartChar: pi
Encoding: 960 960 421
Width: 448
GlyphClass: 2
Flags: W
HStem: 0 21G<128 320> 1344 192<128 320>
VStem: 128 192<0 1088 1344 1536>
LayerCount: 2
Fore
SplineSet
128 1088 m 1,0,-1
 320 1088 l 1,1,-1
 320 0 l 1,2,-1
 128 0 l 1,3,-1
 128 1088 l 1,0,-1
320 1344 m 1,4,-1
 128 1344 l 1,5,-1
 128 1536 l 1,6,-1
 320 1536 l 1,7,-1
 320 1344 l 1,4,-1
128 1088 m 1,8,-1
 320 1088 l 1,9,-1
 320 0 l 1,10,-1
 128 0 l 1,11,-1
 128 1088 l 1,8,-1
320 1344 m 1,12,-1
 128 1344 l 1,13,-1
 128 1536 l 1,14,-1
 320 1536 l 1,15,-1
 320 1344 l 1,12,-1
EndSplineSet
EndChar

StartChar: endash
Encoding: 8211 8211 422
Width: 1088
GlyphClass: 2
Flags: W
HStem: 512 160
LayerCount: 2
Fore
SplineSet
128 512 m 1,0,-1
 960 512 l 1,1,-1
 960 672 l 1,2,-1
 128 672 l 1,3,-1
 128 512 l 1,0,-1
EndSplineSet
EndChar

StartChar: emdash
Encoding: 8212 8212 423
Width: 1088
GlyphClass: 2
Flags: W
HStem: 512 160
LayerCount: 2
Fore
SplineSet
0 512 m 1,0,-1
 1088 512 l 1,1,-1
 1088 672 l 1,2,-1
 0 672 l 1,3,-1
 0 512 l 1,0,-1
EndSplineSet
EndChar

StartChar: quoteleft
Encoding: 8216 8216 424
Width: 512
GlyphClass: 2
Flags: W
HStem: 1152 384
LayerCount: 2
Fore
SplineSet
128 1152 m 1,0,-1
 256 1152 l 1,1,-1
 384 1536 l 1,2,-1
 192 1536 l 1,3,-1
 128 1152 l 1,0,-1
EndSplineSet
EndChar

StartChar: quoteright
Encoding: 8217 8217 425
Width: 512
GlyphClass: 2
Flags: W
HStem: 1152 384
LayerCount: 2
Fore
SplineSet
128 1152 m 1,0,-1
 256 1152 l 1,1,-1
 384 1536 l 1,2,-1
 192 1536 l 1,3,-1
 128 1152 l 1,0,-1
EndSplineSet
EndChar

StartChar: quotesinglbase
Encoding: 8218 8218 426
Width: 448
GlyphClass: 2
Flags: W
HStem: -256 384
LayerCount: 2
Fore
SplineSet
64 -256 m 1,0,-1
 192 -256 l 1,1,-1
 320 128 l 1,2,-1
 128 128 l 1,3,-1
 64 -256 l 1,0,-1
EndSplineSet
EndChar

StartChar: quotedblleft
Encoding: 8220 8220 427
Width: 768
GlyphClass: 2
Flags: W
HStem: 1152 384
LayerCount: 2
Fore
SplineSet
384 1152 m 1,0,-1
 512 1152 l 1,1,-1
 640 1536 l 1,2,-1
 448 1536 l 1,3,-1
 384 1152 l 1,0,-1
128 1152 m 1,4,-1
 256 1152 l 1,5,-1
 384 1536 l 1,6,-1
 192 1536 l 1,7,-1
 128 1152 l 1,4,-1
EndSplineSet
EndChar

StartChar: quotedblright
Encoding: 8221 8221 428
Width: 832
GlyphClass: 2
Flags: W
HStem: 1152 384
LayerCount: 2
Fore
SplineSet
128 1152 m 1,0,-1
 256 1152 l 1,1,-1
 384 1536 l 1,2,-1
 192 1536 l 1,3,-1
 128 1152 l 1,0,-1
448 1152 m 1,4,-1
 576 1152 l 1,5,-1
 704 1536 l 1,6,-1
 512 1536 l 1,7,-1
 448 1152 l 1,4,-1
EndSplineSet
EndChar

StartChar: quotedblbase
Encoding: 8222 8222 429
Width: 832
GlyphClass: 2
Flags: W
HStem: -192 384
LayerCount: 2
Fore
SplineSet
128 -192 m 1,0,-1
 256 -192 l 1,1,-1
 384 192 l 1,2,-1
 192 192 l 1,3,-1
 128 -192 l 1,0,-1
448 -192 m 1,4,-1
 576 -192 l 1,5,-1
 704 192 l 1,6,-1
 512 192 l 1,7,-1
 448 -192 l 1,4,-1
EndSplineSet
EndChar

StartChar: dagger
Encoding: 8224 8224 430
Width: 960
GlyphClass: 2
Flags: W
LayerCount: 2
Fore
SplineSet
832 928 m 1,0,-1
 832 1088 l 1,1,-1
 576 1088 l 1,2,-1
 576 1600 l 1,3,-1
 384 1600 l 1,4,-1
 384 1088 l 1,5,-1
 128 1088 l 1,6,-1
 128 928 l 1,7,-1
 384 928 l 1,8,-1
 384 -128 l 1,9,-1
 576 -128 l 1,10,-1
 576 928 l 1,11,-1
 832 928 l 1,0,-1
EndSplineSet
EndChar

